G75*
%MOIN*%
%OFA0B0*%
%FSLAX26Y26*%
%IPPOS*%
%LPD*%
%AMOC8*
5,1,8,0,0,1.08239X$1,22.5*
%
%ADD10C,0.003000*%
%ADD11R,0.002000X0.072000*%
%ADD12R,0.002000X0.076000*%
%ADD13R,0.002000X0.080000*%
%ADD14R,0.002000X0.082000*%
%ADD15R,0.002000X0.078000*%
%ADD16R,0.002000X0.054000*%
%ADD17R,0.002000X0.050000*%
%ADD18R,0.002000X0.048000*%
%ADD19R,0.002000X0.046000*%
%ADD20R,0.002000X0.164000*%
%ADD21R,0.002000X0.060000*%
%ADD22R,0.002000X0.036000*%
%ADD23R,0.002000X0.168000*%
%ADD24R,0.002000X0.064000*%
%ADD25R,0.002000X0.040000*%
%ADD26R,0.002000X0.172000*%
%ADD27R,0.002000X0.068000*%
%ADD28R,0.002000X0.044000*%
%ADD29R,0.002000X0.174000*%
%ADD30R,0.002000X0.176000*%
%ADD31R,0.002000X0.070000*%
%ADD32R,0.002000X0.056000*%
%ADD33R,0.002000X0.074000*%
%ADD34R,0.002000X0.052000*%
%ADD35R,0.002000X0.170000*%
%ADD36R,0.002000X0.058000*%
%ADD37R,0.002000X0.062000*%
%ADD38R,0.002000X0.066000*%
%ADD39R,0.002000X0.238000*%
%ADD40R,0.002000X0.236000*%
%ADD41R,0.002000X0.232000*%
%ADD42R,0.002000X0.230000*%
%ADD43R,0.002000X0.228000*%
%ADD44R,0.002000X0.160000*%
%ADD45R,0.002000X0.224000*%
%ADD46R,0.002000X0.152000*%
%ADD47R,0.002000X0.214000*%
%ADD48R,0.002000X0.162000*%
%ADD49R,0.002000X0.154000*%
%ADD50R,0.002000X0.398000*%
%ADD51R,0.002000X0.402000*%
%ADD52R,0.002000X0.404000*%
%ADD53R,0.002000X0.406000*%
%ADD54R,0.002000X0.408000*%
%ADD55R,0.002000X0.410000*%
%ADD56R,0.002000X0.412000*%
%ADD57R,0.002000X0.020000*%
%ADD58R,0.002000X0.016000*%
%ADD59R,0.002000X0.014000*%
%ADD60R,0.002000X0.022000*%
%ADD61R,0.002000X0.018000*%
%ADD62R,0.002000X0.024000*%
%ADD63R,0.002000X0.028000*%
%ADD64R,0.002000X0.026000*%
%ADD65R,0.002000X0.032000*%
%ADD66R,0.002000X0.030000*%
%ADD67R,0.002000X0.034000*%
%ADD68R,0.002000X0.038000*%
%ADD69R,0.002000X0.042000*%
%ADD70R,0.002000X0.092000*%
%ADD71R,0.002000X0.104000*%
%ADD72R,0.002000X0.116000*%
%ADD73R,0.002000X0.114000*%
%ADD74R,0.002000X0.124000*%
%ADD75R,0.002000X0.132000*%
%ADD76R,0.002000X0.090000*%
%ADD77R,0.002000X0.112000*%
%ADD78R,0.002000X0.100000*%
%ADD79R,0.002000X0.120000*%
%ADD80R,0.002000X0.110000*%
%ADD81R,0.002000X0.012000*%
%ADD82R,0.002000X0.008000*%
%ADD83R,0.002000X0.006000*%
%ADD84R,0.002000X0.010000*%
%ADD85R,0.002000X0.002000*%
%ADD86R,0.002000X0.146000*%
%ADD87R,0.002000X0.144000*%
%ADD88R,0.002000X0.142000*%
%ADD89R,0.002000X0.138000*%
%ADD90R,0.002000X0.140000*%
%ADD91R,0.002000X0.004000*%
%ADD92R,0.002000X0.166000*%
%ADD93R,0.002000X0.122000*%
%ADD94R,0.002000X0.158000*%
%ADD95R,0.002000X0.108000*%
%ADD96R,0.002000X0.098000*%
%ADD97R,0.002000X0.084000*%
%ADD98R,0.002000X0.136000*%
%ADD99C,0.010000*%
%ADD100C,0.002000*%
%ADD101C,0.006000*%
%ADD102C,0.016000*%
%ADD103C,0.008000*%
%ADD104R,0.007874X0.047244*%
%ADD105R,0.047244X0.007874*%
%ADD106C,0.002496*%
%ADD107C,0.009843*%
%ADD108C,0.005000*%
%ADD109C,0.001000*%
%ADD110C,0.000000*%
D10*
X00049366Y00003098D02*
X01359209Y00003098D01*
X01359209Y03940106D01*
X00049366Y03940106D01*
X00049366Y00003098D01*
X00170564Y02040122D02*
X00176236Y02040122D01*
X00179071Y02042958D01*
X00186144Y02042958D02*
X00188980Y02040122D01*
X00194651Y02040122D01*
X00197487Y02042958D01*
X00197487Y02045794D01*
X00194651Y02048629D01*
X00191816Y02048629D01*
X00194651Y02048629D02*
X00197487Y02051465D01*
X00197487Y02054301D01*
X00194651Y02057137D01*
X00188980Y02057137D01*
X00186144Y02054301D01*
X00179071Y02054301D02*
X00176236Y02057137D01*
X00170564Y02057137D01*
X00167728Y02054301D01*
X00167728Y02042958D01*
X00170564Y02040122D01*
X00250084Y02235949D02*
X00250084Y02241620D01*
X00250084Y02238785D02*
X00267098Y02238785D01*
X00267098Y02241620D02*
X00267098Y02235949D01*
X00264263Y02248226D02*
X00267098Y02251062D01*
X00267098Y02256733D01*
X00264263Y02259569D01*
X00267098Y02266642D02*
X00267098Y02277985D01*
X00267098Y02272313D02*
X00250084Y02272313D01*
X00255755Y02266642D01*
X00252920Y02259569D02*
X00250084Y02256733D01*
X00250084Y02251062D01*
X00252920Y02248226D01*
X00264263Y02248226D01*
X00305753Y02248741D02*
X00308589Y02248741D01*
X00319932Y02237398D01*
X00322768Y02237398D01*
X00322768Y02230325D02*
X00322768Y02218982D01*
X00322768Y02224653D02*
X00305753Y02224653D01*
X00311425Y02218982D01*
X00322768Y02211909D02*
X00322768Y02200566D01*
X00322768Y02206238D02*
X00305753Y02206238D01*
X00311425Y02200566D01*
X00322768Y02193493D02*
X00322768Y02182150D01*
X00322768Y02187822D02*
X00305753Y02187822D01*
X00311425Y02182150D01*
X00305753Y02175078D02*
X00322768Y02175078D01*
X00322768Y02163735D02*
X00305753Y02163735D01*
X00311425Y02169406D01*
X00305753Y02175078D01*
X00322768Y02156662D02*
X00322768Y02145319D01*
X00305753Y02145319D01*
X00350880Y02058932D02*
X00345209Y02053260D01*
X00350880Y02058932D02*
X00350880Y02041917D01*
X00345209Y02041917D02*
X00356552Y02041917D01*
X00363624Y02044753D02*
X00374967Y02056096D01*
X00374967Y02044753D01*
X00372132Y02041917D01*
X00366460Y02041917D01*
X00363624Y02044753D01*
X00363624Y02056096D01*
X00366460Y02058932D01*
X00372132Y02058932D01*
X00374967Y02056096D01*
X00382040Y02053260D02*
X00382040Y02044753D01*
X00384876Y02041917D01*
X00393383Y02041917D01*
X00393383Y02053260D01*
X00322768Y02255813D02*
X00305753Y02255813D01*
X00311425Y02261485D01*
X00305753Y02267156D01*
X00322768Y02267156D01*
X00322768Y02274229D02*
X00305753Y02274229D01*
X00305753Y02282736D01*
X00308589Y02285572D01*
X00314260Y02285572D01*
X00317096Y02282736D01*
X00317096Y02274229D01*
X00322768Y02292645D02*
X00305753Y02303988D01*
X00314260Y02311060D02*
X00314260Y02322403D01*
X00308589Y02329476D02*
X00305753Y02332312D01*
X00305753Y02337983D01*
X00308589Y02340819D01*
X00311425Y02340819D01*
X00314260Y02337983D01*
X00317096Y02340819D01*
X00319932Y02340819D01*
X00322768Y02337983D01*
X00322768Y02332312D01*
X00319932Y02329476D01*
X00314260Y02335148D02*
X00314260Y02337983D01*
X00319932Y02347892D02*
X00319932Y02350728D01*
X00322768Y02350728D01*
X00322768Y02347892D01*
X00319932Y02347892D01*
X00319932Y02357100D02*
X00322768Y02359935D01*
X00322768Y02365607D01*
X00319932Y02368443D01*
X00317096Y02368443D01*
X00314260Y02365607D01*
X00314260Y02362771D01*
X00314260Y02365607D02*
X00311425Y02368443D01*
X00308589Y02368443D01*
X00305753Y02365607D01*
X00305753Y02359935D01*
X00308589Y02357100D01*
X00322768Y02303988D02*
X00305753Y02292645D01*
X00305753Y02248741D02*
X00305753Y02237398D01*
X00311229Y02536657D02*
X00322572Y02536657D01*
X00316901Y02536657D02*
X00316901Y02553672D01*
X00311229Y02548000D01*
X00329645Y02550836D02*
X00332481Y02553672D01*
X00338152Y02553672D01*
X00340988Y02550836D01*
X00329645Y02539493D01*
X00332481Y02536657D01*
X00338152Y02536657D01*
X00340988Y02539493D01*
X00340988Y02550836D01*
X00348061Y02548000D02*
X00348061Y02539493D01*
X00350896Y02536657D01*
X00359404Y02536657D01*
X00359404Y02548000D01*
X00329645Y02550836D02*
X00329645Y02539493D01*
X00250978Y02537809D02*
X00250978Y02534974D01*
X00248143Y02532138D01*
X00242471Y02532138D01*
X00239635Y02534974D01*
X00232563Y02532138D02*
X00221220Y02532138D01*
X00226891Y02532138D02*
X00226891Y02549152D01*
X00221220Y02543481D01*
X00214147Y02546317D02*
X00211311Y02549152D01*
X00205640Y02549152D01*
X00202804Y02546317D01*
X00202804Y02534974D01*
X00205640Y02532138D01*
X00211311Y02532138D01*
X00214147Y02534974D01*
X00239635Y02546317D02*
X00242471Y02549152D01*
X00248143Y02549152D01*
X00250978Y02546317D01*
X00250978Y02543481D01*
X00248143Y02540645D01*
X00250978Y02537809D01*
X00248143Y02540645D02*
X00245307Y02540645D01*
X00510892Y02715900D02*
X00525071Y02715900D01*
X00527907Y02718735D01*
X00527907Y02724407D01*
X00525071Y02727243D01*
X00510892Y02727243D01*
X00516564Y02734315D02*
X00510892Y02739987D01*
X00527907Y02739987D01*
X00527907Y02745658D02*
X00527907Y02734315D01*
X00677211Y02809476D02*
X00680047Y02806640D01*
X00682883Y02806640D01*
X00685719Y02809476D01*
X00685719Y02815147D01*
X00688554Y02817983D01*
X00691390Y02817983D01*
X00694226Y02815147D01*
X00694226Y02809476D01*
X00691390Y02806640D01*
X00677211Y02809476D02*
X00677211Y02815147D01*
X00680047Y02817983D01*
X00677211Y02825056D02*
X00677211Y02836399D01*
X00677211Y02830727D02*
X00694226Y02830727D01*
X00694226Y02843471D02*
X00677211Y02843471D01*
X00682883Y02849143D01*
X00677211Y02854814D01*
X00694226Y02854814D01*
X00691390Y02861887D02*
X00694226Y02864723D01*
X00694226Y02870394D01*
X00691390Y02873230D01*
X00688554Y02873230D01*
X00685719Y02870394D01*
X00685719Y02867559D01*
X00685719Y02870394D02*
X00682883Y02873230D01*
X00680047Y02873230D01*
X00677211Y02870394D01*
X00677211Y02864723D01*
X00680047Y02861887D01*
X00680047Y02880303D02*
X00677211Y02883139D01*
X00677211Y02888810D01*
X00680047Y02891646D01*
X00682883Y02891646D01*
X00694226Y02880303D01*
X00694226Y02891646D01*
X00694226Y02898719D02*
X00677211Y02898719D01*
X00677211Y02910062D01*
X00682883Y02917134D02*
X00677211Y02922806D01*
X00694226Y02922806D01*
X00694226Y02928477D02*
X00694226Y02917134D01*
X00685719Y02904390D02*
X00685719Y02898719D01*
X00691390Y02935550D02*
X00680047Y02946893D01*
X00691390Y02946893D01*
X00694226Y02944057D01*
X00694226Y02938386D01*
X00691390Y02935550D01*
X00680047Y02935550D01*
X00677211Y02938386D01*
X00677211Y02944057D01*
X00680047Y02946893D01*
X00677211Y02953966D02*
X00694226Y02965309D01*
X00694226Y02972381D02*
X00677211Y02972381D01*
X00677211Y02980889D01*
X00680047Y02983724D01*
X00685719Y02983724D01*
X00688554Y02980889D01*
X00688554Y02972381D01*
X00688554Y02978053D02*
X00694226Y02983724D01*
X00694226Y02990797D02*
X00677211Y03002140D01*
X00677211Y03009213D02*
X00677211Y03020556D01*
X00677211Y03014884D02*
X00694226Y03014884D01*
X00694226Y03002140D02*
X00677211Y02990797D01*
X00677211Y02965309D02*
X00694226Y02953966D01*
X00691390Y03027629D02*
X00694226Y03030464D01*
X00694226Y03036136D01*
X00691390Y03038972D01*
X00688554Y03038972D01*
X00685719Y03036136D01*
X00685719Y03027629D01*
X00691390Y03027629D01*
X00685719Y03027629D02*
X00680047Y03033300D01*
X00677211Y03038972D01*
X00769604Y02339681D02*
X00775276Y02339681D01*
X00778111Y02336845D01*
X00778111Y02325502D01*
X00775276Y02322666D01*
X00769604Y02322666D01*
X00766768Y02325502D01*
X00766768Y02336845D01*
X00769604Y02339681D01*
X00772440Y02328338D02*
X00778111Y02322666D01*
X00785184Y02322666D02*
X00796527Y02322666D01*
X00790856Y02322666D02*
X00790856Y02339681D01*
X00785184Y02334009D01*
X01080822Y03604898D02*
X01075151Y03610569D01*
X01092165Y03610569D01*
X01092165Y03604898D02*
X01092165Y03616241D01*
X01089330Y03623313D02*
X01077987Y03634656D01*
X01089330Y03634656D01*
X01092165Y03631821D01*
X01092165Y03626149D01*
X01089330Y03623313D01*
X01077987Y03623313D01*
X01075151Y03626149D01*
X01075151Y03631821D01*
X01077987Y03634656D01*
X01075151Y03641729D02*
X01092165Y03641729D01*
X01086494Y03641729D02*
X01080822Y03650236D01*
X01086494Y03641729D02*
X01092165Y03650236D01*
X01138348Y03742228D02*
X01138348Y03750736D01*
X01141183Y03753571D01*
X01146855Y03753571D01*
X01149691Y03750736D01*
X01149691Y03742228D01*
X01155362Y03742228D02*
X01138348Y03742228D01*
X01141183Y03760644D02*
X01152526Y03760644D01*
X01155362Y03763480D01*
X01155362Y03769151D01*
X01152526Y03771987D01*
X01141183Y03771987D01*
X01138348Y03769151D01*
X01138348Y03763480D01*
X01141183Y03760644D01*
X01138348Y03779060D02*
X01155362Y03779060D01*
X01149691Y03784731D01*
X01155362Y03790403D01*
X01138348Y03790403D01*
X01138348Y03797476D02*
X01155362Y03797476D01*
X01155362Y03808819D01*
X01155362Y03815891D02*
X01138348Y03815891D01*
X01138348Y03824399D01*
X01141183Y03827234D01*
X01146855Y03827234D01*
X01149691Y03824399D01*
X01149691Y03815891D01*
X01149691Y03821563D02*
X01155362Y03827234D01*
X01138348Y03808819D02*
X01138348Y03797476D01*
X01146855Y03797476D02*
X01146855Y03803147D01*
X01195467Y03656767D02*
X01192631Y03653931D01*
X01192631Y03648259D01*
X01195467Y03645424D01*
X01195467Y03638351D02*
X01192631Y03635515D01*
X01192631Y03627008D01*
X01209646Y03627008D01*
X01203974Y03627008D02*
X01203974Y03635515D01*
X01201138Y03638351D01*
X01195467Y03638351D01*
X01203974Y03632679D02*
X01209646Y03638351D01*
X01206810Y03645424D02*
X01209646Y03648259D01*
X01209646Y03653931D01*
X01206810Y03656767D01*
X01203974Y03656767D01*
X01201138Y03653931D01*
X01201138Y03651095D01*
X01201138Y03653931D02*
X01198303Y03656767D01*
X01195467Y03656767D01*
X00255110Y03624954D02*
X00238096Y03624954D01*
X00246603Y03616447D01*
X00246603Y03627790D01*
X00246603Y03609375D02*
X00249439Y03606539D01*
X00249439Y03598031D01*
X00255110Y03598031D02*
X00238096Y03598031D01*
X00238096Y03606539D01*
X00240931Y03609375D01*
X00246603Y03609375D01*
X00249439Y03603703D02*
X00255110Y03609375D01*
X00168778Y03733397D02*
X00171614Y03736233D01*
X00171614Y03741904D01*
X00168778Y03744740D01*
X00168778Y03751813D02*
X00171614Y03754648D01*
X00171614Y03760320D01*
X00168778Y03763156D01*
X00157435Y03763156D01*
X00154600Y03760320D01*
X00154600Y03754648D01*
X00157435Y03751813D01*
X00168778Y03751813D01*
X00157435Y03744740D02*
X00154600Y03741904D01*
X00154600Y03736233D01*
X00157435Y03733397D01*
X00168778Y03733397D01*
X00171614Y03770228D02*
X00154600Y03770228D01*
X00171614Y03781571D01*
X00154600Y03781571D01*
X00154600Y03788644D02*
X00171614Y03799987D01*
X00154600Y03799987D01*
X00154600Y03807060D02*
X00171614Y03807060D01*
X00171614Y03818403D01*
X00168778Y03825476D02*
X00171614Y03828311D01*
X00171614Y03833983D01*
X00168778Y03836819D01*
X00157435Y03836819D02*
X00154600Y03833983D01*
X00154600Y03828311D01*
X00157435Y03825476D01*
X00168778Y03825476D01*
X00163107Y03812731D02*
X00163107Y03807060D01*
X00154600Y03807060D02*
X00154600Y03818403D01*
X00154600Y03843891D02*
X00154600Y03855234D01*
X00154600Y03849563D02*
X00171614Y03849563D01*
X00171614Y03788644D02*
X00154600Y03788644D01*
X00147315Y03637480D02*
X00141643Y03628973D01*
X00135972Y03637480D01*
X00130300Y03628973D02*
X00147315Y03628973D01*
X00144479Y03621900D02*
X00147315Y03619065D01*
X00147315Y03613393D01*
X00144479Y03610557D01*
X00133136Y03621900D01*
X00144479Y03621900D01*
X00144479Y03610557D02*
X00133136Y03610557D01*
X00130300Y03613393D01*
X00130300Y03619065D01*
X00133136Y03621900D01*
X00147315Y03603485D02*
X00147315Y03592142D01*
X00147315Y03597813D02*
X00130300Y03597813D01*
X00135972Y03592142D01*
D11*
X00422000Y01889000D03*
X00334000Y01561000D03*
X00150000Y01329000D03*
X00372000Y00843000D03*
X00374000Y00843000D03*
X00376000Y00843000D03*
X00422000Y00629000D03*
X00848000Y00855000D03*
X00850000Y00855000D03*
X00850000Y01049000D03*
X00852000Y01049000D03*
X00854000Y01049000D03*
X00856000Y01049000D03*
X00934000Y00855000D03*
X00958000Y00855000D03*
X00960000Y00855000D03*
X00988000Y01323000D03*
X00960000Y01399000D03*
X00958000Y01399000D03*
X00958000Y01593000D03*
X00956000Y01593000D03*
X00936000Y01593000D03*
X00934000Y01593000D03*
X00852000Y01593000D03*
X00850000Y01593000D03*
X00850000Y01399000D03*
X00848000Y01399000D03*
D12*
X00846000Y01595000D03*
X00930000Y01595000D03*
X00962000Y01595000D03*
X00968000Y01325000D03*
X00986000Y01323000D03*
X00846000Y01051000D03*
X00930000Y00857000D03*
X00634000Y00971000D03*
X00634000Y01549000D03*
D13*
X00594000Y00961000D03*
X00844000Y01053000D03*
X00844000Y00859000D03*
X00972000Y01323000D03*
X00974000Y01323000D03*
X00982000Y01323000D03*
X00984000Y01323000D03*
X00928000Y01597000D03*
X00844000Y01597000D03*
X00844000Y01403000D03*
D14*
X00976000Y01322000D03*
X00978000Y01322000D03*
X00980000Y01322000D03*
D15*
X00970000Y01324000D03*
X00964000Y01402000D03*
X00964000Y01596000D03*
X00964000Y00858000D03*
X00928000Y00858000D03*
X00592000Y01558000D03*
D16*
X00844000Y01510000D03*
X00904000Y01706000D03*
X00964000Y01706000D03*
X00964000Y01510000D03*
X00988000Y01510000D03*
X00966000Y01336000D03*
X00844000Y01224000D03*
D17*
X00846000Y01226000D03*
X00848000Y00970000D03*
X00900000Y00970000D03*
X00932000Y00970000D03*
X00960000Y00970000D03*
X00964000Y01338000D03*
X00962000Y01512000D03*
X00990000Y01512000D03*
X00960000Y01708000D03*
X00932000Y01708000D03*
X00900000Y01708000D03*
X00848000Y01708000D03*
X00846000Y01512000D03*
X00622000Y01504000D03*
X00622000Y01594000D03*
X00582000Y01598000D03*
X00506000Y01894000D03*
X00504000Y01896000D03*
X00502000Y01898000D03*
X00414000Y01890000D03*
X00394000Y01438000D03*
X00584000Y01000000D03*
X00584000Y00922000D03*
X00622000Y00926000D03*
X00622000Y01016000D03*
X00506000Y00624000D03*
X00504000Y00622000D03*
X00502000Y00620000D03*
X00500000Y00618000D03*
D18*
X00508000Y00627000D03*
X00452000Y00901000D03*
X00450000Y00901000D03*
X00448000Y00901000D03*
X00446000Y00901000D03*
X00582000Y01519000D03*
X00476000Y01601000D03*
X00474000Y01601000D03*
X00472000Y01601000D03*
X00470000Y01601000D03*
X00508000Y01891000D03*
X00850000Y01709000D03*
X00852000Y01709000D03*
X00896000Y01709000D03*
X00898000Y01709000D03*
X00934000Y01709000D03*
X00936000Y01709000D03*
X00956000Y01709000D03*
X00958000Y01709000D03*
X00960000Y01513000D03*
X00992000Y01513000D03*
X01008000Y01513000D03*
X00856000Y01145000D03*
X00854000Y01145000D03*
X00852000Y01145000D03*
X00850000Y01145000D03*
X00848000Y01227000D03*
X00850000Y00971000D03*
X00852000Y00971000D03*
X00854000Y00971000D03*
X00856000Y00971000D03*
X00858000Y00971000D03*
X00860000Y00971000D03*
X00862000Y00971000D03*
X00864000Y00971000D03*
X00866000Y00971000D03*
X00868000Y00971000D03*
X00870000Y00971000D03*
X00872000Y00971000D03*
X00874000Y00971000D03*
X00876000Y00971000D03*
X00878000Y00971000D03*
X00880000Y00971000D03*
X00882000Y00971000D03*
X00884000Y00971000D03*
X00886000Y00971000D03*
X00888000Y00971000D03*
X00890000Y00971000D03*
X00892000Y00971000D03*
X00894000Y00971000D03*
X00896000Y00971000D03*
X00898000Y00971000D03*
X00934000Y00971000D03*
X00936000Y00971000D03*
X00938000Y00971000D03*
X00940000Y00971000D03*
X00942000Y00971000D03*
X00944000Y00971000D03*
X00946000Y00971000D03*
X00948000Y00971000D03*
X00950000Y00971000D03*
X00952000Y00971000D03*
X00954000Y00971000D03*
X00956000Y00971000D03*
X00958000Y00971000D03*
X00848000Y01513000D03*
D19*
X00850000Y01514000D03*
X00852000Y01514000D03*
X00854000Y01514000D03*
X00856000Y01514000D03*
X00858000Y01514000D03*
X00860000Y01514000D03*
X00862000Y01514000D03*
X00864000Y01514000D03*
X00866000Y01514000D03*
X00868000Y01514000D03*
X00870000Y01514000D03*
X00872000Y01514000D03*
X00874000Y01514000D03*
X00876000Y01514000D03*
X00878000Y01514000D03*
X00880000Y01514000D03*
X00882000Y01514000D03*
X00884000Y01514000D03*
X00886000Y01514000D03*
X00888000Y01514000D03*
X00890000Y01514000D03*
X00892000Y01514000D03*
X00894000Y01514000D03*
X00896000Y01514000D03*
X00898000Y01514000D03*
X00900000Y01514000D03*
X00902000Y01514000D03*
X00904000Y01514000D03*
X00906000Y01514000D03*
X00908000Y01514000D03*
X00910000Y01514000D03*
X00912000Y01514000D03*
X00914000Y01514000D03*
X00916000Y01514000D03*
X00918000Y01514000D03*
X00920000Y01514000D03*
X00922000Y01514000D03*
X00924000Y01514000D03*
X00926000Y01514000D03*
X00928000Y01514000D03*
X00930000Y01514000D03*
X00932000Y01514000D03*
X00934000Y01514000D03*
X00936000Y01514000D03*
X00938000Y01514000D03*
X00940000Y01514000D03*
X00942000Y01514000D03*
X00944000Y01514000D03*
X00946000Y01514000D03*
X00948000Y01514000D03*
X00950000Y01514000D03*
X00952000Y01514000D03*
X00954000Y01514000D03*
X00956000Y01514000D03*
X00958000Y01514000D03*
X00994000Y01514000D03*
X00996000Y01514000D03*
X00998000Y01514000D03*
X01000000Y01514000D03*
X01002000Y01514000D03*
X01004000Y01514000D03*
X01006000Y01514000D03*
X00954000Y01710000D03*
X00952000Y01710000D03*
X00950000Y01710000D03*
X00948000Y01710000D03*
X00946000Y01710000D03*
X00944000Y01710000D03*
X00942000Y01710000D03*
X00940000Y01710000D03*
X00938000Y01710000D03*
X00894000Y01710000D03*
X00892000Y01710000D03*
X00890000Y01710000D03*
X00888000Y01710000D03*
X00886000Y01710000D03*
X00884000Y01710000D03*
X00882000Y01710000D03*
X00880000Y01710000D03*
X00878000Y01710000D03*
X00876000Y01710000D03*
X00874000Y01710000D03*
X00872000Y01710000D03*
X00870000Y01710000D03*
X00868000Y01710000D03*
X00866000Y01710000D03*
X00864000Y01710000D03*
X00862000Y01710000D03*
X00860000Y01710000D03*
X00858000Y01710000D03*
X00856000Y01710000D03*
X00854000Y01710000D03*
X00854000Y01228000D03*
X00852000Y01228000D03*
X00850000Y01228000D03*
X00856000Y01228000D03*
X00858000Y01228000D03*
X00860000Y01228000D03*
X00862000Y01228000D03*
X00864000Y01228000D03*
X00866000Y01228000D03*
X00868000Y01228000D03*
X00870000Y01228000D03*
X00872000Y01228000D03*
X00874000Y01228000D03*
X00876000Y01228000D03*
X00878000Y01228000D03*
X00880000Y01228000D03*
X00882000Y01228000D03*
X00884000Y01228000D03*
X00886000Y01228000D03*
X00888000Y01228000D03*
X00890000Y01228000D03*
X00892000Y01228000D03*
X00894000Y01228000D03*
X00896000Y01228000D03*
X00898000Y01228000D03*
X00900000Y01228000D03*
X00902000Y01228000D03*
X00904000Y01228000D03*
X00906000Y01228000D03*
X00908000Y01228000D03*
X00910000Y01228000D03*
X00912000Y01228000D03*
X00914000Y01228000D03*
X00916000Y01228000D03*
X00918000Y01228000D03*
X00920000Y01228000D03*
X00922000Y01228000D03*
X00924000Y01228000D03*
X00926000Y01228000D03*
X00928000Y01228000D03*
X00930000Y01228000D03*
X00932000Y01228000D03*
X00934000Y01228000D03*
X00936000Y01228000D03*
X00938000Y01228000D03*
X00940000Y01228000D03*
X00942000Y01228000D03*
X00944000Y01228000D03*
X00946000Y01228000D03*
X00948000Y01228000D03*
X00950000Y01228000D03*
X00952000Y01228000D03*
X00954000Y01228000D03*
X00956000Y01228000D03*
X00958000Y01228000D03*
X00960000Y01228000D03*
X00962000Y01228000D03*
X00964000Y01228000D03*
X00966000Y01228000D03*
X00968000Y01228000D03*
X00970000Y01228000D03*
X00972000Y01228000D03*
X00974000Y01228000D03*
X00976000Y01228000D03*
X00978000Y01228000D03*
X00978000Y01144000D03*
X00976000Y01144000D03*
X00974000Y01144000D03*
X00972000Y01144000D03*
X00970000Y01144000D03*
X00968000Y01144000D03*
X00966000Y01144000D03*
X00964000Y01144000D03*
X00962000Y01144000D03*
X00960000Y01144000D03*
X00958000Y01144000D03*
X00956000Y01144000D03*
X00954000Y01144000D03*
X00952000Y01144000D03*
X00950000Y01144000D03*
X00948000Y01144000D03*
X00946000Y01144000D03*
X00944000Y01144000D03*
X00942000Y01144000D03*
X00940000Y01144000D03*
X00938000Y01144000D03*
X00936000Y01144000D03*
X00934000Y01144000D03*
X00932000Y01144000D03*
X00930000Y01144000D03*
X00928000Y01144000D03*
X00926000Y01144000D03*
X00924000Y01144000D03*
X00922000Y01144000D03*
X00920000Y01144000D03*
X00918000Y01144000D03*
X00916000Y01144000D03*
X00914000Y01144000D03*
X00912000Y01144000D03*
X00910000Y01144000D03*
X00908000Y01144000D03*
X00906000Y01144000D03*
X00904000Y01144000D03*
X00902000Y01144000D03*
X00900000Y01144000D03*
X00898000Y01144000D03*
X00896000Y01144000D03*
X00894000Y01144000D03*
X00892000Y01144000D03*
X00890000Y01144000D03*
X00888000Y01144000D03*
X00886000Y01144000D03*
X00884000Y01144000D03*
X00882000Y01144000D03*
X00880000Y01144000D03*
X00878000Y01144000D03*
X00876000Y01144000D03*
X00874000Y01144000D03*
X00872000Y01144000D03*
X00870000Y01144000D03*
X00868000Y01144000D03*
X00866000Y01144000D03*
X00864000Y01144000D03*
X00862000Y01144000D03*
X00860000Y01144000D03*
X00858000Y01144000D03*
X00598000Y00960000D03*
X00510000Y00630000D03*
X00454000Y00900000D03*
X00444000Y00900000D03*
X00446000Y01010000D03*
X00448000Y01010000D03*
X00450000Y01010000D03*
X00452000Y01010000D03*
X00454000Y01010000D03*
X00456000Y01010000D03*
X00348000Y01004000D03*
X00376000Y01404000D03*
X00432000Y01514000D03*
X00434000Y01514000D03*
X00436000Y01514000D03*
X00438000Y01514000D03*
X00440000Y01514000D03*
X00442000Y01514000D03*
X00444000Y01514000D03*
X00446000Y01514000D03*
X00478000Y01600000D03*
X00510000Y01888000D03*
X00596000Y01558000D03*
D20*
X00826000Y01641000D03*
X00986000Y01645000D03*
X00986000Y00907000D03*
X00826000Y00903000D03*
X00342000Y00933000D03*
D21*
X00144000Y01329000D03*
X00352000Y01489000D03*
X00986000Y01307000D03*
X00986000Y01049000D03*
D22*
X00986000Y01145000D03*
X00986000Y01229000D03*
X00654000Y00795000D03*
X00620000Y00829000D03*
X00596000Y00869000D03*
X00616000Y00907000D03*
X00580000Y01013000D03*
X00616000Y01035000D03*
X00466000Y01009000D03*
X00464000Y00901000D03*
X00434000Y00901000D03*
X00406000Y01407000D03*
X00390000Y01445000D03*
X00350000Y01615000D03*
X00352000Y01617000D03*
X00380000Y01649000D03*
X00458000Y01601000D03*
X00460000Y01601000D03*
X00488000Y01601000D03*
X00578000Y01611000D03*
X00596000Y01651000D03*
X00616000Y01613000D03*
X00138000Y01329000D03*
D23*
X00346000Y00939000D03*
X00828000Y00903000D03*
X00984000Y00907000D03*
X00986000Y01453000D03*
X00984000Y01645000D03*
X00828000Y01643000D03*
X00824000Y01451000D03*
D24*
X00876000Y01593000D03*
X00824000Y01307000D03*
X00844000Y01145000D03*
X00984000Y01049000D03*
X00984000Y01307000D03*
X00594000Y01559000D03*
X00400000Y01425000D03*
X00344000Y01591000D03*
X00146000Y01329000D03*
X00146000Y01183000D03*
X00368000Y00843000D03*
X00418000Y00629000D03*
X00596000Y00961000D03*
D25*
X00598000Y00869000D03*
X00618000Y00829000D03*
X00652000Y00795000D03*
X00464000Y01009000D03*
X00440000Y01009000D03*
X00436000Y00901000D03*
X00460000Y00901000D03*
X00350000Y01011000D03*
X00378000Y01401000D03*
X00462000Y01601000D03*
X00486000Y01601000D03*
X00580000Y01605000D03*
X00598000Y01651000D03*
X00984000Y01229000D03*
X00984000Y01145000D03*
D26*
X00982000Y00907000D03*
X00908000Y00909000D03*
X00834000Y00905000D03*
X00832000Y00905000D03*
X00826000Y01451000D03*
X00832000Y01643000D03*
X00908000Y01647000D03*
X00982000Y01645000D03*
X00982000Y01451000D03*
X00984000Y01451000D03*
D27*
X00982000Y01307000D03*
X00980000Y01307000D03*
X00980000Y01049000D03*
X00982000Y01049000D03*
X00828000Y01307000D03*
X00872000Y01593000D03*
X00874000Y01593000D03*
X00420000Y01889000D03*
X00344000Y01523000D03*
X00148000Y01329000D03*
X00148000Y01183000D03*
X00370000Y00843000D03*
X00378000Y00843000D03*
X00420000Y00629000D03*
D28*
X00412000Y00629000D03*
X00438000Y00901000D03*
X00440000Y00901000D03*
X00442000Y00901000D03*
X00456000Y00901000D03*
X00458000Y00901000D03*
X00458000Y01009000D03*
X00460000Y01009000D03*
X00444000Y01009000D03*
X00600000Y00869000D03*
X00392000Y01441000D03*
X00356000Y01619000D03*
X00464000Y01601000D03*
X00466000Y01601000D03*
X00468000Y01601000D03*
X00480000Y01601000D03*
X00482000Y01601000D03*
X00600000Y01651000D03*
X00620000Y01601000D03*
X00980000Y01229000D03*
X00982000Y01229000D03*
X00982000Y01145000D03*
X00980000Y01145000D03*
X00140000Y01183000D03*
X00140000Y01329000D03*
D29*
X00828000Y01450000D03*
X00830000Y01450000D03*
X00832000Y01450000D03*
X00834000Y01450000D03*
X00836000Y01450000D03*
X00838000Y01450000D03*
X00840000Y01450000D03*
X00842000Y01450000D03*
X00838000Y01644000D03*
X00836000Y01644000D03*
X00834000Y01644000D03*
X00910000Y01646000D03*
X00912000Y01646000D03*
X00980000Y01646000D03*
X00980000Y01450000D03*
X00978000Y01450000D03*
X00976000Y01450000D03*
X00974000Y01450000D03*
X00972000Y01450000D03*
X00970000Y01450000D03*
X00968000Y01450000D03*
X00966000Y01450000D03*
X00980000Y00906000D03*
X00910000Y00908000D03*
X00842000Y00906000D03*
X00840000Y00906000D03*
X00838000Y00906000D03*
X00836000Y00906000D03*
D30*
X00912000Y00907000D03*
X00914000Y00907000D03*
X00916000Y00907000D03*
X00918000Y00907000D03*
X00920000Y00907000D03*
X00922000Y00907000D03*
X00924000Y00907000D03*
X00926000Y00907000D03*
X00966000Y00907000D03*
X00968000Y00907000D03*
X00970000Y00907000D03*
X00972000Y00907000D03*
X00974000Y00907000D03*
X00976000Y00907000D03*
X00978000Y00907000D03*
X00978000Y01645000D03*
X00976000Y01645000D03*
X00974000Y01645000D03*
X00972000Y01645000D03*
X00970000Y01645000D03*
X00968000Y01645000D03*
X00966000Y01645000D03*
X00926000Y01645000D03*
X00924000Y01645000D03*
X00922000Y01645000D03*
X00920000Y01645000D03*
X00918000Y01645000D03*
X00916000Y01645000D03*
X00914000Y01645000D03*
X00842000Y01645000D03*
X00840000Y01645000D03*
D31*
X00854000Y01592000D03*
X00856000Y01592000D03*
X00858000Y01592000D03*
X00860000Y01592000D03*
X00862000Y01592000D03*
X00864000Y01592000D03*
X00866000Y01592000D03*
X00868000Y01592000D03*
X00870000Y01592000D03*
X00870000Y01398000D03*
X00868000Y01398000D03*
X00866000Y01398000D03*
X00864000Y01398000D03*
X00862000Y01398000D03*
X00860000Y01398000D03*
X00858000Y01398000D03*
X00856000Y01398000D03*
X00854000Y01398000D03*
X00852000Y01398000D03*
X00872000Y01398000D03*
X00874000Y01398000D03*
X00876000Y01398000D03*
X00878000Y01398000D03*
X00880000Y01398000D03*
X00882000Y01398000D03*
X00884000Y01398000D03*
X00886000Y01398000D03*
X00888000Y01398000D03*
X00890000Y01398000D03*
X00892000Y01398000D03*
X00894000Y01398000D03*
X00896000Y01398000D03*
X00898000Y01398000D03*
X00900000Y01398000D03*
X00902000Y01398000D03*
X00904000Y01398000D03*
X00906000Y01398000D03*
X00908000Y01398000D03*
X00910000Y01398000D03*
X00912000Y01398000D03*
X00914000Y01398000D03*
X00916000Y01398000D03*
X00918000Y01398000D03*
X00920000Y01398000D03*
X00922000Y01398000D03*
X00924000Y01398000D03*
X00926000Y01398000D03*
X00928000Y01398000D03*
X00930000Y01398000D03*
X00932000Y01398000D03*
X00934000Y01398000D03*
X00936000Y01398000D03*
X00938000Y01398000D03*
X00940000Y01398000D03*
X00942000Y01398000D03*
X00944000Y01398000D03*
X00946000Y01398000D03*
X00948000Y01398000D03*
X00950000Y01398000D03*
X00952000Y01398000D03*
X00954000Y01398000D03*
X00956000Y01398000D03*
X00956000Y01308000D03*
X00954000Y01308000D03*
X00952000Y01308000D03*
X00950000Y01308000D03*
X00948000Y01308000D03*
X00946000Y01308000D03*
X00944000Y01308000D03*
X00942000Y01308000D03*
X00940000Y01308000D03*
X00938000Y01308000D03*
X00936000Y01308000D03*
X00934000Y01308000D03*
X00932000Y01308000D03*
X00930000Y01308000D03*
X00928000Y01308000D03*
X00926000Y01308000D03*
X00924000Y01308000D03*
X00922000Y01308000D03*
X00920000Y01308000D03*
X00918000Y01308000D03*
X00916000Y01308000D03*
X00914000Y01308000D03*
X00912000Y01308000D03*
X00910000Y01308000D03*
X00908000Y01308000D03*
X00906000Y01308000D03*
X00904000Y01308000D03*
X00902000Y01308000D03*
X00900000Y01308000D03*
X00898000Y01308000D03*
X00896000Y01308000D03*
X00894000Y01308000D03*
X00892000Y01308000D03*
X00890000Y01308000D03*
X00888000Y01308000D03*
X00886000Y01308000D03*
X00884000Y01308000D03*
X00882000Y01308000D03*
X00880000Y01308000D03*
X00878000Y01308000D03*
X00876000Y01308000D03*
X00874000Y01308000D03*
X00872000Y01308000D03*
X00870000Y01308000D03*
X00868000Y01308000D03*
X00866000Y01308000D03*
X00864000Y01308000D03*
X00862000Y01308000D03*
X00860000Y01308000D03*
X00858000Y01308000D03*
X00856000Y01308000D03*
X00854000Y01308000D03*
X00852000Y01308000D03*
X00850000Y01308000D03*
X00848000Y01308000D03*
X00846000Y01308000D03*
X00844000Y01308000D03*
X00842000Y01308000D03*
X00840000Y01308000D03*
X00838000Y01308000D03*
X00836000Y01308000D03*
X00834000Y01308000D03*
X00832000Y01308000D03*
X00830000Y01308000D03*
X00858000Y01048000D03*
X00860000Y01048000D03*
X00862000Y01048000D03*
X00864000Y01048000D03*
X00866000Y01048000D03*
X00868000Y01048000D03*
X00870000Y01048000D03*
X00872000Y01048000D03*
X00874000Y01048000D03*
X00876000Y01048000D03*
X00878000Y01048000D03*
X00880000Y01048000D03*
X00882000Y01048000D03*
X00884000Y01048000D03*
X00886000Y01048000D03*
X00888000Y01048000D03*
X00890000Y01048000D03*
X00892000Y01048000D03*
X00894000Y01048000D03*
X00896000Y01048000D03*
X00898000Y01048000D03*
X00900000Y01048000D03*
X00902000Y01048000D03*
X00904000Y01048000D03*
X00906000Y01048000D03*
X00908000Y01048000D03*
X00910000Y01048000D03*
X00912000Y01048000D03*
X00914000Y01048000D03*
X00916000Y01048000D03*
X00918000Y01048000D03*
X00920000Y01048000D03*
X00922000Y01048000D03*
X00924000Y01048000D03*
X00926000Y01048000D03*
X00928000Y01048000D03*
X00930000Y01048000D03*
X00932000Y01048000D03*
X00934000Y01048000D03*
X00936000Y01048000D03*
X00938000Y01048000D03*
X00940000Y01048000D03*
X00942000Y01048000D03*
X00944000Y01048000D03*
X00946000Y01048000D03*
X00948000Y01048000D03*
X00950000Y01048000D03*
X00952000Y01048000D03*
X00954000Y01048000D03*
X00956000Y01048000D03*
X00958000Y01048000D03*
X00960000Y01048000D03*
X00962000Y01048000D03*
X00964000Y01048000D03*
X00966000Y01048000D03*
X00968000Y01048000D03*
X00970000Y01048000D03*
X00972000Y01048000D03*
X00974000Y01048000D03*
X00976000Y01048000D03*
X00978000Y01048000D03*
X00956000Y00854000D03*
X00954000Y00854000D03*
X00952000Y00854000D03*
X00950000Y00854000D03*
X00948000Y00854000D03*
X00946000Y00854000D03*
X00944000Y00854000D03*
X00942000Y00854000D03*
X00940000Y00854000D03*
X00938000Y00854000D03*
X00936000Y00854000D03*
X00872000Y00854000D03*
X00870000Y00854000D03*
X00868000Y00854000D03*
X00866000Y00854000D03*
X00864000Y00854000D03*
X00862000Y00854000D03*
X00860000Y00854000D03*
X00858000Y00854000D03*
X00856000Y00854000D03*
X00854000Y00854000D03*
X00852000Y00854000D03*
X00958000Y01308000D03*
X00960000Y01308000D03*
X00962000Y01308000D03*
X00964000Y01308000D03*
X00966000Y01308000D03*
X00968000Y01308000D03*
X00970000Y01308000D03*
X00972000Y01308000D03*
X00974000Y01308000D03*
X00976000Y01308000D03*
X00978000Y01308000D03*
X00954000Y01592000D03*
X00952000Y01592000D03*
X00950000Y01592000D03*
X00948000Y01592000D03*
X00946000Y01592000D03*
X00944000Y01592000D03*
X00942000Y01592000D03*
X00940000Y01592000D03*
X00938000Y01592000D03*
D32*
X00928000Y01705000D03*
X00844000Y01705000D03*
X00636000Y01549000D03*
X00846000Y01145000D03*
X00844000Y00967000D03*
X00904000Y00967000D03*
X00928000Y00967000D03*
X00964000Y00967000D03*
X00636000Y00971000D03*
X00396000Y01433000D03*
X00346000Y01511000D03*
X00332000Y01561000D03*
D33*
X00150000Y01184000D03*
X00848000Y01050000D03*
X00846000Y00856000D03*
X00932000Y00856000D03*
X00962000Y00856000D03*
X00962000Y01400000D03*
X00960000Y01594000D03*
X00932000Y01594000D03*
X00848000Y01594000D03*
X00846000Y01400000D03*
D34*
X00848000Y01145000D03*
X00846000Y00969000D03*
X00902000Y00969000D03*
X00930000Y00969000D03*
X00962000Y00969000D03*
X00962000Y01707000D03*
X00930000Y01707000D03*
X00902000Y01707000D03*
X00846000Y01707000D03*
X00500000Y01901000D03*
X00374000Y01409000D03*
X00142000Y01329000D03*
X00142000Y01183000D03*
X00414000Y00629000D03*
D35*
X00830000Y00904000D03*
X00906000Y00910000D03*
X00830000Y01642000D03*
X00906000Y01648000D03*
D36*
X00878000Y01592000D03*
X00822000Y01308000D03*
X00878000Y00854000D03*
X00416000Y00628000D03*
X00144000Y01184000D03*
X00362000Y01450000D03*
X00364000Y01444000D03*
X00366000Y01436000D03*
X00368000Y01428000D03*
X00370000Y01420000D03*
X00372000Y01414000D03*
X00360000Y01460000D03*
X00358000Y01466000D03*
X00356000Y01474000D03*
X00354000Y01482000D03*
X00350000Y01496000D03*
X00348000Y01504000D03*
X00416000Y01890000D03*
D37*
X00418000Y01890000D03*
X00398000Y01428000D03*
X00876000Y00854000D03*
D38*
X00874000Y00854000D03*
X00826000Y01308000D03*
X00402000Y01424000D03*
X00380000Y00844000D03*
D39*
X00836000Y01132000D03*
X00838000Y01132000D03*
X00840000Y01132000D03*
X00842000Y01132000D03*
D40*
X00834000Y01131000D03*
X00832000Y01131000D03*
D41*
X00830000Y01131000D03*
D42*
X00828000Y01130000D03*
D43*
X00826000Y01129000D03*
D44*
X00824000Y00903000D03*
X00824000Y01641000D03*
D45*
X00824000Y01129000D03*
D46*
X00822000Y00901000D03*
D47*
X00822000Y01128000D03*
D48*
X00822000Y01450000D03*
D49*
X00822000Y01640000D03*
X00338000Y00928000D03*
D50*
X00790000Y01052000D03*
X00790000Y01468000D03*
D51*
X00788000Y01468000D03*
X00788000Y01052000D03*
D52*
X00786000Y01053000D03*
X00786000Y01469000D03*
D53*
X00784000Y01470000D03*
X00784000Y01052000D03*
D54*
X00782000Y01051000D03*
D55*
X00780000Y01050000D03*
X00782000Y01470000D03*
D56*
X00780000Y01471000D03*
X00778000Y01473000D03*
X00778000Y01049000D03*
D57*
X00776000Y00851000D03*
X00774000Y00849000D03*
X00772000Y00847000D03*
X00770000Y00845000D03*
X00768000Y00843000D03*
X00766000Y00841000D03*
X00764000Y00839000D03*
X00762000Y00837000D03*
X00760000Y00835000D03*
X00758000Y00833000D03*
X00756000Y00831000D03*
X00754000Y00829000D03*
X00752000Y00827000D03*
X00750000Y00825000D03*
X00732000Y00807000D03*
X00730000Y00805000D03*
X00728000Y00803000D03*
X00726000Y00801000D03*
X00724000Y00799000D03*
X00722000Y00797000D03*
X00720000Y00795000D03*
X00718000Y00793000D03*
X00716000Y00791000D03*
X00714000Y00789000D03*
X00712000Y00787000D03*
X00710000Y00785000D03*
X00708000Y00783000D03*
X00706000Y00781000D03*
X00704000Y00779000D03*
X00702000Y00777000D03*
X00696000Y00771000D03*
X00694000Y00769000D03*
X00688000Y00769000D03*
X00686000Y00771000D03*
X00684000Y00773000D03*
X00682000Y00775000D03*
X00680000Y00777000D03*
X00678000Y00779000D03*
X00676000Y00781000D03*
X00674000Y00783000D03*
X00672000Y00785000D03*
X00670000Y00787000D03*
X00668000Y00789000D03*
X00666000Y00791000D03*
X00664000Y00793000D03*
X00650000Y00807000D03*
X00648000Y00809000D03*
X00646000Y00811000D03*
X00644000Y00813000D03*
X00642000Y00815000D03*
X00640000Y00817000D03*
X00638000Y00819000D03*
X00636000Y00821000D03*
X00634000Y00823000D03*
X00632000Y00825000D03*
X00630000Y00827000D03*
X00628000Y00829000D03*
X00616000Y00841000D03*
X00614000Y00843000D03*
X00612000Y00845000D03*
X00610000Y00847000D03*
X00608000Y00849000D03*
X00606000Y00851000D03*
X00604000Y00853000D03*
X00602000Y00803000D03*
X00600000Y00801000D03*
X00620000Y00753000D03*
X00618000Y00751000D03*
X00616000Y00749000D03*
X00614000Y00747000D03*
X00612000Y00745000D03*
X00610000Y00743000D03*
X00608000Y00741000D03*
X00606000Y00739000D03*
X00604000Y00737000D03*
X00622000Y00755000D03*
X00624000Y00757000D03*
X00626000Y00759000D03*
X00572000Y00705000D03*
X00570000Y00703000D03*
X00568000Y00701000D03*
X00566000Y00699000D03*
X00564000Y00697000D03*
X00562000Y00695000D03*
X00560000Y00693000D03*
X00558000Y00691000D03*
X00556000Y00689000D03*
X00528000Y00661000D03*
X00526000Y00659000D03*
X00524000Y00657000D03*
X00522000Y00655000D03*
X00520000Y00653000D03*
X00518000Y00651000D03*
X00516000Y00649000D03*
X00474000Y00677000D03*
X00472000Y00675000D03*
X00432000Y00663000D03*
X00430000Y00595000D03*
X00432000Y00593000D03*
X00538000Y00855000D03*
X00540000Y00857000D03*
X00546000Y00861000D03*
X00548000Y00863000D03*
X00550000Y00865000D03*
X00552000Y00867000D03*
X00554000Y00869000D03*
X00554000Y01053000D03*
X00552000Y01055000D03*
X00550000Y01057000D03*
X00544000Y01061000D03*
X00542000Y01063000D03*
X00540000Y01065000D03*
X00574000Y01089000D03*
X00576000Y01087000D03*
X00578000Y01085000D03*
X00580000Y01083000D03*
X00582000Y01083000D03*
X00584000Y01081000D03*
X00568000Y01427000D03*
X00574000Y01431000D03*
X00576000Y01433000D03*
X00578000Y01435000D03*
X00580000Y01437000D03*
X00582000Y01439000D03*
X00584000Y01441000D03*
X00550000Y01465000D03*
X00548000Y01463000D03*
X00546000Y01461000D03*
X00544000Y01459000D03*
X00544000Y01657000D03*
X00542000Y01659000D03*
X00540000Y01661000D03*
X00522000Y01675000D03*
X00520000Y01675000D03*
X00562000Y01823000D03*
X00560000Y01825000D03*
X00558000Y01827000D03*
X00556000Y01829000D03*
X00554000Y01831000D03*
X00552000Y01833000D03*
X00550000Y01835000D03*
X00548000Y01837000D03*
X00546000Y01839000D03*
X00544000Y01841000D03*
X00542000Y01843000D03*
X00540000Y01845000D03*
X00538000Y01847000D03*
X00536000Y01849000D03*
X00534000Y01851000D03*
X00532000Y01853000D03*
X00530000Y01855000D03*
X00528000Y01857000D03*
X00526000Y01859000D03*
X00524000Y01861000D03*
X00522000Y01863000D03*
X00520000Y01865000D03*
X00518000Y01867000D03*
X00516000Y01869000D03*
X00514000Y01871000D03*
X00492000Y01923000D03*
X00490000Y01925000D03*
X00472000Y01843000D03*
X00474000Y01841000D03*
X00434000Y01853000D03*
X00432000Y01855000D03*
X00430000Y01857000D03*
X00430000Y01923000D03*
X00432000Y01925000D03*
X00390000Y01665000D03*
X00382000Y01659000D03*
X00386000Y01451000D03*
X00394000Y01067000D03*
X00388000Y01063000D03*
X00386000Y01061000D03*
X00384000Y01059000D03*
X00382000Y01057000D03*
X00380000Y01055000D03*
X00378000Y01053000D03*
X00224000Y01155000D03*
X00222000Y01153000D03*
X00220000Y01151000D03*
X00218000Y01149000D03*
X00226000Y01211000D03*
X00218000Y01217000D03*
X00216000Y01293000D03*
X00218000Y01295000D03*
X00220000Y01297000D03*
X00226000Y01301000D03*
X00228000Y01355000D03*
X00220000Y01361000D03*
X00218000Y01363000D03*
X00216000Y01365000D03*
X00160000Y01365000D03*
X00158000Y01363000D03*
X00158000Y01295000D03*
X00160000Y01219000D03*
X00158000Y01217000D03*
X00576000Y01809000D03*
X00574000Y01811000D03*
X00572000Y01813000D03*
X00570000Y01815000D03*
X00568000Y01817000D03*
X00566000Y01819000D03*
X00564000Y01821000D03*
X00578000Y01807000D03*
X00580000Y01805000D03*
X00582000Y01803000D03*
X00584000Y01801000D03*
X00586000Y01799000D03*
X00588000Y01797000D03*
X00590000Y01795000D03*
X00592000Y01793000D03*
X00594000Y01791000D03*
X00596000Y01789000D03*
X00598000Y01787000D03*
X00600000Y01785000D03*
X00602000Y01783000D03*
X00604000Y01781000D03*
X00606000Y01779000D03*
X00608000Y01777000D03*
X00610000Y01775000D03*
X00612000Y01773000D03*
X00614000Y01771000D03*
X00616000Y01769000D03*
X00618000Y01767000D03*
X00620000Y01765000D03*
X00622000Y01763000D03*
X00624000Y01761000D03*
X00626000Y01759000D03*
X00628000Y01757000D03*
X00630000Y01755000D03*
X00632000Y01753000D03*
X00634000Y01751000D03*
X00636000Y01749000D03*
X00638000Y01747000D03*
X00640000Y01745000D03*
X00642000Y01743000D03*
X00644000Y01741000D03*
X00646000Y01739000D03*
X00648000Y01737000D03*
X00688000Y01751000D03*
X00690000Y01753000D03*
X00692000Y01753000D03*
X00694000Y01751000D03*
X00638000Y01549000D03*
X00602000Y01665000D03*
D58*
X00568000Y01689000D03*
X00566000Y01689000D03*
X00564000Y01689000D03*
X00560000Y01687000D03*
X00558000Y01687000D03*
X00556000Y01687000D03*
X00552000Y01685000D03*
X00550000Y01685000D03*
X00544000Y01683000D03*
X00542000Y01683000D03*
X00538000Y01681000D03*
X00534000Y01711000D03*
X00532000Y01711000D03*
X00530000Y01711000D03*
X00526000Y01709000D03*
X00524000Y01709000D03*
X00522000Y01709000D03*
X00518000Y01707000D03*
X00516000Y01707000D03*
X00510000Y01705000D03*
X00508000Y01705000D03*
X00504000Y01703000D03*
X00502000Y01703000D03*
X00500000Y01703000D03*
X00496000Y01701000D03*
X00494000Y01701000D03*
X00492000Y01701000D03*
X00488000Y01699000D03*
X00486000Y01699000D03*
X00482000Y01697000D03*
X00480000Y01697000D03*
X00478000Y01697000D03*
X00474000Y01695000D03*
X00472000Y01695000D03*
X00470000Y01695000D03*
X00466000Y01693000D03*
X00464000Y01693000D03*
X00462000Y01693000D03*
X00458000Y01691000D03*
X00456000Y01691000D03*
X00452000Y01689000D03*
X00450000Y01689000D03*
X00448000Y01689000D03*
X00444000Y01687000D03*
X00442000Y01687000D03*
X00440000Y01687000D03*
X00436000Y01685000D03*
X00434000Y01685000D03*
X00432000Y01685000D03*
X00430000Y01683000D03*
X00428000Y01683000D03*
X00426000Y01683000D03*
X00424000Y01681000D03*
X00422000Y01681000D03*
X00420000Y01681000D03*
X00418000Y01679000D03*
X00416000Y01679000D03*
X00414000Y01679000D03*
X00412000Y01677000D03*
X00410000Y01677000D03*
X00408000Y01675000D03*
X00406000Y01675000D03*
X00404000Y01673000D03*
X00400000Y01671000D03*
X00396000Y01669000D03*
X00390000Y01633000D03*
X00394000Y01631000D03*
X00398000Y01629000D03*
X00404000Y01625000D03*
X00408000Y01623000D03*
X00414000Y01619000D03*
X00418000Y01617000D03*
X00422000Y01615000D03*
X00426000Y01613000D03*
X00408000Y01575000D03*
X00404000Y01577000D03*
X00400000Y01579000D03*
X00394000Y01583000D03*
X00390000Y01585000D03*
X00386000Y01587000D03*
X00380000Y01591000D03*
X00376000Y01593000D03*
X00372000Y01595000D03*
X00366000Y01599000D03*
X00362000Y01601000D03*
X00350000Y01565000D03*
X00354000Y01563000D03*
X00364000Y01557000D03*
X00368000Y01555000D03*
X00374000Y01551000D03*
X00378000Y01549000D03*
X00388000Y01543000D03*
X00392000Y01541000D03*
X00396000Y01539000D03*
X00406000Y01445000D03*
X00410000Y01443000D03*
X00414000Y01441000D03*
X00416000Y01441000D03*
X00418000Y01439000D03*
X00420000Y01439000D03*
X00422000Y01437000D03*
X00424000Y01437000D03*
X00426000Y01437000D03*
X00430000Y01435000D03*
X00432000Y01435000D03*
X00434000Y01435000D03*
X00438000Y01433000D03*
X00440000Y01433000D03*
X00442000Y01433000D03*
X00450000Y01431000D03*
X00452000Y01431000D03*
X00454000Y01431000D03*
X00456000Y01431000D03*
X00458000Y01431000D03*
X00468000Y01431000D03*
X00470000Y01431000D03*
X00472000Y01431000D03*
X00474000Y01431000D03*
X00476000Y01431000D03*
X00484000Y01433000D03*
X00486000Y01433000D03*
X00488000Y01433000D03*
X00494000Y01435000D03*
X00496000Y01435000D03*
X00500000Y01437000D03*
X00502000Y01437000D03*
X00504000Y01437000D03*
X00506000Y01439000D03*
X00508000Y01439000D03*
X00510000Y01439000D03*
X00512000Y01441000D03*
X00514000Y01441000D03*
X00518000Y01443000D03*
X00522000Y01445000D03*
X00526000Y01447000D03*
X00530000Y01449000D03*
X00548000Y01415000D03*
X00550000Y01415000D03*
X00552000Y01417000D03*
X00556000Y01419000D03*
X00546000Y01413000D03*
X00544000Y01413000D03*
X00542000Y01411000D03*
X00540000Y01411000D03*
X00536000Y01409000D03*
X00534000Y01409000D03*
X00532000Y01407000D03*
X00530000Y01407000D03*
X00528000Y01407000D03*
X00524000Y01405000D03*
X00522000Y01405000D03*
X00516000Y01403000D03*
X00514000Y01403000D03*
X00512000Y01403000D03*
X00506000Y01401000D03*
X00504000Y01401000D03*
X00502000Y01401000D03*
X00500000Y01401000D03*
X00468000Y01401000D03*
X00466000Y01401000D03*
X00464000Y01401000D03*
X00462000Y01401000D03*
X00454000Y01403000D03*
X00438000Y01353000D03*
X00436000Y01353000D03*
X00434000Y01353000D03*
X00432000Y01353000D03*
X00430000Y01353000D03*
X00428000Y01353000D03*
X00426000Y01353000D03*
X00424000Y01353000D03*
X00422000Y01353000D03*
X00420000Y01353000D03*
X00418000Y01353000D03*
X00416000Y01353000D03*
X00414000Y01353000D03*
X00412000Y01353000D03*
X00410000Y01353000D03*
X00408000Y01353000D03*
X00406000Y01353000D03*
X00404000Y01353000D03*
X00402000Y01353000D03*
X00400000Y01353000D03*
X00398000Y01353000D03*
X00396000Y01353000D03*
X00394000Y01353000D03*
X00392000Y01353000D03*
X00390000Y01353000D03*
X00388000Y01353000D03*
X00386000Y01353000D03*
X00384000Y01353000D03*
X00382000Y01353000D03*
X00380000Y01353000D03*
X00378000Y01353000D03*
X00376000Y01353000D03*
X00374000Y01353000D03*
X00372000Y01353000D03*
X00370000Y01353000D03*
X00368000Y01353000D03*
X00366000Y01353000D03*
X00364000Y01353000D03*
X00362000Y01353000D03*
X00360000Y01353000D03*
X00358000Y01353000D03*
X00356000Y01353000D03*
X00354000Y01353000D03*
X00352000Y01353000D03*
X00350000Y01353000D03*
X00348000Y01353000D03*
X00346000Y01353000D03*
X00344000Y01353000D03*
X00342000Y01353000D03*
X00340000Y01353000D03*
X00338000Y01353000D03*
X00336000Y01353000D03*
X00334000Y01353000D03*
X00332000Y01353000D03*
X00330000Y01353000D03*
X00328000Y01353000D03*
X00326000Y01353000D03*
X00324000Y01353000D03*
X00322000Y01353000D03*
X00320000Y01353000D03*
X00318000Y01353000D03*
X00316000Y01353000D03*
X00314000Y01353000D03*
X00312000Y01353000D03*
X00310000Y01353000D03*
X00308000Y01353000D03*
X00306000Y01353000D03*
X00304000Y01353000D03*
X00302000Y01353000D03*
X00300000Y01353000D03*
X00298000Y01353000D03*
X00296000Y01353000D03*
X00294000Y01353000D03*
X00292000Y01353000D03*
X00290000Y01353000D03*
X00288000Y01353000D03*
X00286000Y01353000D03*
X00284000Y01353000D03*
X00282000Y01353000D03*
X00280000Y01353000D03*
X00278000Y01353000D03*
X00276000Y01353000D03*
X00274000Y01353000D03*
X00272000Y01353000D03*
X00270000Y01353000D03*
X00268000Y01353000D03*
X00266000Y01353000D03*
X00264000Y01353000D03*
X00262000Y01353000D03*
X00260000Y01353000D03*
X00258000Y01353000D03*
X00256000Y01353000D03*
X00254000Y01353000D03*
X00252000Y01353000D03*
X00250000Y01353000D03*
X00248000Y01353000D03*
X00246000Y01353000D03*
X00244000Y01353000D03*
X00242000Y01353000D03*
X00240000Y01353000D03*
X00238000Y01353000D03*
X00236000Y01353000D03*
X00234000Y01353000D03*
X00232000Y01353000D03*
X00210000Y01369000D03*
X00208000Y01371000D03*
X00206000Y01371000D03*
X00204000Y01373000D03*
X00202000Y01373000D03*
X00200000Y01373000D03*
X00194000Y01375000D03*
X00192000Y01375000D03*
X00190000Y01375000D03*
X00188000Y01375000D03*
X00186000Y01375000D03*
X00184000Y01375000D03*
X00176000Y01373000D03*
X00174000Y01373000D03*
X00172000Y01371000D03*
X00170000Y01371000D03*
X00166000Y01369000D03*
X00136000Y01329000D03*
X00170000Y01287000D03*
X00172000Y01287000D03*
X00174000Y01285000D03*
X00176000Y01285000D03*
X00178000Y01285000D03*
X00198000Y01285000D03*
X00200000Y01285000D03*
X00202000Y01285000D03*
X00206000Y01287000D03*
X00210000Y01289000D03*
X00230000Y01303000D03*
X00204000Y01227000D03*
X00202000Y01227000D03*
X00206000Y01225000D03*
X00208000Y01225000D03*
X00196000Y01229000D03*
X00194000Y01229000D03*
X00192000Y01229000D03*
X00190000Y01229000D03*
X00188000Y01229000D03*
X00186000Y01229000D03*
X00184000Y01229000D03*
X00182000Y01229000D03*
X00180000Y01229000D03*
X00176000Y01227000D03*
X00174000Y01227000D03*
X00172000Y01227000D03*
X00170000Y01225000D03*
X00168000Y01225000D03*
X00166000Y01223000D03*
X00168000Y01143000D03*
X00170000Y01141000D03*
X00172000Y01141000D03*
X00176000Y01139000D03*
X00178000Y01139000D03*
X00180000Y01139000D03*
X00198000Y01139000D03*
X00200000Y01139000D03*
X00204000Y01141000D03*
X00206000Y01141000D03*
X00210000Y01143000D03*
X00230000Y01159000D03*
X00232000Y01159000D03*
X00234000Y01159000D03*
X00236000Y01159000D03*
X00238000Y01159000D03*
X00240000Y01159000D03*
X00242000Y01159000D03*
X00244000Y01159000D03*
X00246000Y01159000D03*
X00248000Y01159000D03*
X00250000Y01159000D03*
X00252000Y01159000D03*
X00254000Y01159000D03*
X00256000Y01159000D03*
X00258000Y01159000D03*
X00260000Y01159000D03*
X00262000Y01159000D03*
X00264000Y01159000D03*
X00266000Y01159000D03*
X00268000Y01159000D03*
X00270000Y01159000D03*
X00272000Y01159000D03*
X00274000Y01159000D03*
X00276000Y01159000D03*
X00278000Y01159000D03*
X00280000Y01159000D03*
X00282000Y01159000D03*
X00284000Y01159000D03*
X00286000Y01159000D03*
X00288000Y01159000D03*
X00290000Y01159000D03*
X00292000Y01159000D03*
X00294000Y01159000D03*
X00296000Y01159000D03*
X00298000Y01159000D03*
X00300000Y01159000D03*
X00302000Y01159000D03*
X00304000Y01159000D03*
X00306000Y01159000D03*
X00308000Y01159000D03*
X00310000Y01159000D03*
X00312000Y01159000D03*
X00314000Y01159000D03*
X00316000Y01159000D03*
X00318000Y01159000D03*
X00320000Y01159000D03*
X00322000Y01159000D03*
X00324000Y01159000D03*
X00326000Y01159000D03*
X00328000Y01159000D03*
X00330000Y01159000D03*
X00332000Y01159000D03*
X00334000Y01159000D03*
X00336000Y01159000D03*
X00338000Y01159000D03*
X00340000Y01159000D03*
X00342000Y01159000D03*
X00344000Y01159000D03*
X00346000Y01159000D03*
X00348000Y01159000D03*
X00350000Y01159000D03*
X00352000Y01159000D03*
X00354000Y01159000D03*
X00356000Y01159000D03*
X00358000Y01159000D03*
X00360000Y01159000D03*
X00362000Y01159000D03*
X00364000Y01159000D03*
X00366000Y01159000D03*
X00368000Y01159000D03*
X00370000Y01159000D03*
X00372000Y01159000D03*
X00374000Y01159000D03*
X00376000Y01159000D03*
X00378000Y01159000D03*
X00380000Y01159000D03*
X00382000Y01159000D03*
X00384000Y01159000D03*
X00386000Y01159000D03*
X00388000Y01159000D03*
X00390000Y01159000D03*
X00392000Y01159000D03*
X00394000Y01159000D03*
X00396000Y01159000D03*
X00398000Y01159000D03*
X00400000Y01159000D03*
X00402000Y01159000D03*
X00404000Y01159000D03*
X00406000Y01159000D03*
X00408000Y01159000D03*
X00410000Y01159000D03*
X00412000Y01159000D03*
X00414000Y01159000D03*
X00416000Y01159000D03*
X00418000Y01159000D03*
X00420000Y01159000D03*
X00422000Y01159000D03*
X00424000Y01159000D03*
X00426000Y01159000D03*
X00428000Y01159000D03*
X00430000Y01159000D03*
X00432000Y01159000D03*
X00434000Y01159000D03*
X00436000Y01159000D03*
X00438000Y01159000D03*
X00454000Y01119000D03*
X00458000Y01119000D03*
X00460000Y01119000D03*
X00462000Y01119000D03*
X00464000Y01119000D03*
X00480000Y01121000D03*
X00482000Y01121000D03*
X00484000Y01121000D03*
X00502000Y01119000D03*
X00504000Y01119000D03*
X00506000Y01119000D03*
X00514000Y01117000D03*
X00516000Y01117000D03*
X00518000Y01117000D03*
X00522000Y01115000D03*
X00524000Y01115000D03*
X00526000Y01115000D03*
X00528000Y01113000D03*
X00530000Y01113000D03*
X00532000Y01113000D03*
X00534000Y01111000D03*
X00536000Y01111000D03*
X00538000Y01111000D03*
X00540000Y01109000D03*
X00542000Y01109000D03*
X00546000Y01107000D03*
X00550000Y01105000D03*
X00556000Y01101000D03*
X00560000Y01099000D03*
X00528000Y01073000D03*
X00524000Y01075000D03*
X00520000Y01077000D03*
X00516000Y01079000D03*
X00512000Y01081000D03*
X00510000Y01081000D03*
X00508000Y01083000D03*
X00506000Y01083000D03*
X00504000Y01083000D03*
X00502000Y01085000D03*
X00500000Y01085000D03*
X00498000Y01085000D03*
X00494000Y01087000D03*
X00492000Y01087000D03*
X00490000Y01087000D03*
X00482000Y01089000D03*
X00480000Y01089000D03*
X00478000Y01089000D03*
X00476000Y01089000D03*
X00474000Y01089000D03*
X00458000Y01089000D03*
X00456000Y01089000D03*
X00454000Y01089000D03*
X00452000Y01089000D03*
X00450000Y01089000D03*
X00448000Y01089000D03*
X00442000Y01087000D03*
X00440000Y01087000D03*
X00438000Y01087000D03*
X00434000Y01085000D03*
X00432000Y01085000D03*
X00430000Y01085000D03*
X00426000Y01083000D03*
X00424000Y01083000D03*
X00420000Y01081000D03*
X00418000Y01081000D03*
X00416000Y01079000D03*
X00414000Y01079000D03*
X00410000Y01077000D03*
X00408000Y01075000D03*
X00406000Y01075000D03*
X00404000Y01073000D03*
X00400000Y01071000D03*
X00438000Y01207000D03*
X00454000Y01247000D03*
X00456000Y01247000D03*
X00458000Y01247000D03*
X00460000Y01247000D03*
X00462000Y01247000D03*
X00464000Y01247000D03*
X00466000Y01247000D03*
X00468000Y01247000D03*
X00470000Y01247000D03*
X00472000Y01247000D03*
X00474000Y01247000D03*
X00476000Y01247000D03*
X00478000Y01247000D03*
X00480000Y01247000D03*
X00482000Y01247000D03*
X00484000Y01247000D03*
X00486000Y01247000D03*
X00488000Y01247000D03*
X00490000Y01247000D03*
X00492000Y01247000D03*
X00494000Y01247000D03*
X00496000Y01247000D03*
X00498000Y01247000D03*
X00500000Y01247000D03*
X00502000Y01247000D03*
X00504000Y01247000D03*
X00506000Y01247000D03*
X00508000Y01247000D03*
X00510000Y01247000D03*
X00512000Y01247000D03*
X00514000Y01247000D03*
X00516000Y01247000D03*
X00518000Y01247000D03*
X00520000Y01247000D03*
X00522000Y01247000D03*
X00524000Y01247000D03*
X00526000Y01247000D03*
X00528000Y01247000D03*
X00530000Y01247000D03*
X00532000Y01247000D03*
X00534000Y01247000D03*
X00536000Y01247000D03*
X00538000Y01247000D03*
X00540000Y01247000D03*
X00542000Y01247000D03*
X00544000Y01247000D03*
X00546000Y01247000D03*
X00548000Y01247000D03*
X00550000Y01247000D03*
X00552000Y01247000D03*
X00554000Y01247000D03*
X00556000Y01247000D03*
X00558000Y01247000D03*
X00560000Y01247000D03*
X00562000Y01247000D03*
X00564000Y01247000D03*
X00566000Y01247000D03*
X00568000Y01247000D03*
X00570000Y01247000D03*
X00572000Y01247000D03*
X00574000Y01247000D03*
X00576000Y01247000D03*
X00578000Y01247000D03*
X00580000Y01247000D03*
X00582000Y01247000D03*
X00584000Y01247000D03*
X00586000Y01247000D03*
X00588000Y01247000D03*
X00590000Y01247000D03*
X00592000Y01247000D03*
X00594000Y01247000D03*
X00596000Y01247000D03*
X00598000Y01247000D03*
X00600000Y01247000D03*
X00602000Y01247000D03*
X00604000Y01247000D03*
X00606000Y01247000D03*
X00608000Y01247000D03*
X00610000Y01247000D03*
X00612000Y01247000D03*
X00614000Y01247000D03*
X00616000Y01247000D03*
X00618000Y01247000D03*
X00620000Y01247000D03*
X00622000Y01247000D03*
X00624000Y01247000D03*
X00626000Y01247000D03*
X00628000Y01247000D03*
X00630000Y01247000D03*
X00632000Y01247000D03*
X00634000Y01247000D03*
X00636000Y01247000D03*
X00638000Y01247000D03*
X00640000Y01247000D03*
X00642000Y01247000D03*
X00644000Y01247000D03*
X00646000Y01247000D03*
X00648000Y01247000D03*
X00650000Y01247000D03*
X00652000Y01247000D03*
X00654000Y01247000D03*
X00656000Y01247000D03*
X00658000Y01247000D03*
X00660000Y01247000D03*
X00662000Y01247000D03*
X00664000Y01247000D03*
X00666000Y01247000D03*
X00668000Y01247000D03*
X00670000Y01247000D03*
X00672000Y01247000D03*
X00674000Y01247000D03*
X00676000Y01247000D03*
X00678000Y01247000D03*
X00680000Y01247000D03*
X00682000Y01247000D03*
X00684000Y01247000D03*
X00686000Y01247000D03*
X00688000Y01247000D03*
X00690000Y01247000D03*
X00692000Y01247000D03*
X00694000Y01247000D03*
X00696000Y01247000D03*
X00698000Y01247000D03*
X00700000Y01247000D03*
X00702000Y01247000D03*
X00704000Y01247000D03*
X00706000Y01247000D03*
X00708000Y01247000D03*
X00710000Y01247000D03*
X00712000Y01247000D03*
X00714000Y01247000D03*
X00716000Y01247000D03*
X00718000Y01247000D03*
X00720000Y01247000D03*
X00722000Y01247000D03*
X00724000Y01247000D03*
X00726000Y01247000D03*
X00728000Y01247000D03*
X00730000Y01247000D03*
X00732000Y01247000D03*
X00734000Y01247000D03*
X00736000Y01247000D03*
X00738000Y01247000D03*
X00740000Y01247000D03*
X00742000Y01247000D03*
X00744000Y01247000D03*
X00746000Y01247000D03*
X00748000Y01247000D03*
X00750000Y01247000D03*
X00752000Y01247000D03*
X00754000Y01247000D03*
X00756000Y01247000D03*
X00758000Y01247000D03*
X00760000Y01247000D03*
X00762000Y01247000D03*
X00764000Y01247000D03*
X00766000Y01247000D03*
X00768000Y01247000D03*
X00770000Y01247000D03*
X00772000Y01247000D03*
X00774000Y01247000D03*
X00776000Y01247000D03*
X00562000Y01719000D03*
X00560000Y01719000D03*
X00556000Y01717000D03*
X00554000Y01717000D03*
X00552000Y01717000D03*
X00548000Y01715000D03*
X00546000Y01715000D03*
X00540000Y01713000D03*
X00538000Y01713000D03*
X00516000Y01675000D03*
X00496000Y01601000D03*
X00452000Y01601000D03*
X00452000Y01845000D03*
X00450000Y01845000D03*
X00448000Y01845000D03*
X00446000Y01847000D03*
X00444000Y01847000D03*
X00440000Y01849000D03*
X00438000Y01929000D03*
X00442000Y01931000D03*
X00444000Y01933000D03*
X00446000Y01933000D03*
X00448000Y01933000D03*
X00452000Y01935000D03*
X00454000Y01935000D03*
X00456000Y01935000D03*
X00458000Y01935000D03*
X00460000Y01935000D03*
X00462000Y01935000D03*
X00464000Y01935000D03*
X00466000Y01935000D03*
X00468000Y01935000D03*
X00470000Y01935000D03*
X00474000Y01933000D03*
X00476000Y01933000D03*
X00478000Y01933000D03*
X00480000Y01931000D03*
X00484000Y01929000D03*
X00230000Y01209000D03*
X00398000Y00851000D03*
X00402000Y00849000D03*
X00406000Y00847000D03*
X00410000Y00845000D03*
X00412000Y00843000D03*
X00414000Y00843000D03*
X00416000Y00841000D03*
X00418000Y00841000D03*
X00422000Y00839000D03*
X00424000Y00839000D03*
X00428000Y00837000D03*
X00430000Y00837000D03*
X00436000Y00835000D03*
X00438000Y00835000D03*
X00446000Y00833000D03*
X00448000Y00833000D03*
X00450000Y00833000D03*
X00452000Y00833000D03*
X00480000Y00833000D03*
X00482000Y00833000D03*
X00484000Y00833000D03*
X00486000Y00833000D03*
X00492000Y00835000D03*
X00494000Y00835000D03*
X00496000Y00835000D03*
X00502000Y00837000D03*
X00504000Y00837000D03*
X00508000Y00839000D03*
X00510000Y00839000D03*
X00512000Y00841000D03*
X00514000Y00841000D03*
X00516000Y00843000D03*
X00518000Y00843000D03*
X00522000Y00845000D03*
X00526000Y00847000D03*
X00532000Y00851000D03*
X00474000Y01009000D03*
X00426000Y00901000D03*
X00446000Y00673000D03*
X00448000Y00673000D03*
X00450000Y00673000D03*
X00444000Y00671000D03*
X00442000Y00671000D03*
X00440000Y00669000D03*
X00438000Y00589000D03*
X00442000Y00587000D03*
X00444000Y00587000D03*
X00446000Y00585000D03*
X00448000Y00585000D03*
X00454000Y00583000D03*
X00456000Y00583000D03*
X00458000Y00583000D03*
X00460000Y00583000D03*
X00462000Y00583000D03*
X00464000Y00583000D03*
X00466000Y00583000D03*
X00468000Y00583000D03*
X00472000Y00585000D03*
X00474000Y00585000D03*
X00476000Y00585000D03*
X00478000Y00587000D03*
X00480000Y00587000D03*
D59*
X00470000Y00584000D03*
X00452000Y00584000D03*
X00450000Y00584000D03*
X00452000Y00674000D03*
X00454000Y00674000D03*
X00456000Y00674000D03*
X00458000Y00674000D03*
X00460000Y00674000D03*
X00462000Y00674000D03*
X00464000Y00674000D03*
X00466000Y00674000D03*
X00468000Y00674000D03*
X00468000Y00832000D03*
X00466000Y00832000D03*
X00464000Y00832000D03*
X00462000Y00832000D03*
X00460000Y00832000D03*
X00458000Y00832000D03*
X00456000Y00832000D03*
X00454000Y00832000D03*
X00444000Y00834000D03*
X00442000Y00834000D03*
X00440000Y00834000D03*
X00434000Y00836000D03*
X00432000Y00836000D03*
X00426000Y00838000D03*
X00470000Y00832000D03*
X00472000Y00832000D03*
X00474000Y00832000D03*
X00476000Y00832000D03*
X00478000Y00832000D03*
X00488000Y00834000D03*
X00490000Y00834000D03*
X00498000Y00836000D03*
X00500000Y00836000D03*
X00506000Y00838000D03*
X00586000Y00868000D03*
X00496000Y01086000D03*
X00488000Y01088000D03*
X00486000Y01088000D03*
X00484000Y01088000D03*
X00472000Y01090000D03*
X00470000Y01090000D03*
X00468000Y01090000D03*
X00466000Y01090000D03*
X00464000Y01090000D03*
X00462000Y01090000D03*
X00460000Y01090000D03*
X00446000Y01088000D03*
X00444000Y01088000D03*
X00436000Y01086000D03*
X00428000Y01084000D03*
X00422000Y01082000D03*
X00456000Y01118000D03*
X00466000Y01120000D03*
X00468000Y01120000D03*
X00470000Y01120000D03*
X00472000Y01120000D03*
X00474000Y01120000D03*
X00476000Y01120000D03*
X00478000Y01120000D03*
X00486000Y01120000D03*
X00488000Y01120000D03*
X00490000Y01120000D03*
X00492000Y01120000D03*
X00494000Y01120000D03*
X00496000Y01120000D03*
X00498000Y01120000D03*
X00500000Y01120000D03*
X00508000Y01118000D03*
X00510000Y01118000D03*
X00512000Y01118000D03*
X00520000Y01116000D03*
X00520000Y01274000D03*
X00518000Y01274000D03*
X00516000Y01274000D03*
X00514000Y01274000D03*
X00512000Y01274000D03*
X00510000Y01274000D03*
X00508000Y01274000D03*
X00506000Y01274000D03*
X00504000Y01274000D03*
X00502000Y01274000D03*
X00500000Y01274000D03*
X00498000Y01274000D03*
X00496000Y01274000D03*
X00494000Y01274000D03*
X00492000Y01274000D03*
X00490000Y01274000D03*
X00488000Y01274000D03*
X00486000Y01274000D03*
X00484000Y01274000D03*
X00482000Y01274000D03*
X00480000Y01274000D03*
X00478000Y01274000D03*
X00476000Y01274000D03*
X00474000Y01274000D03*
X00472000Y01274000D03*
X00470000Y01274000D03*
X00468000Y01274000D03*
X00466000Y01274000D03*
X00464000Y01274000D03*
X00462000Y01274000D03*
X00460000Y01274000D03*
X00458000Y01274000D03*
X00456000Y01274000D03*
X00454000Y01274000D03*
X00438000Y01304000D03*
X00436000Y01304000D03*
X00434000Y01304000D03*
X00432000Y01304000D03*
X00430000Y01304000D03*
X00428000Y01304000D03*
X00426000Y01304000D03*
X00424000Y01304000D03*
X00422000Y01304000D03*
X00420000Y01304000D03*
X00418000Y01304000D03*
X00416000Y01304000D03*
X00414000Y01304000D03*
X00412000Y01304000D03*
X00410000Y01304000D03*
X00408000Y01304000D03*
X00406000Y01304000D03*
X00404000Y01304000D03*
X00402000Y01304000D03*
X00400000Y01304000D03*
X00398000Y01304000D03*
X00396000Y01304000D03*
X00394000Y01304000D03*
X00392000Y01304000D03*
X00390000Y01304000D03*
X00388000Y01304000D03*
X00386000Y01304000D03*
X00384000Y01304000D03*
X00382000Y01304000D03*
X00380000Y01304000D03*
X00378000Y01304000D03*
X00376000Y01304000D03*
X00374000Y01304000D03*
X00372000Y01304000D03*
X00370000Y01304000D03*
X00368000Y01304000D03*
X00366000Y01304000D03*
X00364000Y01304000D03*
X00362000Y01304000D03*
X00360000Y01304000D03*
X00358000Y01304000D03*
X00356000Y01304000D03*
X00354000Y01304000D03*
X00352000Y01304000D03*
X00350000Y01304000D03*
X00348000Y01304000D03*
X00346000Y01304000D03*
X00344000Y01304000D03*
X00342000Y01304000D03*
X00340000Y01304000D03*
X00338000Y01304000D03*
X00336000Y01304000D03*
X00334000Y01304000D03*
X00332000Y01304000D03*
X00330000Y01304000D03*
X00328000Y01304000D03*
X00326000Y01304000D03*
X00324000Y01304000D03*
X00322000Y01304000D03*
X00320000Y01304000D03*
X00318000Y01304000D03*
X00316000Y01304000D03*
X00314000Y01304000D03*
X00312000Y01304000D03*
X00310000Y01304000D03*
X00308000Y01304000D03*
X00306000Y01304000D03*
X00304000Y01304000D03*
X00302000Y01304000D03*
X00300000Y01304000D03*
X00298000Y01304000D03*
X00296000Y01304000D03*
X00294000Y01304000D03*
X00292000Y01304000D03*
X00290000Y01304000D03*
X00288000Y01304000D03*
X00286000Y01304000D03*
X00284000Y01304000D03*
X00282000Y01304000D03*
X00280000Y01304000D03*
X00278000Y01304000D03*
X00276000Y01304000D03*
X00274000Y01304000D03*
X00272000Y01304000D03*
X00270000Y01304000D03*
X00268000Y01304000D03*
X00266000Y01304000D03*
X00264000Y01304000D03*
X00262000Y01304000D03*
X00260000Y01304000D03*
X00258000Y01304000D03*
X00256000Y01304000D03*
X00254000Y01304000D03*
X00252000Y01304000D03*
X00250000Y01304000D03*
X00248000Y01304000D03*
X00246000Y01304000D03*
X00244000Y01304000D03*
X00242000Y01304000D03*
X00240000Y01304000D03*
X00238000Y01304000D03*
X00236000Y01304000D03*
X00234000Y01304000D03*
X00232000Y01304000D03*
X00204000Y01286000D03*
X00196000Y01284000D03*
X00194000Y01284000D03*
X00192000Y01284000D03*
X00190000Y01284000D03*
X00188000Y01284000D03*
X00186000Y01284000D03*
X00184000Y01284000D03*
X00182000Y01284000D03*
X00180000Y01284000D03*
X00178000Y01228000D03*
X00198000Y01228000D03*
X00200000Y01228000D03*
X00232000Y01208000D03*
X00234000Y01208000D03*
X00236000Y01208000D03*
X00238000Y01208000D03*
X00240000Y01208000D03*
X00242000Y01208000D03*
X00244000Y01208000D03*
X00246000Y01208000D03*
X00248000Y01208000D03*
X00250000Y01208000D03*
X00252000Y01208000D03*
X00254000Y01208000D03*
X00256000Y01208000D03*
X00258000Y01208000D03*
X00260000Y01208000D03*
X00262000Y01208000D03*
X00264000Y01208000D03*
X00266000Y01208000D03*
X00268000Y01208000D03*
X00270000Y01208000D03*
X00272000Y01208000D03*
X00274000Y01208000D03*
X00276000Y01208000D03*
X00278000Y01208000D03*
X00280000Y01208000D03*
X00282000Y01208000D03*
X00284000Y01208000D03*
X00286000Y01208000D03*
X00288000Y01208000D03*
X00290000Y01208000D03*
X00292000Y01208000D03*
X00294000Y01208000D03*
X00296000Y01208000D03*
X00298000Y01208000D03*
X00300000Y01208000D03*
X00302000Y01208000D03*
X00304000Y01208000D03*
X00306000Y01208000D03*
X00308000Y01208000D03*
X00310000Y01208000D03*
X00312000Y01208000D03*
X00314000Y01208000D03*
X00316000Y01208000D03*
X00318000Y01208000D03*
X00320000Y01208000D03*
X00322000Y01208000D03*
X00324000Y01208000D03*
X00326000Y01208000D03*
X00328000Y01208000D03*
X00330000Y01208000D03*
X00332000Y01208000D03*
X00334000Y01208000D03*
X00336000Y01208000D03*
X00338000Y01208000D03*
X00340000Y01208000D03*
X00342000Y01208000D03*
X00344000Y01208000D03*
X00346000Y01208000D03*
X00348000Y01208000D03*
X00350000Y01208000D03*
X00352000Y01208000D03*
X00354000Y01208000D03*
X00356000Y01208000D03*
X00358000Y01208000D03*
X00360000Y01208000D03*
X00362000Y01208000D03*
X00364000Y01208000D03*
X00366000Y01208000D03*
X00368000Y01208000D03*
X00370000Y01208000D03*
X00372000Y01208000D03*
X00374000Y01208000D03*
X00376000Y01208000D03*
X00378000Y01208000D03*
X00380000Y01208000D03*
X00382000Y01208000D03*
X00384000Y01208000D03*
X00386000Y01208000D03*
X00388000Y01208000D03*
X00390000Y01208000D03*
X00392000Y01208000D03*
X00394000Y01208000D03*
X00396000Y01208000D03*
X00398000Y01208000D03*
X00400000Y01208000D03*
X00402000Y01208000D03*
X00404000Y01208000D03*
X00406000Y01208000D03*
X00408000Y01208000D03*
X00410000Y01208000D03*
X00412000Y01208000D03*
X00414000Y01208000D03*
X00416000Y01208000D03*
X00418000Y01208000D03*
X00420000Y01208000D03*
X00422000Y01208000D03*
X00424000Y01208000D03*
X00426000Y01208000D03*
X00428000Y01208000D03*
X00430000Y01208000D03*
X00432000Y01208000D03*
X00434000Y01208000D03*
X00436000Y01208000D03*
X00384000Y01390000D03*
X00428000Y01436000D03*
X00436000Y01434000D03*
X00444000Y01432000D03*
X00446000Y01432000D03*
X00448000Y01432000D03*
X00460000Y01430000D03*
X00462000Y01430000D03*
X00464000Y01430000D03*
X00466000Y01430000D03*
X00478000Y01432000D03*
X00480000Y01432000D03*
X00482000Y01432000D03*
X00490000Y01434000D03*
X00492000Y01434000D03*
X00498000Y01436000D03*
X00508000Y01402000D03*
X00510000Y01402000D03*
X00518000Y01404000D03*
X00520000Y01404000D03*
X00526000Y01406000D03*
X00498000Y01400000D03*
X00496000Y01400000D03*
X00494000Y01400000D03*
X00492000Y01400000D03*
X00490000Y01400000D03*
X00488000Y01400000D03*
X00486000Y01400000D03*
X00484000Y01400000D03*
X00482000Y01400000D03*
X00480000Y01400000D03*
X00478000Y01400000D03*
X00476000Y01400000D03*
X00474000Y01400000D03*
X00472000Y01400000D03*
X00470000Y01400000D03*
X00460000Y01402000D03*
X00458000Y01402000D03*
X00456000Y01402000D03*
X00410000Y01574000D03*
X00438000Y01686000D03*
X00446000Y01688000D03*
X00454000Y01690000D03*
X00460000Y01692000D03*
X00468000Y01694000D03*
X00476000Y01696000D03*
X00484000Y01698000D03*
X00490000Y01700000D03*
X00498000Y01702000D03*
X00506000Y01704000D03*
X00512000Y01706000D03*
X00514000Y01706000D03*
X00520000Y01708000D03*
X00528000Y01710000D03*
X00536000Y01712000D03*
X00542000Y01714000D03*
X00544000Y01714000D03*
X00550000Y01716000D03*
X00558000Y01718000D03*
X00562000Y01688000D03*
X00554000Y01686000D03*
X00548000Y01684000D03*
X00546000Y01684000D03*
X00540000Y01682000D03*
X00514000Y01676000D03*
X00512000Y01676000D03*
X00570000Y01690000D03*
X00572000Y01690000D03*
X00468000Y01844000D03*
X00466000Y01844000D03*
X00464000Y01844000D03*
X00462000Y01844000D03*
X00460000Y01844000D03*
X00458000Y01844000D03*
X00456000Y01844000D03*
X00454000Y01844000D03*
X00450000Y01934000D03*
X00472000Y01934000D03*
X00522000Y01274000D03*
X00524000Y01274000D03*
X00526000Y01274000D03*
X00528000Y01274000D03*
X00530000Y01274000D03*
X00532000Y01274000D03*
X00534000Y01274000D03*
X00536000Y01274000D03*
X00538000Y01274000D03*
X00540000Y01274000D03*
X00542000Y01274000D03*
X00544000Y01274000D03*
X00546000Y01274000D03*
X00548000Y01274000D03*
X00550000Y01274000D03*
X00552000Y01274000D03*
X00554000Y01274000D03*
X00556000Y01274000D03*
X00558000Y01274000D03*
X00560000Y01274000D03*
X00562000Y01274000D03*
X00564000Y01274000D03*
X00566000Y01274000D03*
X00568000Y01274000D03*
X00570000Y01274000D03*
X00572000Y01274000D03*
X00574000Y01274000D03*
X00576000Y01274000D03*
X00578000Y01274000D03*
X00580000Y01274000D03*
X00582000Y01274000D03*
X00584000Y01274000D03*
X00586000Y01274000D03*
X00588000Y01274000D03*
X00590000Y01274000D03*
X00592000Y01274000D03*
X00594000Y01274000D03*
X00596000Y01274000D03*
X00598000Y01274000D03*
X00600000Y01274000D03*
X00602000Y01274000D03*
X00604000Y01274000D03*
X00606000Y01274000D03*
X00608000Y01274000D03*
X00610000Y01274000D03*
X00612000Y01274000D03*
X00614000Y01274000D03*
X00616000Y01274000D03*
X00618000Y01274000D03*
X00620000Y01274000D03*
X00622000Y01274000D03*
X00624000Y01274000D03*
X00626000Y01274000D03*
X00628000Y01274000D03*
X00630000Y01274000D03*
X00632000Y01274000D03*
X00634000Y01274000D03*
X00636000Y01274000D03*
X00638000Y01274000D03*
X00640000Y01274000D03*
X00642000Y01274000D03*
X00644000Y01274000D03*
X00646000Y01274000D03*
X00648000Y01274000D03*
X00650000Y01274000D03*
X00652000Y01274000D03*
X00654000Y01274000D03*
X00656000Y01274000D03*
X00658000Y01274000D03*
X00660000Y01274000D03*
X00662000Y01274000D03*
X00664000Y01274000D03*
X00666000Y01274000D03*
X00668000Y01274000D03*
X00670000Y01274000D03*
X00672000Y01274000D03*
X00674000Y01274000D03*
X00676000Y01274000D03*
X00678000Y01274000D03*
X00680000Y01274000D03*
X00682000Y01274000D03*
X00684000Y01274000D03*
X00686000Y01274000D03*
X00688000Y01274000D03*
X00690000Y01274000D03*
X00692000Y01274000D03*
X00694000Y01274000D03*
X00696000Y01274000D03*
X00698000Y01274000D03*
X00700000Y01274000D03*
X00702000Y01274000D03*
X00704000Y01274000D03*
X00706000Y01274000D03*
X00708000Y01274000D03*
X00710000Y01274000D03*
X00712000Y01274000D03*
X00714000Y01274000D03*
X00716000Y01274000D03*
X00718000Y01274000D03*
X00720000Y01274000D03*
X00722000Y01274000D03*
X00724000Y01274000D03*
X00726000Y01274000D03*
X00728000Y01274000D03*
X00730000Y01274000D03*
X00732000Y01274000D03*
X00734000Y01274000D03*
X00736000Y01274000D03*
X00738000Y01274000D03*
X00740000Y01274000D03*
X00742000Y01274000D03*
X00744000Y01274000D03*
X00746000Y01274000D03*
X00748000Y01274000D03*
X00750000Y01274000D03*
X00752000Y01274000D03*
X00754000Y01274000D03*
X00756000Y01274000D03*
X00758000Y01274000D03*
X00760000Y01274000D03*
X00762000Y01274000D03*
X00764000Y01274000D03*
X00766000Y01274000D03*
X00768000Y01274000D03*
X00770000Y01274000D03*
X00772000Y01274000D03*
X00774000Y01274000D03*
X00776000Y01274000D03*
X00198000Y01374000D03*
X00196000Y01374000D03*
X00182000Y01374000D03*
X00180000Y01374000D03*
X00178000Y01374000D03*
X00174000Y01140000D03*
X00182000Y01138000D03*
X00184000Y01138000D03*
X00186000Y01138000D03*
X00188000Y01138000D03*
X00190000Y01138000D03*
X00192000Y01138000D03*
X00194000Y01138000D03*
X00196000Y01138000D03*
X00202000Y01140000D03*
D60*
X00226000Y01156000D03*
X00224000Y01212000D03*
X00222000Y01214000D03*
X00220000Y01216000D03*
X00222000Y01298000D03*
X00224000Y01300000D03*
X00226000Y01356000D03*
X00224000Y01358000D03*
X00222000Y01360000D03*
X00156000Y01360000D03*
X00156000Y01298000D03*
X00156000Y01214000D03*
X00156000Y01152000D03*
X00158000Y01150000D03*
X00372000Y01048000D03*
X00374000Y01050000D03*
X00376000Y01052000D03*
X00504000Y00706000D03*
X00502000Y00704000D03*
X00500000Y00702000D03*
X00498000Y00700000D03*
X00496000Y00698000D03*
X00494000Y00696000D03*
X00492000Y00694000D03*
X00490000Y00692000D03*
X00488000Y00690000D03*
X00486000Y00688000D03*
X00484000Y00686000D03*
X00482000Y00684000D03*
X00480000Y00682000D03*
X00478000Y00680000D03*
X00476000Y00678000D03*
X00494000Y00598000D03*
X00492000Y00596000D03*
X00514000Y00646000D03*
X00530000Y00662000D03*
X00532000Y00664000D03*
X00534000Y00666000D03*
X00536000Y00668000D03*
X00538000Y00670000D03*
X00540000Y00672000D03*
X00542000Y00674000D03*
X00544000Y00676000D03*
X00546000Y00678000D03*
X00548000Y00680000D03*
X00550000Y00682000D03*
X00552000Y00684000D03*
X00554000Y00686000D03*
X00574000Y00706000D03*
X00576000Y00708000D03*
X00578000Y00710000D03*
X00580000Y00712000D03*
X00582000Y00714000D03*
X00584000Y00716000D03*
X00586000Y00718000D03*
X00588000Y00720000D03*
X00590000Y00722000D03*
X00592000Y00724000D03*
X00594000Y00726000D03*
X00596000Y00728000D03*
X00598000Y00730000D03*
X00600000Y00732000D03*
X00602000Y00734000D03*
X00578000Y00780000D03*
X00580000Y00782000D03*
X00582000Y00784000D03*
X00584000Y00786000D03*
X00586000Y00788000D03*
X00588000Y00790000D03*
X00590000Y00792000D03*
X00592000Y00794000D03*
X00594000Y00796000D03*
X00596000Y00798000D03*
X00598000Y00800000D03*
X00604000Y00806000D03*
X00606000Y00808000D03*
X00608000Y00810000D03*
X00610000Y00812000D03*
X00612000Y00814000D03*
X00614000Y00816000D03*
X00616000Y00818000D03*
X00602000Y00856000D03*
X00590000Y00868000D03*
X00562000Y00878000D03*
X00560000Y00876000D03*
X00558000Y00874000D03*
X00556000Y00872000D03*
X00576000Y00778000D03*
X00574000Y00776000D03*
X00572000Y00774000D03*
X00570000Y00772000D03*
X00568000Y00770000D03*
X00566000Y00768000D03*
X00564000Y00766000D03*
X00562000Y00764000D03*
X00560000Y00762000D03*
X00558000Y00760000D03*
X00556000Y00758000D03*
X00554000Y00756000D03*
X00552000Y00754000D03*
X00550000Y00752000D03*
X00548000Y00750000D03*
X00546000Y00748000D03*
X00544000Y00746000D03*
X00542000Y00744000D03*
X00540000Y00742000D03*
X00538000Y00740000D03*
X00536000Y00738000D03*
X00534000Y00736000D03*
X00532000Y00734000D03*
X00530000Y00732000D03*
X00528000Y00730000D03*
X00526000Y00728000D03*
X00524000Y00726000D03*
X00522000Y00724000D03*
X00520000Y00722000D03*
X00518000Y00720000D03*
X00516000Y00718000D03*
X00514000Y00716000D03*
X00512000Y00714000D03*
X00510000Y00712000D03*
X00508000Y00710000D03*
X00506000Y00708000D03*
X00430000Y00662000D03*
X00428000Y00660000D03*
X00428000Y00598000D03*
X00560000Y01046000D03*
X00558000Y01048000D03*
X00556000Y01050000D03*
X00586000Y01078000D03*
X00588000Y01076000D03*
X00590000Y01074000D03*
X00592000Y01072000D03*
X00594000Y01070000D03*
X00662000Y00794000D03*
X00650000Y00782000D03*
X00648000Y00780000D03*
X00646000Y00778000D03*
X00644000Y00776000D03*
X00642000Y00774000D03*
X00640000Y00772000D03*
X00638000Y00770000D03*
X00636000Y00768000D03*
X00634000Y00766000D03*
X00632000Y00764000D03*
X00630000Y00762000D03*
X00628000Y00760000D03*
X00698000Y00772000D03*
X00700000Y00774000D03*
X00734000Y00808000D03*
X00736000Y00810000D03*
X00738000Y00812000D03*
X00740000Y00814000D03*
X00742000Y00816000D03*
X00744000Y00818000D03*
X00746000Y00820000D03*
X00748000Y00822000D03*
X00586000Y01442000D03*
X00588000Y01444000D03*
X00590000Y01446000D03*
X00592000Y01448000D03*
X00554000Y01468000D03*
X00552000Y01466000D03*
X00558000Y01644000D03*
X00556000Y01646000D03*
X00554000Y01648000D03*
X00552000Y01650000D03*
X00550000Y01652000D03*
X00548000Y01654000D03*
X00524000Y01674000D03*
X00562000Y01754000D03*
X00560000Y01756000D03*
X00558000Y01758000D03*
X00556000Y01760000D03*
X00554000Y01762000D03*
X00552000Y01764000D03*
X00550000Y01766000D03*
X00548000Y01768000D03*
X00546000Y01770000D03*
X00544000Y01772000D03*
X00542000Y01774000D03*
X00540000Y01776000D03*
X00538000Y01778000D03*
X00536000Y01780000D03*
X00534000Y01782000D03*
X00532000Y01784000D03*
X00530000Y01786000D03*
X00528000Y01788000D03*
X00526000Y01790000D03*
X00524000Y01792000D03*
X00522000Y01794000D03*
X00520000Y01796000D03*
X00518000Y01798000D03*
X00516000Y01800000D03*
X00514000Y01802000D03*
X00512000Y01804000D03*
X00510000Y01806000D03*
X00508000Y01808000D03*
X00506000Y01810000D03*
X00504000Y01812000D03*
X00502000Y01814000D03*
X00500000Y01816000D03*
X00498000Y01818000D03*
X00496000Y01820000D03*
X00494000Y01822000D03*
X00492000Y01824000D03*
X00490000Y01826000D03*
X00488000Y01828000D03*
X00486000Y01830000D03*
X00484000Y01832000D03*
X00482000Y01834000D03*
X00480000Y01836000D03*
X00478000Y01838000D03*
X00476000Y01840000D03*
X00494000Y01920000D03*
X00428000Y01920000D03*
X00428000Y01858000D03*
X00370000Y01646000D03*
X00366000Y01642000D03*
X00460000Y01514000D03*
X00576000Y01740000D03*
X00574000Y01742000D03*
X00572000Y01744000D03*
X00570000Y01746000D03*
X00568000Y01748000D03*
X00566000Y01750000D03*
X00564000Y01752000D03*
X00578000Y01738000D03*
X00580000Y01736000D03*
X00582000Y01734000D03*
X00584000Y01732000D03*
X00586000Y01730000D03*
X00588000Y01728000D03*
X00590000Y01726000D03*
X00592000Y01724000D03*
X00594000Y01722000D03*
X00596000Y01720000D03*
X00598000Y01718000D03*
X00600000Y01716000D03*
X00602000Y01714000D03*
X00604000Y01712000D03*
X00606000Y01710000D03*
X00608000Y01708000D03*
X00610000Y01706000D03*
X00612000Y01704000D03*
X00614000Y01702000D03*
X00626000Y01690000D03*
X00628000Y01692000D03*
X00630000Y01694000D03*
X00632000Y01696000D03*
X00634000Y01698000D03*
X00636000Y01700000D03*
X00638000Y01702000D03*
X00640000Y01704000D03*
X00642000Y01706000D03*
X00644000Y01708000D03*
X00646000Y01710000D03*
X00648000Y01712000D03*
X00660000Y01724000D03*
X00662000Y01726000D03*
X00664000Y01728000D03*
X00666000Y01730000D03*
X00668000Y01732000D03*
X00670000Y01734000D03*
X00672000Y01736000D03*
X00674000Y01738000D03*
X00676000Y01740000D03*
X00678000Y01742000D03*
X00680000Y01744000D03*
X00682000Y01746000D03*
X00684000Y01748000D03*
X00686000Y01750000D03*
X00696000Y01750000D03*
X00698000Y01748000D03*
X00700000Y01746000D03*
X00702000Y01744000D03*
X00704000Y01742000D03*
X00706000Y01740000D03*
X00708000Y01738000D03*
X00710000Y01736000D03*
X00712000Y01734000D03*
X00714000Y01732000D03*
X00716000Y01730000D03*
X00718000Y01728000D03*
X00720000Y01726000D03*
X00722000Y01724000D03*
X00724000Y01722000D03*
X00726000Y01720000D03*
X00728000Y01718000D03*
X00730000Y01716000D03*
X00732000Y01714000D03*
X00734000Y01712000D03*
X00736000Y01710000D03*
X00738000Y01708000D03*
X00740000Y01706000D03*
X00742000Y01704000D03*
X00744000Y01702000D03*
X00746000Y01700000D03*
X00748000Y01698000D03*
X00750000Y01696000D03*
X00752000Y01694000D03*
X00754000Y01692000D03*
X00756000Y01690000D03*
X00758000Y01688000D03*
X00760000Y01686000D03*
X00762000Y01684000D03*
X00764000Y01682000D03*
X00766000Y01680000D03*
X00768000Y01678000D03*
X00770000Y01676000D03*
X00772000Y01674000D03*
X00774000Y01672000D03*
X00776000Y01670000D03*
X00614000Y01678000D03*
X00612000Y01676000D03*
X00610000Y01674000D03*
X00608000Y01672000D03*
X00606000Y01670000D03*
X00604000Y01668000D03*
X00590000Y01652000D03*
D61*
X00588000Y01652000D03*
X00546000Y01656000D03*
X00538000Y01662000D03*
X00518000Y01676000D03*
X00470000Y01844000D03*
X00442000Y01848000D03*
X00438000Y01850000D03*
X00436000Y01852000D03*
X00434000Y01926000D03*
X00436000Y01928000D03*
X00440000Y01930000D03*
X00482000Y01930000D03*
X00486000Y01928000D03*
X00488000Y01926000D03*
X00402000Y01672000D03*
X00398000Y01670000D03*
X00394000Y01668000D03*
X00392000Y01666000D03*
X00388000Y01664000D03*
X00386000Y01662000D03*
X00384000Y01660000D03*
X00382000Y01638000D03*
X00384000Y01636000D03*
X00386000Y01636000D03*
X00388000Y01634000D03*
X00392000Y01632000D03*
X00396000Y01630000D03*
X00400000Y01628000D03*
X00402000Y01626000D03*
X00406000Y01624000D03*
X00410000Y01622000D03*
X00412000Y01620000D03*
X00416000Y01618000D03*
X00420000Y01616000D03*
X00424000Y01614000D03*
X00406000Y01576000D03*
X00402000Y01578000D03*
X00398000Y01580000D03*
X00396000Y01582000D03*
X00392000Y01584000D03*
X00388000Y01586000D03*
X00384000Y01588000D03*
X00382000Y01590000D03*
X00378000Y01592000D03*
X00374000Y01594000D03*
X00370000Y01596000D03*
X00368000Y01598000D03*
X00364000Y01600000D03*
X00360000Y01602000D03*
X00358000Y01604000D03*
X00346000Y01568000D03*
X00348000Y01566000D03*
X00352000Y01564000D03*
X00356000Y01562000D03*
X00358000Y01560000D03*
X00360000Y01560000D03*
X00362000Y01558000D03*
X00366000Y01556000D03*
X00370000Y01554000D03*
X00372000Y01552000D03*
X00376000Y01550000D03*
X00380000Y01548000D03*
X00382000Y01546000D03*
X00384000Y01546000D03*
X00386000Y01544000D03*
X00390000Y01542000D03*
X00394000Y01540000D03*
X00418000Y01514000D03*
X00404000Y01446000D03*
X00408000Y01444000D03*
X00412000Y01442000D03*
X00410000Y01400000D03*
X00516000Y01442000D03*
X00520000Y01444000D03*
X00524000Y01446000D03*
X00528000Y01448000D03*
X00532000Y01450000D03*
X00534000Y01452000D03*
X00536000Y01454000D03*
X00538000Y01454000D03*
X00540000Y01456000D03*
X00542000Y01458000D03*
X00560000Y01422000D03*
X00562000Y01422000D03*
X00564000Y01424000D03*
X00566000Y01426000D03*
X00570000Y01428000D03*
X00572000Y01430000D03*
X00558000Y01420000D03*
X00554000Y01418000D03*
X00538000Y01410000D03*
X00544000Y01108000D03*
X00548000Y01106000D03*
X00552000Y01104000D03*
X00554000Y01102000D03*
X00558000Y01100000D03*
X00562000Y01098000D03*
X00564000Y01096000D03*
X00566000Y01094000D03*
X00568000Y01094000D03*
X00570000Y01092000D03*
X00572000Y01090000D03*
X00546000Y01060000D03*
X00548000Y01058000D03*
X00538000Y01066000D03*
X00536000Y01068000D03*
X00534000Y01068000D03*
X00532000Y01070000D03*
X00530000Y01072000D03*
X00526000Y01074000D03*
X00522000Y01076000D03*
X00518000Y01078000D03*
X00514000Y01080000D03*
X00470000Y00900000D03*
X00520000Y00844000D03*
X00524000Y00846000D03*
X00528000Y00848000D03*
X00530000Y00850000D03*
X00534000Y00852000D03*
X00536000Y00854000D03*
X00542000Y00858000D03*
X00544000Y00860000D03*
X00588000Y00868000D03*
X00690000Y00768000D03*
X00692000Y00768000D03*
X00490000Y00594000D03*
X00488000Y00592000D03*
X00486000Y00590000D03*
X00484000Y00590000D03*
X00482000Y00588000D03*
X00440000Y00588000D03*
X00436000Y00590000D03*
X00434000Y00592000D03*
X00434000Y00666000D03*
X00436000Y00668000D03*
X00438000Y00668000D03*
X00470000Y00674000D03*
X00420000Y00840000D03*
X00408000Y00846000D03*
X00404000Y00848000D03*
X00400000Y00850000D03*
X00430000Y01010000D03*
X00396000Y01068000D03*
X00398000Y01070000D03*
X00402000Y01072000D03*
X00392000Y01066000D03*
X00390000Y01064000D03*
X00412000Y01078000D03*
X00228000Y01158000D03*
X00216000Y01148000D03*
X00214000Y01146000D03*
X00212000Y01144000D03*
X00208000Y01142000D03*
X00228000Y01210000D03*
X00216000Y01220000D03*
X00214000Y01222000D03*
X00212000Y01222000D03*
X00210000Y01224000D03*
X00208000Y01288000D03*
X00212000Y01290000D03*
X00214000Y01292000D03*
X00228000Y01302000D03*
X00230000Y01354000D03*
X00214000Y01366000D03*
X00212000Y01368000D03*
X00168000Y01370000D03*
X00164000Y01368000D03*
X00162000Y01366000D03*
X00160000Y01294000D03*
X00162000Y01292000D03*
X00164000Y01290000D03*
X00166000Y01290000D03*
X00168000Y01288000D03*
X00164000Y01222000D03*
X00162000Y01220000D03*
X00136000Y01184000D03*
X00160000Y01148000D03*
X00162000Y01146000D03*
X00164000Y01146000D03*
X00166000Y01144000D03*
D62*
X00154000Y01155000D03*
X00154000Y01301000D03*
X00154000Y01357000D03*
X00362000Y01637000D03*
X00368000Y01645000D03*
X00372000Y01647000D03*
X00426000Y01861000D03*
X00426000Y01917000D03*
X00496000Y01917000D03*
X00560000Y01641000D03*
X00562000Y01639000D03*
X00494000Y01601000D03*
X00454000Y01601000D03*
X00382000Y01393000D03*
X00370000Y01045000D03*
X00368000Y01043000D03*
X00366000Y01041000D03*
X00432000Y01009000D03*
X00472000Y01009000D03*
X00468000Y00901000D03*
X00428000Y00901000D03*
X00426000Y00657000D03*
X00426000Y00601000D03*
X00496000Y00601000D03*
X00564000Y00881000D03*
X00566000Y00883000D03*
X00626000Y00829000D03*
X00660000Y00795000D03*
X00638000Y00971000D03*
X00602000Y01059000D03*
X00600000Y01063000D03*
X00598000Y01065000D03*
X00596000Y01067000D03*
X00564000Y01041000D03*
X00562000Y01043000D03*
X00594000Y01451000D03*
X00596000Y01453000D03*
X00598000Y01455000D03*
X00600000Y01459000D03*
X00602000Y01461000D03*
X00564000Y01481000D03*
X00562000Y01479000D03*
X00560000Y01475000D03*
X00558000Y01473000D03*
X00556000Y01471000D03*
D63*
X00568000Y01487000D03*
X00570000Y01491000D03*
X00606000Y01467000D03*
X00608000Y01471000D03*
X00606000Y01631000D03*
X00570000Y01627000D03*
X00530000Y01673000D03*
X00456000Y01601000D03*
X00458000Y01515000D03*
X00408000Y01405000D03*
X00388000Y01449000D03*
X00358000Y01631000D03*
X00374000Y01647000D03*
X00424000Y01865000D03*
X00424000Y01913000D03*
X00152000Y01209000D03*
X00360000Y01031000D03*
X00430000Y00901000D03*
X00470000Y01009000D03*
X00572000Y01029000D03*
X00606000Y01053000D03*
X00610000Y01047000D03*
X00610000Y00895000D03*
X00608000Y00891000D03*
X00606000Y00889000D03*
X00574000Y00895000D03*
X00570000Y00889000D03*
X00624000Y00829000D03*
X00658000Y00795000D03*
X00498000Y00605000D03*
X00424000Y00653000D03*
D64*
X00424000Y00604000D03*
X00568000Y00886000D03*
X00572000Y00892000D03*
X00592000Y00868000D03*
X00602000Y00882000D03*
X00604000Y00886000D03*
X00570000Y01032000D03*
X00568000Y01036000D03*
X00566000Y01038000D03*
X00604000Y01056000D03*
X00604000Y01464000D03*
X00566000Y01484000D03*
X00568000Y01630000D03*
X00566000Y01634000D03*
X00564000Y01636000D03*
X00592000Y01652000D03*
X00602000Y01638000D03*
X00604000Y01634000D03*
X00624000Y01690000D03*
X00658000Y01724000D03*
X00528000Y01674000D03*
X00526000Y01674000D03*
X00498000Y01914000D03*
X00364000Y01640000D03*
X00360000Y01634000D03*
X00420000Y01514000D03*
X00364000Y01038000D03*
X00362000Y01034000D03*
X00152000Y01158000D03*
X00154000Y01212000D03*
X00152000Y01304000D03*
X00152000Y01354000D03*
D65*
X00330000Y01561000D03*
X00380000Y01397000D03*
X00534000Y01673000D03*
X00574000Y01619000D03*
X00612000Y01621000D03*
X00614000Y01617000D03*
X00574000Y01497000D03*
X00612000Y01477000D03*
X00614000Y01481000D03*
X00614000Y01039000D03*
X00614000Y00903000D03*
X00612000Y00899000D03*
X00578000Y00903000D03*
X00576000Y00899000D03*
X00622000Y00829000D03*
X00656000Y00795000D03*
X00354000Y01021000D03*
X00410000Y01889000D03*
D66*
X00376000Y01648000D03*
X00422000Y01514000D03*
X00492000Y01600000D03*
X00532000Y01672000D03*
X00572000Y01624000D03*
X00594000Y01652000D03*
X00608000Y01628000D03*
X00610000Y01624000D03*
X00622000Y01690000D03*
X00656000Y01724000D03*
X00572000Y01494000D03*
X00610000Y01474000D03*
X00608000Y01050000D03*
X00612000Y01044000D03*
X00574000Y01026000D03*
X00576000Y01022000D03*
X00594000Y00868000D03*
X00466000Y00900000D03*
X00434000Y01010000D03*
X00358000Y01028000D03*
X00356000Y01024000D03*
D67*
X00352000Y01016000D03*
X00432000Y00900000D03*
X00436000Y01010000D03*
X00468000Y01010000D03*
X00578000Y01018000D03*
X00410000Y00628000D03*
X00138000Y01184000D03*
X00378000Y01648000D03*
X00424000Y01514000D03*
X00456000Y01514000D03*
X00490000Y01600000D03*
X00536000Y01672000D03*
X00576000Y01616000D03*
X00620000Y01690000D03*
X00654000Y01724000D03*
X00576000Y01502000D03*
X00616000Y01486000D03*
D68*
X00618000Y01490000D03*
X00578000Y01506000D03*
X00618000Y01608000D03*
X00618000Y01690000D03*
X00652000Y01724000D03*
X00454000Y01514000D03*
X00452000Y01514000D03*
X00426000Y01514000D03*
X00348000Y01610000D03*
X00438000Y01010000D03*
X00462000Y00900000D03*
X00580000Y00908000D03*
X00618000Y00912000D03*
X00618000Y01030000D03*
D69*
X00620000Y01024000D03*
X00582000Y01008000D03*
X00582000Y00914000D03*
X00620000Y00918000D03*
X00512000Y00634000D03*
X00462000Y01010000D03*
X00442000Y01010000D03*
X00404000Y01412000D03*
X00428000Y01514000D03*
X00430000Y01514000D03*
X00448000Y01514000D03*
X00450000Y01514000D03*
X00484000Y01600000D03*
X00580000Y01512000D03*
X00620000Y01496000D03*
X00616000Y01690000D03*
X00650000Y01724000D03*
X00512000Y01884000D03*
X00412000Y01890000D03*
X00354000Y01618000D03*
X00346000Y01604000D03*
D70*
X00592000Y00961000D03*
X00632000Y00971000D03*
X00632000Y01549000D03*
D71*
X00630000Y01549000D03*
X00630000Y00971000D03*
X00590000Y00961000D03*
D72*
X00628000Y00971000D03*
D73*
X00628000Y01550000D03*
D74*
X00626000Y01549000D03*
X00626000Y00971000D03*
D75*
X00624000Y00971000D03*
X00624000Y01549000D03*
D76*
X00590000Y01558000D03*
D77*
X00588000Y00961000D03*
D78*
X00588000Y01559000D03*
D79*
X00584000Y01559000D03*
X00586000Y00961000D03*
X00332000Y00915000D03*
D80*
X00586000Y01558000D03*
D81*
X00586000Y01653000D03*
X00566000Y01719000D03*
X00564000Y01719000D03*
X00462000Y01515000D03*
X00428000Y01613000D03*
X00412000Y01575000D03*
X00400000Y01539000D03*
X00398000Y01539000D03*
X00384000Y01455000D03*
X00396000Y00851000D03*
D82*
X00584000Y00867000D03*
X00414000Y01575000D03*
X00510000Y01675000D03*
X00568000Y01719000D03*
X00584000Y01653000D03*
D83*
X00576000Y01690000D03*
X00416000Y01514000D03*
X00386000Y01388000D03*
D84*
X00412000Y01398000D03*
X00430000Y01614000D03*
X00514000Y01890000D03*
X00574000Y01690000D03*
X00394000Y00850000D03*
X00408000Y00628000D03*
D85*
X00514000Y00628000D03*
D86*
X00336000Y00924000D03*
X00444000Y01182000D03*
X00446000Y01182000D03*
X00448000Y01182000D03*
X00450000Y01182000D03*
X00452000Y01182000D03*
X00446000Y01340000D03*
D87*
X00444000Y01339000D03*
X00442000Y01339000D03*
X00448000Y01339000D03*
X00450000Y01339000D03*
X00452000Y01339000D03*
D88*
X00442000Y01182000D03*
D89*
X00440000Y01182000D03*
D90*
X00440000Y01339000D03*
D91*
X00402000Y01539000D03*
X00432000Y01613000D03*
D92*
X00344000Y00936000D03*
D93*
X00342000Y01558000D03*
D94*
X00340000Y00930000D03*
D95*
X00340000Y01559000D03*
D96*
X00338000Y01560000D03*
D97*
X00336000Y01561000D03*
D98*
X00334000Y00921000D03*
D99*
X00581426Y02765975D02*
X00581429Y02766248D01*
X00581439Y02766521D01*
X00581456Y02766794D01*
X00581480Y02767066D01*
X00581510Y02767337D01*
X00581546Y02767608D01*
X00581590Y02767878D01*
X00581640Y02768146D01*
X00581696Y02768414D01*
X00581760Y02768679D01*
X00581829Y02768944D01*
X00581905Y02769206D01*
X00581988Y02769466D01*
X00582077Y02769725D01*
X00582172Y02769981D01*
X00582273Y02770234D01*
X00582381Y02770485D01*
X00582495Y02770734D01*
X00582614Y02770979D01*
X00582740Y02771222D01*
X00582872Y02771461D01*
X00583009Y02771697D01*
X00583153Y02771930D01*
X00583302Y02772158D01*
X00583456Y02772384D01*
X00583616Y02772605D01*
X00583782Y02772823D01*
X00583952Y02773036D01*
X00584128Y02773245D01*
X00584309Y02773449D01*
X00584495Y02773650D01*
X00584686Y02773845D01*
X00584881Y02774036D01*
X00585082Y02774222D01*
X00585286Y02774403D01*
X00585495Y02774579D01*
X00585708Y02774749D01*
X00585926Y02774915D01*
X00586147Y02775075D01*
X00586373Y02775229D01*
X00586601Y02775378D01*
X00586834Y02775522D01*
X00587070Y02775659D01*
X00587309Y02775791D01*
X00587552Y02775917D01*
X00587797Y02776036D01*
X00588046Y02776150D01*
X00588297Y02776258D01*
X00588550Y02776359D01*
X00588806Y02776454D01*
X00589065Y02776543D01*
X00589325Y02776626D01*
X00589587Y02776702D01*
X00589852Y02776771D01*
X00590117Y02776835D01*
X00590385Y02776891D01*
X00590653Y02776941D01*
X00590923Y02776985D01*
X00591194Y02777021D01*
X00591465Y02777051D01*
X00591737Y02777075D01*
X00592010Y02777092D01*
X00592283Y02777102D01*
X00592556Y02777105D01*
X00592829Y02777102D01*
X00593102Y02777092D01*
X00593375Y02777075D01*
X00593647Y02777051D01*
X00593918Y02777021D01*
X00594189Y02776985D01*
X00594459Y02776941D01*
X00594727Y02776891D01*
X00594995Y02776835D01*
X00595260Y02776771D01*
X00595525Y02776702D01*
X00595787Y02776626D01*
X00596047Y02776543D01*
X00596306Y02776454D01*
X00596562Y02776359D01*
X00596815Y02776258D01*
X00597066Y02776150D01*
X00597315Y02776036D01*
X00597560Y02775917D01*
X00597803Y02775791D01*
X00598042Y02775659D01*
X00598278Y02775522D01*
X00598511Y02775378D01*
X00598739Y02775229D01*
X00598965Y02775075D01*
X00599186Y02774915D01*
X00599404Y02774749D01*
X00599617Y02774579D01*
X00599826Y02774403D01*
X00600030Y02774222D01*
X00600231Y02774036D01*
X00600426Y02773845D01*
X00600617Y02773650D01*
X00600803Y02773449D01*
X00600984Y02773245D01*
X00601160Y02773036D01*
X00601330Y02772823D01*
X00601496Y02772605D01*
X00601656Y02772384D01*
X00601810Y02772158D01*
X00601959Y02771930D01*
X00602103Y02771697D01*
X00602240Y02771461D01*
X00602372Y02771222D01*
X00602498Y02770979D01*
X00602617Y02770734D01*
X00602731Y02770485D01*
X00602839Y02770234D01*
X00602940Y02769981D01*
X00603035Y02769725D01*
X00603124Y02769466D01*
X00603207Y02769206D01*
X00603283Y02768944D01*
X00603352Y02768679D01*
X00603416Y02768414D01*
X00603472Y02768146D01*
X00603522Y02767878D01*
X00603566Y02767608D01*
X00603602Y02767337D01*
X00603632Y02767066D01*
X00603656Y02766794D01*
X00603673Y02766521D01*
X00603683Y02766248D01*
X00603686Y02765975D01*
X00603683Y02765702D01*
X00603673Y02765429D01*
X00603656Y02765156D01*
X00603632Y02764884D01*
X00603602Y02764613D01*
X00603566Y02764342D01*
X00603522Y02764072D01*
X00603472Y02763804D01*
X00603416Y02763536D01*
X00603352Y02763271D01*
X00603283Y02763006D01*
X00603207Y02762744D01*
X00603124Y02762484D01*
X00603035Y02762225D01*
X00602940Y02761969D01*
X00602839Y02761716D01*
X00602731Y02761465D01*
X00602617Y02761216D01*
X00602498Y02760971D01*
X00602372Y02760728D01*
X00602240Y02760489D01*
X00602103Y02760253D01*
X00601959Y02760020D01*
X00601810Y02759792D01*
X00601656Y02759566D01*
X00601496Y02759345D01*
X00601330Y02759127D01*
X00601160Y02758914D01*
X00600984Y02758705D01*
X00600803Y02758501D01*
X00600617Y02758300D01*
X00600426Y02758105D01*
X00600231Y02757914D01*
X00600030Y02757728D01*
X00599826Y02757547D01*
X00599617Y02757371D01*
X00599404Y02757201D01*
X00599186Y02757035D01*
X00598965Y02756875D01*
X00598739Y02756721D01*
X00598511Y02756572D01*
X00598278Y02756428D01*
X00598042Y02756291D01*
X00597803Y02756159D01*
X00597560Y02756033D01*
X00597315Y02755914D01*
X00597066Y02755800D01*
X00596815Y02755692D01*
X00596562Y02755591D01*
X00596306Y02755496D01*
X00596047Y02755407D01*
X00595787Y02755324D01*
X00595525Y02755248D01*
X00595260Y02755179D01*
X00594995Y02755115D01*
X00594727Y02755059D01*
X00594459Y02755009D01*
X00594189Y02754965D01*
X00593918Y02754929D01*
X00593647Y02754899D01*
X00593375Y02754875D01*
X00593102Y02754858D01*
X00592829Y02754848D01*
X00592556Y02754845D01*
X00592283Y02754848D01*
X00592010Y02754858D01*
X00591737Y02754875D01*
X00591465Y02754899D01*
X00591194Y02754929D01*
X00590923Y02754965D01*
X00590653Y02755009D01*
X00590385Y02755059D01*
X00590117Y02755115D01*
X00589852Y02755179D01*
X00589587Y02755248D01*
X00589325Y02755324D01*
X00589065Y02755407D01*
X00588806Y02755496D01*
X00588550Y02755591D01*
X00588297Y02755692D01*
X00588046Y02755800D01*
X00587797Y02755914D01*
X00587552Y02756033D01*
X00587309Y02756159D01*
X00587070Y02756291D01*
X00586834Y02756428D01*
X00586601Y02756572D01*
X00586373Y02756721D01*
X00586147Y02756875D01*
X00585926Y02757035D01*
X00585708Y02757201D01*
X00585495Y02757371D01*
X00585286Y02757547D01*
X00585082Y02757728D01*
X00584881Y02757914D01*
X00584686Y02758105D01*
X00584495Y02758300D01*
X00584309Y02758501D01*
X00584128Y02758705D01*
X00583952Y02758914D01*
X00583782Y02759127D01*
X00583616Y02759345D01*
X00583456Y02759566D01*
X00583302Y02759792D01*
X00583153Y02760020D01*
X00583009Y02760253D01*
X00582872Y02760489D01*
X00582740Y02760728D01*
X00582614Y02760971D01*
X00582495Y02761216D01*
X00582381Y02761465D01*
X00582273Y02761716D01*
X00582172Y02761969D01*
X00582077Y02762225D01*
X00581988Y02762484D01*
X00581905Y02762744D01*
X00581829Y02763006D01*
X00581760Y02763271D01*
X00581696Y02763536D01*
X00581640Y02763804D01*
X00581590Y02764072D01*
X00581546Y02764342D01*
X00581510Y02764613D01*
X00581480Y02764884D01*
X00581456Y02765156D01*
X00581439Y02765429D01*
X00581429Y02765702D01*
X00581426Y02765975D01*
X00387949Y03423965D02*
X00970626Y03423965D01*
X00970626Y03986957D01*
X00387949Y03986957D01*
X00387949Y03423965D01*
X01078557Y02109517D02*
X01096906Y02109517D01*
X01133604Y02109517D02*
X01207000Y02109517D01*
X01207000Y02091168D02*
X01207000Y02127866D01*
X01188651Y02164831D02*
X01151953Y02164831D01*
X01133604Y02183180D01*
X01133604Y02219878D01*
X01151953Y02238227D01*
X01170302Y02238227D01*
X01170302Y02164831D01*
X01188651Y02164831D02*
X01207000Y02183180D01*
X01207000Y02219878D01*
X01207000Y02054270D02*
X01188651Y02054270D01*
X01188651Y02035921D01*
X01207000Y02035921D01*
X01207000Y02054270D01*
X01188651Y01998822D02*
X01151953Y01998822D01*
X01133604Y01980473D01*
X01133604Y01943775D01*
X01151953Y01925426D01*
X01188651Y01925426D01*
X01207000Y01943775D01*
X01207000Y01980473D01*
X01188651Y01998822D01*
X01188651Y01888328D02*
X01151953Y01888328D01*
X01133604Y01869979D01*
X01133604Y01833281D01*
X01151953Y01814932D01*
X01188651Y01814932D01*
X01207000Y01833281D01*
X01207000Y01869979D01*
X01188651Y01888328D01*
X01207000Y01777834D02*
X01151953Y01777834D01*
X01133604Y01759485D01*
X01133604Y01722787D01*
X01151953Y01704438D01*
X01151953Y01667339D02*
X01207000Y01667339D01*
X01207000Y01612292D01*
X01188651Y01593943D01*
X01170302Y01612292D01*
X01170302Y01667339D01*
X01151953Y01667339D02*
X01133604Y01648990D01*
X01133604Y01612292D01*
X01133604Y01556845D02*
X01225349Y01556845D01*
X01243698Y01538496D01*
X01243698Y01520147D01*
X01207000Y01501798D02*
X01207000Y01556845D01*
X01207000Y01501798D02*
X01188651Y01483449D01*
X01133604Y01483449D01*
X01115255Y01446351D02*
X01151953Y01446351D01*
X01170302Y01428002D01*
X01133604Y01428002D01*
X01133604Y01391304D01*
X01170302Y01391304D01*
X01170302Y01428002D01*
X01188651Y01446351D02*
X01207000Y01428002D01*
X01207000Y01391304D01*
X01188651Y01372955D01*
X01115255Y01372955D01*
X01096906Y01391304D01*
X01096906Y01428002D01*
X01115255Y01446351D01*
X01151953Y01335856D02*
X01133604Y01317507D01*
X01133604Y01280809D01*
X01151953Y01262460D01*
X01188651Y01262460D01*
X01207000Y01280809D01*
X01207000Y01317507D01*
X01188651Y01335856D01*
X01151953Y01335856D01*
X01207000Y01225495D02*
X01207000Y01188797D01*
X01207000Y01207146D02*
X01133604Y01207146D01*
X01133604Y01188797D01*
X01133604Y01151766D02*
X01133604Y01133417D01*
X01170302Y01096719D01*
X01170302Y01059621D02*
X01170302Y01004573D01*
X01188651Y00986225D01*
X01207000Y01004573D01*
X01207000Y01059621D01*
X01151953Y01059621D01*
X01133604Y01041272D01*
X01133604Y01004573D01*
X01151953Y00949126D02*
X01133604Y00930777D01*
X01151953Y00912428D01*
X01207000Y00912428D01*
X01207000Y00875730D02*
X01133604Y00875730D01*
X01133604Y00894079D01*
X01151953Y00912428D01*
X01151953Y00949126D02*
X01207000Y00949126D01*
X01207000Y00838632D02*
X01207000Y00783585D01*
X01188651Y00765236D01*
X01170302Y00783585D01*
X01170302Y00838632D01*
X01151953Y00838632D02*
X01207000Y00838632D01*
X01151953Y00838632D02*
X01133604Y00820283D01*
X01133604Y00783585D01*
X01096906Y00709922D02*
X01207000Y00709922D01*
X01207000Y00691573D02*
X01207000Y00728271D01*
X01207000Y00654475D02*
X01133604Y00654475D01*
X01096906Y00691573D02*
X01096906Y00709922D01*
X01133604Y00581079D02*
X01188651Y00581079D01*
X01207000Y00599428D01*
X01207000Y00654475D01*
X01207000Y00544047D02*
X01170302Y00489000D01*
X01133604Y00544047D01*
X01096906Y00489000D02*
X01207000Y00489000D01*
X01207000Y01096719D02*
X01133604Y01096719D01*
X01096906Y01207146D02*
X01078557Y01207146D01*
X01096906Y01704438D02*
X01207000Y01704438D01*
X01133604Y02091168D02*
X01133604Y02109517D01*
D100*
X00034011Y00043671D02*
X00038682Y00039000D01*
X00048023Y00039000D01*
X00052694Y00043671D01*
X00052694Y00048341D01*
X00048023Y00053012D01*
X00043352Y00053012D01*
X00048023Y00053012D02*
X00052694Y00057683D01*
X00052694Y00062353D01*
X00048023Y00067024D01*
X00038682Y00067024D01*
X00034011Y00062353D01*
X00061635Y00039000D02*
X00080317Y00067024D01*
X00089258Y00067024D02*
X00089258Y00053012D01*
X00098600Y00057683D01*
X00103270Y00057683D01*
X00107941Y00053012D01*
X00107941Y00043671D01*
X00103270Y00039000D01*
X00093929Y00039000D01*
X00089258Y00043671D01*
X00089258Y00067024D02*
X00107941Y00067024D01*
X00135564Y00067024D02*
X00116882Y00039000D01*
X00144505Y00039000D02*
X00163188Y00057683D01*
X00163188Y00062353D01*
X00158517Y00067024D01*
X00149176Y00067024D01*
X00144505Y00062353D01*
X00144505Y00039000D02*
X00163188Y00039000D01*
X00172129Y00043671D02*
X00190811Y00062353D01*
X00190811Y00043671D01*
X00186141Y00039000D01*
X00176799Y00039000D01*
X00172129Y00043671D01*
X00172129Y00062353D01*
X00176799Y00067024D01*
X00186141Y00067024D01*
X00190811Y00062353D01*
X00199752Y00062353D02*
X00204423Y00067024D01*
X00213764Y00067024D01*
X00218435Y00062353D01*
X00218435Y00057683D01*
X00199752Y00039000D01*
X00218435Y00039000D01*
X00227376Y00039000D02*
X00246058Y00039000D01*
X00236717Y00039000D02*
X00236717Y00067024D01*
X00227376Y00057683D01*
X01019987Y02791500D02*
X01031998Y02791500D01*
X01035000Y02794502D01*
X01035000Y02800508D01*
X01031998Y02803510D01*
X01025992Y02803510D01*
X01025992Y02797505D01*
X01019987Y02791500D02*
X01016985Y02794502D01*
X01016985Y02800508D01*
X01019987Y02803510D01*
X01016985Y02809916D02*
X01035000Y02821926D01*
X01016985Y02821926D01*
X01016985Y02828331D02*
X01016985Y02837339D01*
X01019987Y02840342D01*
X01031998Y02840342D01*
X01035000Y02837339D01*
X01035000Y02828331D01*
X01016985Y02828331D01*
X01016985Y02809916D02*
X01035000Y02809916D01*
X01018500Y02897000D02*
X01000485Y02897000D01*
X01018500Y02909010D01*
X01000485Y02909010D01*
X01000485Y02915416D02*
X01000485Y02924423D01*
X01003487Y02927426D01*
X01009492Y02927426D01*
X01012495Y02924423D01*
X01012495Y02915416D01*
X01012495Y02921421D02*
X01018500Y02927426D01*
X01015498Y02933831D02*
X01018500Y02936834D01*
X01018500Y02942839D01*
X01015498Y02945842D01*
X01012495Y02945842D01*
X01009492Y02942839D01*
X01009492Y02936834D01*
X01006490Y02933831D01*
X01003487Y02933831D01*
X01000485Y02936834D01*
X01000485Y02942839D01*
X01003487Y02945842D01*
X01000485Y02952247D02*
X01000485Y02964257D01*
X01000485Y02958252D02*
X01018500Y02958252D01*
X01026487Y02989500D02*
X01029490Y02989500D01*
X01032492Y02992502D01*
X01032492Y02998508D01*
X01035495Y03001510D01*
X01038498Y03001510D01*
X01041500Y02998508D01*
X01041500Y02992502D01*
X01038498Y02989500D01*
X01026487Y02989500D02*
X01023485Y02992502D01*
X01023485Y02998508D01*
X01026487Y03001510D01*
X01023485Y03007916D02*
X01041500Y03007916D01*
X01035495Y03013921D01*
X01041500Y03019926D01*
X01023485Y03019926D01*
X01023485Y03026331D02*
X01023485Y03035339D01*
X01026487Y03038342D01*
X01038498Y03038342D01*
X01041500Y03035339D01*
X01041500Y03026331D01*
X01023485Y03026331D01*
X01023485Y03044747D02*
X01023485Y03050752D01*
X01023485Y03047750D02*
X01041500Y03047750D01*
X01041500Y03050752D02*
X01041500Y03044747D01*
X01038498Y03057024D02*
X01041500Y03060027D01*
X01041500Y03066032D01*
X01038498Y03069034D01*
X01026487Y03069034D01*
X01023485Y03066032D01*
X01023485Y03060027D01*
X01026487Y03057024D01*
X01038498Y03057024D01*
X01018500Y02915416D02*
X01000485Y02915416D01*
X01154843Y02916009D02*
X01154843Y02925017D01*
X01157845Y02928020D01*
X01163851Y02928020D01*
X01166853Y02925017D01*
X01166853Y02916009D01*
X01172858Y02916009D02*
X01154843Y02916009D01*
X01157845Y02909604D02*
X01154843Y02906601D01*
X01154843Y02900596D01*
X01157845Y02897594D01*
X01169856Y02897594D01*
X01172858Y02900596D01*
X01172858Y02906601D01*
X01169856Y02909604D01*
X01163851Y02909604D01*
X01163851Y02903599D01*
X01169856Y02891188D02*
X01157845Y02891188D01*
X01154843Y02888186D01*
X01154843Y02882180D01*
X01157845Y02879178D01*
X01169856Y02879178D01*
X01172858Y02882180D01*
X01172858Y02888186D01*
X01169856Y02891188D01*
X01172858Y02872772D02*
X01166853Y02866767D01*
X01166853Y02869770D02*
X01166853Y02860762D01*
X01172858Y02860762D02*
X01154843Y02860762D01*
X01154843Y02869770D01*
X01157845Y02872772D01*
X01163851Y02872772D01*
X01166853Y02869770D01*
X01163851Y02854357D02*
X01166853Y02851354D01*
X01166853Y02842346D01*
X01172858Y02842346D02*
X01154843Y02842346D01*
X01154843Y02851354D01*
X01157845Y02854357D01*
X01163851Y02854357D01*
X01166853Y02922014D02*
X01172858Y02928020D01*
X01172858Y02934425D02*
X01160848Y02934425D01*
X01154843Y02940430D01*
X01160848Y02946435D01*
X01172858Y02946435D01*
X01172858Y02952841D02*
X01154843Y02952841D01*
X01160848Y02958846D01*
X01154843Y02964851D01*
X01172858Y02964851D01*
X01172858Y02971257D02*
X01172858Y02983267D01*
X01172858Y02989672D02*
X01154843Y02989672D01*
X01154843Y02998680D01*
X01157845Y03001682D01*
X01163851Y03001682D01*
X01166853Y02998680D01*
X01166853Y02989672D01*
X01166853Y02995677D02*
X01172858Y03001682D01*
X01154843Y02983267D02*
X01154843Y02971257D01*
X01172858Y02971257D01*
X01163851Y02971257D02*
X01163851Y02977262D01*
X01163851Y02946435D02*
X01163851Y02934425D01*
X01175002Y03083000D02*
X01172000Y03086002D01*
X01175002Y03083000D02*
X01181008Y03083000D01*
X01184010Y03086002D01*
X01184010Y03089005D01*
X01181008Y03092008D01*
X01175002Y03092008D01*
X01172000Y03095010D01*
X01172000Y03098013D01*
X01175002Y03101015D01*
X01181008Y03101015D01*
X01184010Y03098013D01*
X01190416Y03101015D02*
X01190416Y03083000D01*
X01196421Y03089005D01*
X01202426Y03083000D01*
X01202426Y03101015D01*
X01208831Y03098013D02*
X01208831Y03086002D01*
X01211834Y03083000D01*
X01217839Y03083000D01*
X01220842Y03086002D01*
X01227247Y03083000D02*
X01239257Y03083000D01*
X01245663Y03083000D02*
X01245663Y03101015D01*
X01248665Y03092008D02*
X01257673Y03083000D01*
X01245663Y03089005D02*
X01257673Y03101015D01*
X01227247Y03101015D02*
X01227247Y03083000D01*
X01220842Y03098013D02*
X01217839Y03101015D01*
X01211834Y03101015D01*
X01208831Y03098013D01*
X01207010Y02755015D02*
X01207010Y02743005D01*
X01201005Y02737000D01*
X01195000Y02743005D01*
X01195000Y02755015D01*
X01213416Y02752013D02*
X01213416Y02740002D01*
X01216418Y02737000D01*
X01222423Y02737000D01*
X01225426Y02740002D01*
X01231831Y02740002D02*
X01234834Y02737000D01*
X01240839Y02737000D01*
X01243842Y02740002D01*
X01231831Y02740002D02*
X01231831Y02752013D01*
X01234834Y02755015D01*
X01240839Y02755015D01*
X01243842Y02752013D01*
X01225426Y02752013D02*
X01222423Y02755015D01*
X01216418Y02755015D01*
X01213416Y02752013D01*
X00830272Y03550343D02*
X00805665Y03550343D01*
X00776138Y03550343D01*
X00775659Y03550349D01*
X00775180Y03550366D01*
X00774701Y03550396D01*
X00774223Y03550436D01*
X00773747Y03550489D01*
X00773272Y03550553D01*
X00772798Y03550628D01*
X00772327Y03550715D01*
X00771858Y03550814D01*
X00771391Y03550924D01*
X00770927Y03551045D01*
X00770467Y03551178D01*
X00770009Y03551321D01*
X00769556Y03551476D01*
X00769106Y03551642D01*
X00768660Y03551819D01*
X00768219Y03552006D01*
X00767783Y03552204D01*
X00767351Y03552413D01*
X00766925Y03552632D01*
X00766504Y03552862D01*
X00766089Y03553101D01*
X00765679Y03553351D01*
X00765276Y03553611D01*
X00764880Y03553880D01*
X00764490Y03554159D01*
X00764107Y03554447D01*
X00763731Y03554745D01*
X00763363Y03555052D01*
X00763002Y03555367D01*
X00762649Y03555691D01*
X00762304Y03556024D01*
X00761967Y03556365D01*
X00761638Y03556714D01*
X00761318Y03557071D01*
X00761007Y03557436D01*
X00760705Y03557808D01*
X00760412Y03558188D01*
X00760128Y03558574D01*
X00759854Y03558967D01*
X00759590Y03559367D01*
X00759335Y03559773D01*
X00759090Y03560186D01*
X00758856Y03560604D01*
X00758631Y03561027D01*
X00758417Y03561456D01*
X00758214Y03561890D01*
X00758021Y03562329D01*
X00757839Y03562773D01*
X00757668Y03563220D01*
X00757507Y03563672D01*
X00757358Y03564128D01*
X00757220Y03564587D01*
X00757093Y03565049D01*
X00756977Y03565514D01*
X00756873Y03565982D01*
X00756780Y03566452D01*
X00756699Y03566925D01*
X00756629Y03567399D01*
X00756571Y03567875D01*
X00756524Y03568352D01*
X00756489Y03568830D01*
X00756466Y03569309D01*
X00756454Y03569788D01*
X00756454Y03570268D01*
X00756466Y03570747D01*
X00756489Y03571226D01*
X00756524Y03571704D01*
X00756571Y03572181D01*
X00756629Y03572657D01*
X00756699Y03573131D01*
X00756780Y03573604D01*
X00756873Y03574074D01*
X00756977Y03574542D01*
X00757093Y03575007D01*
X00757220Y03575469D01*
X00757358Y03575928D01*
X00757507Y03576384D01*
X00757668Y03576836D01*
X00757839Y03577283D01*
X00758021Y03577727D01*
X00758214Y03578166D01*
X00758417Y03578600D01*
X00758631Y03579029D01*
X00758856Y03579452D01*
X00759090Y03579871D01*
X00759335Y03580283D01*
X00759590Y03580689D01*
X00759854Y03581089D01*
X00760128Y03581482D01*
X00760412Y03581868D01*
X00760705Y03582248D01*
X00761007Y03582620D01*
X00761318Y03582985D01*
X00761638Y03583342D01*
X00761967Y03583691D01*
X00762304Y03584032D01*
X00762649Y03584365D01*
X00763002Y03584689D01*
X00763363Y03585004D01*
X00763731Y03585311D01*
X00764107Y03585609D01*
X00764490Y03585897D01*
X00764880Y03586176D01*
X00765276Y03586445D01*
X00765679Y03586705D01*
X00766089Y03586955D01*
X00766504Y03587194D01*
X00766925Y03587424D01*
X00767351Y03587643D01*
X00767783Y03587852D01*
X00768219Y03588050D01*
X00768660Y03588237D01*
X00769106Y03588414D01*
X00769556Y03588580D01*
X00770009Y03588735D01*
X00770467Y03588878D01*
X00770927Y03589011D01*
X00771391Y03589132D01*
X00771858Y03589242D01*
X00772327Y03589341D01*
X00772798Y03589428D01*
X00773272Y03589503D01*
X00773747Y03589567D01*
X00774223Y03589620D01*
X00774701Y03589660D01*
X00775180Y03589690D01*
X00775659Y03589707D01*
X00776138Y03589713D01*
X00775659Y03589719D01*
X00775180Y03589736D01*
X00774701Y03589766D01*
X00774223Y03589806D01*
X00773747Y03589859D01*
X00773272Y03589923D01*
X00772798Y03589998D01*
X00772327Y03590085D01*
X00771858Y03590184D01*
X00771391Y03590294D01*
X00770927Y03590415D01*
X00770467Y03590548D01*
X00770009Y03590691D01*
X00769556Y03590846D01*
X00769106Y03591012D01*
X00768660Y03591189D01*
X00768219Y03591376D01*
X00767783Y03591574D01*
X00767351Y03591783D01*
X00766925Y03592002D01*
X00766504Y03592232D01*
X00766089Y03592471D01*
X00765679Y03592721D01*
X00765276Y03592981D01*
X00764880Y03593250D01*
X00764490Y03593529D01*
X00764107Y03593817D01*
X00763731Y03594115D01*
X00763363Y03594422D01*
X00763002Y03594737D01*
X00762649Y03595061D01*
X00762304Y03595394D01*
X00761967Y03595735D01*
X00761638Y03596084D01*
X00761318Y03596441D01*
X00761007Y03596806D01*
X00760705Y03597178D01*
X00760412Y03597558D01*
X00760128Y03597944D01*
X00759854Y03598337D01*
X00759590Y03598737D01*
X00759335Y03599143D01*
X00759090Y03599556D01*
X00758856Y03599974D01*
X00758631Y03600397D01*
X00758417Y03600826D01*
X00758214Y03601260D01*
X00758021Y03601699D01*
X00757839Y03602143D01*
X00757668Y03602590D01*
X00757507Y03603042D01*
X00757358Y03603498D01*
X00757220Y03603957D01*
X00757093Y03604419D01*
X00756977Y03604884D01*
X00756873Y03605352D01*
X00756780Y03605822D01*
X00756699Y03606295D01*
X00756629Y03606769D01*
X00756571Y03607245D01*
X00756524Y03607722D01*
X00756489Y03608200D01*
X00756466Y03608679D01*
X00756454Y03609158D01*
X00756454Y03609638D01*
X00756466Y03610117D01*
X00756489Y03610596D01*
X00756524Y03611074D01*
X00756571Y03611551D01*
X00756629Y03612027D01*
X00756699Y03612501D01*
X00756780Y03612974D01*
X00756873Y03613444D01*
X00756977Y03613912D01*
X00757093Y03614377D01*
X00757220Y03614839D01*
X00757358Y03615298D01*
X00757507Y03615754D01*
X00757668Y03616206D01*
X00757839Y03616653D01*
X00758021Y03617097D01*
X00758214Y03617536D01*
X00758417Y03617970D01*
X00758631Y03618399D01*
X00758856Y03618822D01*
X00759090Y03619241D01*
X00759335Y03619653D01*
X00759590Y03620059D01*
X00759854Y03620459D01*
X00760128Y03620852D01*
X00760412Y03621238D01*
X00760705Y03621618D01*
X00761007Y03621990D01*
X00761318Y03622355D01*
X00761638Y03622712D01*
X00761967Y03623061D01*
X00762304Y03623402D01*
X00762649Y03623735D01*
X00763002Y03624059D01*
X00763363Y03624374D01*
X00763731Y03624681D01*
X00764107Y03624979D01*
X00764490Y03625267D01*
X00764880Y03625546D01*
X00765276Y03625815D01*
X00765679Y03626075D01*
X00766089Y03626325D01*
X00766504Y03626564D01*
X00766925Y03626794D01*
X00767351Y03627013D01*
X00767783Y03627222D01*
X00768219Y03627420D01*
X00768660Y03627607D01*
X00769106Y03627784D01*
X00769556Y03627950D01*
X00770009Y03628105D01*
X00770467Y03628248D01*
X00770927Y03628381D01*
X00771391Y03628502D01*
X00771858Y03628612D01*
X00772327Y03628711D01*
X00772798Y03628798D01*
X00773272Y03628873D01*
X00773747Y03628937D01*
X00774223Y03628990D01*
X00774701Y03629030D01*
X00775180Y03629060D01*
X00775659Y03629077D01*
X00776138Y03629083D01*
X00805665Y03629083D01*
X00776138Y03609398D01*
X00805665Y03589713D01*
X00776138Y03570028D01*
X00805665Y03550343D01*
X00805665Y03589713D01*
X00805665Y03629083D01*
X00830272Y03629083D01*
X00830272Y03550343D01*
X00746610Y03550343D02*
X00677713Y03550343D01*
X00677713Y03570028D01*
X00722004Y03570028D01*
X00722004Y03579870D01*
X00677713Y03579870D01*
X00677713Y03599555D01*
X00722004Y03599555D01*
X00722004Y03609398D01*
X00677713Y03609398D01*
X00677713Y03629083D01*
X00746610Y03629083D01*
X00746610Y03550343D01*
X00667870Y03550343D02*
X00613736Y03550343D01*
X00613137Y03550350D01*
X00612538Y03550372D01*
X00611940Y03550409D01*
X00611343Y03550460D01*
X00610747Y03550525D01*
X00610153Y03550605D01*
X00609562Y03550700D01*
X00608972Y03550809D01*
X00608386Y03550932D01*
X00607803Y03551069D01*
X00607223Y03551221D01*
X00606647Y03551386D01*
X00606075Y03551566D01*
X00605508Y03551759D01*
X00604946Y03551967D01*
X00604389Y03552187D01*
X00603837Y03552422D01*
X00603292Y03552670D01*
X00602752Y03552930D01*
X00602219Y03553204D01*
X00601693Y03553491D01*
X00601174Y03553791D01*
X00600663Y03554103D01*
X00600159Y03554428D01*
X00599664Y03554764D01*
X00599176Y03555113D01*
X00598697Y03555473D01*
X00598228Y03555845D01*
X00597767Y03556229D01*
X00597316Y03556623D01*
X00596875Y03557028D01*
X00596443Y03557444D01*
X00596022Y03557871D01*
X00595611Y03558307D01*
X00595212Y03558753D01*
X00594823Y03559209D01*
X00594445Y03559674D01*
X00594079Y03560149D01*
X00593724Y03560632D01*
X00593381Y03561123D01*
X00593051Y03561623D01*
X00592732Y03562131D01*
X00592427Y03562646D01*
X00592133Y03563169D01*
X00591853Y03563698D01*
X00591585Y03564234D01*
X00591331Y03564777D01*
X00591090Y03565325D01*
X00590862Y03565880D01*
X00590648Y03566439D01*
X00590448Y03567004D01*
X00590261Y03567574D01*
X00590089Y03568147D01*
X00589930Y03568725D01*
X00589786Y03569307D01*
X00589655Y03569892D01*
X00589539Y03570480D01*
X00589438Y03571070D01*
X00589350Y03571663D01*
X00589278Y03572258D01*
X00589219Y03572854D01*
X00589176Y03573452D01*
X00589146Y03574050D01*
X00589132Y03574649D01*
X00589132Y03575249D01*
X00589146Y03575848D01*
X00589176Y03576446D01*
X00589219Y03577044D01*
X00589278Y03577640D01*
X00589350Y03578235D01*
X00589438Y03578828D01*
X00589539Y03579418D01*
X00589655Y03580006D01*
X00589786Y03580591D01*
X00589930Y03581173D01*
X00590089Y03581751D01*
X00590261Y03582324D01*
X00590448Y03582894D01*
X00590648Y03583459D01*
X00590862Y03584018D01*
X00591090Y03584573D01*
X00591331Y03585121D01*
X00591585Y03585664D01*
X00591853Y03586200D01*
X00592133Y03586729D01*
X00592427Y03587252D01*
X00592732Y03587767D01*
X00593051Y03588275D01*
X00593381Y03588775D01*
X00593724Y03589266D01*
X00594079Y03589749D01*
X00594445Y03590224D01*
X00594823Y03590689D01*
X00595212Y03591145D01*
X00595611Y03591591D01*
X00596022Y03592027D01*
X00596443Y03592454D01*
X00596875Y03592870D01*
X00597316Y03593275D01*
X00597767Y03593669D01*
X00598228Y03594053D01*
X00598697Y03594425D01*
X00599176Y03594785D01*
X00599664Y03595134D01*
X00600159Y03595470D01*
X00600663Y03595795D01*
X00601174Y03596107D01*
X00601693Y03596407D01*
X00602219Y03596694D01*
X00602752Y03596968D01*
X00603292Y03597228D01*
X00603837Y03597476D01*
X00604389Y03597711D01*
X00604946Y03597931D01*
X00605508Y03598139D01*
X00606075Y03598332D01*
X00606647Y03598512D01*
X00607223Y03598677D01*
X00607803Y03598829D01*
X00608386Y03598966D01*
X00608972Y03599089D01*
X00609562Y03599198D01*
X00610153Y03599293D01*
X00610747Y03599373D01*
X00611343Y03599438D01*
X00611940Y03599489D01*
X00612538Y03599526D01*
X00613137Y03599548D01*
X00613736Y03599555D01*
X00594051Y03629083D01*
X00623579Y03629083D01*
X00643264Y03599555D01*
X00643264Y03629083D01*
X00667870Y03629083D01*
X00667870Y03550343D01*
X00643264Y03570028D02*
X00628500Y03570028D01*
X00628500Y03570027D02*
X00628320Y03570029D01*
X00628141Y03570036D01*
X00627961Y03570047D01*
X00627782Y03570062D01*
X00627603Y03570082D01*
X00627425Y03570106D01*
X00627248Y03570134D01*
X00627071Y03570167D01*
X00626895Y03570204D01*
X00626720Y03570245D01*
X00626546Y03570290D01*
X00626373Y03570340D01*
X00626202Y03570394D01*
X00626032Y03570452D01*
X00625863Y03570514D01*
X00625696Y03570580D01*
X00625530Y03570651D01*
X00625367Y03570725D01*
X00625205Y03570803D01*
X00625045Y03570885D01*
X00624887Y03570972D01*
X00624731Y03571061D01*
X00624578Y03571155D01*
X00624427Y03571252D01*
X00624278Y03571353D01*
X00624132Y03571458D01*
X00623988Y03571566D01*
X00623847Y03571678D01*
X00623709Y03571793D01*
X00623574Y03571911D01*
X00623441Y03572033D01*
X00623312Y03572157D01*
X00623186Y03572285D01*
X00623062Y03572416D01*
X00622943Y03572550D01*
X00622826Y03572687D01*
X00622713Y03572827D01*
X00622603Y03572969D01*
X00622496Y03573114D01*
X00622393Y03573261D01*
X00622294Y03573411D01*
X00622199Y03573563D01*
X00622107Y03573718D01*
X00622019Y03573875D01*
X00621935Y03574034D01*
X00621855Y03574195D01*
X00621778Y03574357D01*
X00621706Y03574522D01*
X00621638Y03574688D01*
X00621573Y03574856D01*
X00621513Y03575025D01*
X00621457Y03575196D01*
X00621406Y03575368D01*
X00621358Y03575542D01*
X00621315Y03575716D01*
X00621276Y03575892D01*
X00621241Y03576068D01*
X00621210Y03576245D01*
X00621184Y03576423D01*
X00621162Y03576602D01*
X00621145Y03576781D01*
X00621132Y03576960D01*
X00621123Y03577139D01*
X00621119Y03577319D01*
X00621119Y03577499D01*
X00621123Y03577679D01*
X00621132Y03577858D01*
X00621145Y03578037D01*
X00621162Y03578216D01*
X00621184Y03578395D01*
X00621210Y03578573D01*
X00621241Y03578750D01*
X00621276Y03578926D01*
X00621315Y03579102D01*
X00621358Y03579276D01*
X00621406Y03579450D01*
X00621457Y03579622D01*
X00621513Y03579793D01*
X00621573Y03579962D01*
X00621638Y03580130D01*
X00621706Y03580296D01*
X00621778Y03580461D01*
X00621855Y03580623D01*
X00621935Y03580784D01*
X00622019Y03580943D01*
X00622107Y03581100D01*
X00622199Y03581255D01*
X00622294Y03581407D01*
X00622393Y03581557D01*
X00622496Y03581704D01*
X00622603Y03581849D01*
X00622713Y03581991D01*
X00622826Y03582131D01*
X00622943Y03582268D01*
X00623062Y03582402D01*
X00623186Y03582533D01*
X00623312Y03582661D01*
X00623441Y03582785D01*
X00623574Y03582907D01*
X00623709Y03583025D01*
X00623847Y03583140D01*
X00623988Y03583252D01*
X00624132Y03583360D01*
X00624278Y03583465D01*
X00624427Y03583566D01*
X00624578Y03583663D01*
X00624731Y03583757D01*
X00624887Y03583846D01*
X00625045Y03583933D01*
X00625205Y03584015D01*
X00625367Y03584093D01*
X00625530Y03584167D01*
X00625696Y03584238D01*
X00625863Y03584304D01*
X00626032Y03584366D01*
X00626202Y03584424D01*
X00626373Y03584478D01*
X00626546Y03584528D01*
X00626720Y03584573D01*
X00626895Y03584614D01*
X00627071Y03584651D01*
X00627248Y03584684D01*
X00627425Y03584712D01*
X00627603Y03584736D01*
X00627782Y03584756D01*
X00627961Y03584771D01*
X00628141Y03584782D01*
X00628320Y03584789D01*
X00628500Y03584791D01*
X00643264Y03584791D01*
X00643264Y03570028D01*
X00544839Y03550343D02*
X00545798Y03550355D01*
X00546756Y03550390D01*
X00547713Y03550448D01*
X00548668Y03550530D01*
X00549621Y03550635D01*
X00550571Y03550763D01*
X00551518Y03550914D01*
X00552461Y03551088D01*
X00553399Y03551285D01*
X00554332Y03551505D01*
X00555260Y03551747D01*
X00556181Y03552012D01*
X00557096Y03552300D01*
X00558004Y03552609D01*
X00558903Y03552941D01*
X00559794Y03553294D01*
X00560677Y03553669D01*
X00561550Y03554066D01*
X00562413Y03554483D01*
X00563266Y03554921D01*
X00564107Y03555380D01*
X00564938Y03555860D01*
X00565756Y03556359D01*
X00566562Y03556879D01*
X00567355Y03557417D01*
X00568135Y03557975D01*
X00568901Y03558552D01*
X00569653Y03559147D01*
X00570390Y03559760D01*
X00571111Y03560391D01*
X00571818Y03561040D01*
X00572508Y03561705D01*
X00573182Y03562387D01*
X00573839Y03563086D01*
X00574478Y03563800D01*
X00575101Y03564529D01*
X00575705Y03565273D01*
X00576291Y03566032D01*
X00576858Y03566805D01*
X00577407Y03567592D01*
X00577936Y03568391D01*
X00578445Y03569204D01*
X00578934Y03570028D01*
X00579404Y03570864D01*
X00579852Y03571711D01*
X00580280Y03572569D01*
X00580687Y03573437D01*
X00581073Y03574315D01*
X00581437Y03575202D01*
X00581780Y03576098D01*
X00582100Y03577001D01*
X00582399Y03577912D01*
X00582675Y03578830D01*
X00582929Y03579755D01*
X00583160Y03580685D01*
X00583368Y03581621D01*
X00583554Y03582562D01*
X00583717Y03583507D01*
X00583856Y03584455D01*
X00583973Y03585407D01*
X00584066Y03586361D01*
X00584136Y03587317D01*
X00584183Y03588275D01*
X00584206Y03589234D01*
X00584206Y03590192D01*
X00584183Y03591151D01*
X00584136Y03592109D01*
X00584066Y03593065D01*
X00583973Y03594019D01*
X00583856Y03594971D01*
X00583717Y03595919D01*
X00583554Y03596864D01*
X00583368Y03597805D01*
X00583160Y03598741D01*
X00582929Y03599671D01*
X00582675Y03600596D01*
X00582399Y03601514D01*
X00582100Y03602425D01*
X00581780Y03603328D01*
X00581437Y03604224D01*
X00581073Y03605111D01*
X00580687Y03605989D01*
X00580280Y03606857D01*
X00579852Y03607715D01*
X00579404Y03608562D01*
X00578934Y03609398D01*
X00578445Y03610222D01*
X00577936Y03611035D01*
X00577407Y03611834D01*
X00576858Y03612621D01*
X00576291Y03613394D01*
X00575705Y03614153D01*
X00575101Y03614897D01*
X00574478Y03615626D01*
X00573839Y03616340D01*
X00573182Y03617039D01*
X00572508Y03617721D01*
X00571818Y03618386D01*
X00571111Y03619035D01*
X00570390Y03619666D01*
X00569653Y03620279D01*
X00568901Y03620874D01*
X00568135Y03621451D01*
X00567355Y03622009D01*
X00566562Y03622547D01*
X00565756Y03623067D01*
X00564938Y03623566D01*
X00564107Y03624046D01*
X00563266Y03624505D01*
X00562413Y03624943D01*
X00561550Y03625360D01*
X00560677Y03625757D01*
X00559794Y03626132D01*
X00558903Y03626485D01*
X00558004Y03626817D01*
X00557096Y03627126D01*
X00556181Y03627414D01*
X00555260Y03627679D01*
X00554332Y03627921D01*
X00553399Y03628141D01*
X00552461Y03628338D01*
X00551518Y03628512D01*
X00550571Y03628663D01*
X00549621Y03628791D01*
X00548668Y03628896D01*
X00547713Y03628978D01*
X00546756Y03629036D01*
X00545798Y03629071D01*
X00544839Y03629083D01*
X00534996Y03609398D02*
X00534996Y03589713D01*
X00534996Y03570028D02*
X00535475Y03570034D01*
X00535954Y03570051D01*
X00536433Y03570081D01*
X00536911Y03570121D01*
X00537387Y03570174D01*
X00537862Y03570238D01*
X00538336Y03570313D01*
X00538807Y03570400D01*
X00539276Y03570499D01*
X00539743Y03570609D01*
X00540207Y03570730D01*
X00540667Y03570863D01*
X00541125Y03571006D01*
X00541578Y03571161D01*
X00542028Y03571327D01*
X00542474Y03571504D01*
X00542915Y03571691D01*
X00543351Y03571889D01*
X00543783Y03572098D01*
X00544209Y03572317D01*
X00544630Y03572547D01*
X00545045Y03572786D01*
X00545455Y03573036D01*
X00545858Y03573296D01*
X00546254Y03573565D01*
X00546644Y03573844D01*
X00547027Y03574132D01*
X00547403Y03574430D01*
X00547771Y03574737D01*
X00548132Y03575052D01*
X00548485Y03575376D01*
X00548830Y03575709D01*
X00549167Y03576050D01*
X00549496Y03576399D01*
X00549816Y03576756D01*
X00550127Y03577121D01*
X00550429Y03577493D01*
X00550722Y03577873D01*
X00551006Y03578259D01*
X00551280Y03578652D01*
X00551544Y03579052D01*
X00551799Y03579458D01*
X00552044Y03579871D01*
X00552278Y03580289D01*
X00552503Y03580712D01*
X00552717Y03581141D01*
X00552920Y03581575D01*
X00553113Y03582014D01*
X00553295Y03582458D01*
X00553466Y03582905D01*
X00553627Y03583357D01*
X00553776Y03583813D01*
X00553914Y03584272D01*
X00554041Y03584734D01*
X00554157Y03585199D01*
X00554261Y03585667D01*
X00554354Y03586137D01*
X00554435Y03586610D01*
X00554505Y03587084D01*
X00554563Y03587560D01*
X00554610Y03588037D01*
X00554645Y03588515D01*
X00554668Y03588994D01*
X00554680Y03589473D01*
X00554680Y03589953D01*
X00554668Y03590432D01*
X00554645Y03590911D01*
X00554610Y03591389D01*
X00554563Y03591866D01*
X00554505Y03592342D01*
X00554435Y03592816D01*
X00554354Y03593289D01*
X00554261Y03593759D01*
X00554157Y03594227D01*
X00554041Y03594692D01*
X00553914Y03595154D01*
X00553776Y03595613D01*
X00553627Y03596069D01*
X00553466Y03596521D01*
X00553295Y03596968D01*
X00553113Y03597412D01*
X00552920Y03597851D01*
X00552717Y03598285D01*
X00552503Y03598714D01*
X00552278Y03599137D01*
X00552044Y03599556D01*
X00551799Y03599968D01*
X00551544Y03600374D01*
X00551280Y03600774D01*
X00551006Y03601167D01*
X00550722Y03601553D01*
X00550429Y03601933D01*
X00550127Y03602305D01*
X00549816Y03602670D01*
X00549496Y03603027D01*
X00549167Y03603376D01*
X00548830Y03603717D01*
X00548485Y03604050D01*
X00548132Y03604374D01*
X00547771Y03604689D01*
X00547403Y03604996D01*
X00547027Y03605294D01*
X00546644Y03605582D01*
X00546254Y03605861D01*
X00545858Y03606130D01*
X00545455Y03606390D01*
X00545045Y03606640D01*
X00544630Y03606879D01*
X00544209Y03607109D01*
X00543783Y03607328D01*
X00543351Y03607537D01*
X00542915Y03607735D01*
X00542474Y03607922D01*
X00542028Y03608099D01*
X00541578Y03608265D01*
X00541125Y03608420D01*
X00540667Y03608563D01*
X00540207Y03608696D01*
X00539743Y03608817D01*
X00539276Y03608927D01*
X00538807Y03609026D01*
X00538336Y03609113D01*
X00537862Y03609188D01*
X00537387Y03609252D01*
X00536911Y03609305D01*
X00536433Y03609345D01*
X00535954Y03609375D01*
X00535475Y03609392D01*
X00534996Y03609398D01*
X00534996Y03589713D02*
X00515311Y03589713D01*
X00515311Y03624161D01*
X00515312Y03570027D02*
X00517093Y03569812D01*
X00518880Y03569639D01*
X00520670Y03569509D01*
X00522462Y03569423D01*
X00524257Y03569379D01*
X00526051Y03569379D01*
X00527846Y03569423D01*
X00529638Y03569509D01*
X00531428Y03569639D01*
X00533215Y03569812D01*
X00534996Y03570027D01*
X00515311Y03624162D02*
X00517353Y03624826D01*
X00519410Y03625443D01*
X00521480Y03626013D01*
X00523563Y03626535D01*
X00525658Y03627009D01*
X00527763Y03627434D01*
X00529877Y03627812D01*
X00531999Y03628141D01*
X00534128Y03628420D01*
X00536263Y03628651D01*
X00538402Y03628833D01*
X00540546Y03628966D01*
X00542691Y03629049D01*
X00544839Y03629083D01*
X00544839Y03550343D02*
X00541500Y03550272D01*
X00538161Y03550279D01*
X00534823Y03550364D01*
X00531487Y03550527D01*
X00528157Y03550768D01*
X00524832Y03551087D01*
X00521517Y03551483D01*
X00518211Y03551957D01*
X00514918Y03552508D01*
X00515508Y03552508D02*
X00515508Y03570028D01*
D101*
X00479287Y03698768D02*
X00529287Y03929083D01*
X00579287Y03929083D01*
X00629287Y03698768D01*
X00729287Y03698768D02*
X00779287Y03929083D01*
X00829287Y03929083D01*
X00879287Y03698768D01*
X01077358Y03068846D02*
X01062358Y03053846D01*
X01062358Y02983846D01*
X01077358Y02968846D01*
X01062358Y02953846D01*
X01062358Y02883846D01*
X01077358Y02868846D01*
X01062358Y02853846D01*
X01062358Y02783846D01*
X01077358Y02768846D01*
X01247358Y02768846D01*
X01262358Y02783846D01*
X01262358Y02853846D01*
X01247358Y02868846D01*
X01262358Y02883846D01*
X01262358Y02953846D01*
X01247358Y02968846D01*
X01262358Y02983846D01*
X01262358Y03053846D01*
X01247358Y03068846D01*
X01077358Y03068846D01*
X00904730Y02513796D02*
X00664730Y02513796D01*
X00663147Y02513777D01*
X00661565Y02513719D01*
X00659985Y02513623D01*
X00658408Y02513488D01*
X00656835Y02513315D01*
X00655266Y02513103D01*
X00653703Y02512854D01*
X00652146Y02512566D01*
X00650597Y02512241D01*
X00649056Y02511878D01*
X00647525Y02511478D01*
X00646004Y02511040D01*
X00644493Y02510566D01*
X00642995Y02510054D01*
X00641510Y02509507D01*
X00640039Y02508924D01*
X00638582Y02508305D01*
X00637140Y02507650D01*
X00635715Y02506961D01*
X00634308Y02506237D01*
X00632918Y02505479D01*
X00631547Y02504688D01*
X00630196Y02503863D01*
X00628865Y02503006D01*
X00627556Y02502116D01*
X00626268Y02501195D01*
X00625004Y02500243D01*
X00623763Y02499261D01*
X00622546Y02498248D01*
X00621354Y02497206D01*
X00620188Y02496136D01*
X00619049Y02495037D01*
X00617936Y02493911D01*
X00616852Y02492758D01*
X00615795Y02491579D01*
X00614768Y02490375D01*
X00613770Y02489146D01*
X00612803Y02487893D01*
X00611866Y02486617D01*
X00610961Y02485318D01*
X00610087Y02483998D01*
X00609246Y02482657D01*
X00608438Y02481296D01*
X00607664Y02479916D01*
X00606923Y02478517D01*
X00606216Y02477100D01*
X00605544Y02475667D01*
X00604907Y02474218D01*
X00604306Y02472754D01*
X00603741Y02471275D01*
X00603211Y02469783D01*
X00602719Y02468279D01*
X00602263Y02466763D01*
X00601844Y02465237D01*
X00601462Y02463700D01*
X00601118Y02462155D01*
X00600811Y02460602D01*
X00600543Y02459042D01*
X00600312Y02457476D01*
X00600120Y02455905D01*
X00599966Y02454330D01*
X00599850Y02452751D01*
X00599773Y02451170D01*
X00599735Y02449587D01*
X00599735Y02448005D01*
X00599773Y02446422D01*
X00599850Y02444841D01*
X00599966Y02443262D01*
X00600120Y02441687D01*
X00600312Y02440116D01*
X00600543Y02438550D01*
X00600811Y02436990D01*
X00601118Y02435437D01*
X00601462Y02433892D01*
X00601844Y02432355D01*
X00602263Y02430829D01*
X00602719Y02429313D01*
X00603211Y02427809D01*
X00603741Y02426317D01*
X00604306Y02424838D01*
X00604907Y02423374D01*
X00605544Y02421925D01*
X00606216Y02420492D01*
X00606923Y02419075D01*
X00607664Y02417676D01*
X00608438Y02416296D01*
X00609246Y02414935D01*
X00610087Y02413594D01*
X00610961Y02412274D01*
X00611866Y02410975D01*
X00612803Y02409699D01*
X00613770Y02408446D01*
X00614768Y02407217D01*
X00615795Y02406013D01*
X00616852Y02404834D01*
X00617936Y02403681D01*
X00619049Y02402555D01*
X00620188Y02401456D01*
X00621354Y02400386D01*
X00622546Y02399344D01*
X00623763Y02398331D01*
X00625004Y02397349D01*
X00626268Y02396397D01*
X00627556Y02395476D01*
X00628865Y02394586D01*
X00630196Y02393729D01*
X00631547Y02392904D01*
X00632918Y02392113D01*
X00634308Y02391355D01*
X00635715Y02390631D01*
X00637140Y02389942D01*
X00638582Y02389287D01*
X00640039Y02388668D01*
X00641510Y02388085D01*
X00642995Y02387538D01*
X00644493Y02387026D01*
X00646004Y02386552D01*
X00647525Y02386114D01*
X00649056Y02385714D01*
X00650597Y02385351D01*
X00652146Y02385026D01*
X00653703Y02384738D01*
X00655266Y02384489D01*
X00656835Y02384277D01*
X00658408Y02384104D01*
X00659985Y02383969D01*
X00661565Y02383873D01*
X00663147Y02383815D01*
X00664730Y02383796D01*
X00904730Y02383796D01*
X00906313Y02383815D01*
X00907895Y02383873D01*
X00909475Y02383969D01*
X00911052Y02384104D01*
X00912625Y02384277D01*
X00914194Y02384489D01*
X00915757Y02384738D01*
X00917314Y02385026D01*
X00918863Y02385351D01*
X00920404Y02385714D01*
X00921935Y02386114D01*
X00923456Y02386552D01*
X00924967Y02387026D01*
X00926465Y02387538D01*
X00927950Y02388085D01*
X00929421Y02388668D01*
X00930878Y02389287D01*
X00932320Y02389942D01*
X00933745Y02390631D01*
X00935152Y02391355D01*
X00936542Y02392113D01*
X00937913Y02392904D01*
X00939264Y02393729D01*
X00940595Y02394586D01*
X00941904Y02395476D01*
X00943192Y02396397D01*
X00944456Y02397349D01*
X00945697Y02398331D01*
X00946914Y02399344D01*
X00948106Y02400386D01*
X00949272Y02401456D01*
X00950411Y02402555D01*
X00951524Y02403681D01*
X00952608Y02404834D01*
X00953665Y02406013D01*
X00954692Y02407217D01*
X00955690Y02408446D01*
X00956657Y02409699D01*
X00957594Y02410975D01*
X00958499Y02412274D01*
X00959373Y02413594D01*
X00960214Y02414935D01*
X00961022Y02416296D01*
X00961796Y02417676D01*
X00962537Y02419075D01*
X00963244Y02420492D01*
X00963916Y02421925D01*
X00964553Y02423374D01*
X00965154Y02424838D01*
X00965719Y02426317D01*
X00966249Y02427809D01*
X00966741Y02429313D01*
X00967197Y02430829D01*
X00967616Y02432355D01*
X00967998Y02433892D01*
X00968342Y02435437D01*
X00968649Y02436990D01*
X00968917Y02438550D01*
X00969148Y02440116D01*
X00969340Y02441687D01*
X00969494Y02443262D01*
X00969610Y02444841D01*
X00969687Y02446422D01*
X00969725Y02448005D01*
X00969725Y02449587D01*
X00969687Y02451170D01*
X00969610Y02452751D01*
X00969494Y02454330D01*
X00969340Y02455905D01*
X00969148Y02457476D01*
X00968917Y02459042D01*
X00968649Y02460602D01*
X00968342Y02462155D01*
X00967998Y02463700D01*
X00967616Y02465237D01*
X00967197Y02466763D01*
X00966741Y02468279D01*
X00966249Y02469783D01*
X00965719Y02471275D01*
X00965154Y02472754D01*
X00964553Y02474218D01*
X00963916Y02475667D01*
X00963244Y02477100D01*
X00962537Y02478517D01*
X00961796Y02479916D01*
X00961022Y02481296D01*
X00960214Y02482657D01*
X00959373Y02483998D01*
X00958499Y02485318D01*
X00957594Y02486617D01*
X00956657Y02487893D01*
X00955690Y02489146D01*
X00954692Y02490375D01*
X00953665Y02491579D01*
X00952608Y02492758D01*
X00951524Y02493911D01*
X00950411Y02495037D01*
X00949272Y02496136D01*
X00948106Y02497206D01*
X00946914Y02498248D01*
X00945697Y02499261D01*
X00944456Y02500243D01*
X00943192Y02501195D01*
X00941904Y02502116D01*
X00940595Y02503006D01*
X00939264Y02503863D01*
X00937913Y02504688D01*
X00936542Y02505479D01*
X00935152Y02506237D01*
X00933745Y02506961D01*
X00932320Y02507650D01*
X00930878Y02508305D01*
X00929421Y02508924D01*
X00927950Y02509507D01*
X00926465Y02510054D01*
X00924967Y02510566D01*
X00923456Y02511040D01*
X00921935Y02511478D01*
X00920404Y02511878D01*
X00918863Y02512241D01*
X00917314Y02512566D01*
X00915757Y02512854D01*
X00914194Y02513103D01*
X00912625Y02513315D01*
X00911052Y02513488D01*
X00909475Y02513623D01*
X00907895Y02513719D01*
X00906313Y02513777D01*
X00904730Y02513796D01*
X00834730Y02448796D02*
X00809730Y02448796D01*
X00809730Y02478796D01*
X00794730Y02478796D02*
X00794730Y02418796D01*
X00774730Y02418796D01*
X00774730Y02478796D01*
X00794730Y02478796D01*
X00809730Y02448796D02*
X00809730Y02418796D01*
X00759730Y02418796D02*
X00759730Y02448796D01*
X00734730Y02448796D01*
X00759730Y02448796D02*
X00759730Y02478796D01*
X00247791Y02593059D02*
X00247791Y02643059D01*
X00222791Y02668059D01*
X00072791Y02668059D01*
X00047791Y02693059D01*
X00047791Y02743059D01*
X00072791Y02768059D01*
X00222791Y02768059D01*
X00247791Y02793059D01*
X00247791Y02843059D01*
X00222791Y02868059D01*
X00072791Y02868059D01*
X00047791Y02893059D01*
X00047791Y02943059D01*
X00072791Y02968059D01*
X00047791Y02993059D01*
X00047791Y03043059D01*
X00072791Y03068059D01*
X00222791Y03068059D01*
X00247791Y03043059D01*
X00247791Y02993059D01*
X00222791Y02968059D01*
X00072791Y02968059D01*
X00072791Y02868059D02*
X00047791Y02843059D01*
X00047791Y02793059D01*
X00072791Y02768059D01*
X00072791Y02668059D02*
X00047791Y02643059D01*
X00047791Y02593059D01*
X00072791Y02568059D01*
X00222791Y02568059D01*
X00247791Y02593059D01*
X00222791Y02668059D02*
X00247791Y02693059D01*
X00247791Y02743059D01*
X00222791Y02768059D01*
X00222791Y02868059D02*
X00247791Y02893059D01*
X00247791Y02943059D01*
X00222791Y02968059D01*
X00114324Y01863773D02*
X00103648Y01863773D01*
X00092973Y01853097D01*
X00092973Y01821069D01*
X00103648Y01799318D02*
X00114324Y01799318D01*
X00125000Y01788642D01*
X00125000Y01767290D01*
X00114324Y01756614D01*
X00114324Y01734863D02*
X00060945Y01734863D01*
X00071621Y01756614D02*
X00082297Y01756614D01*
X00092973Y01767290D01*
X00092973Y01788642D01*
X00103648Y01799318D01*
X00092973Y01853097D02*
X00082297Y01863773D01*
X00071621Y01863773D01*
X00060945Y01853097D01*
X00060945Y01821069D01*
X00125000Y01821069D01*
X00125000Y01853097D01*
X00114324Y01863773D01*
X00071621Y01799318D02*
X00060945Y01788642D01*
X00060945Y01767290D01*
X00071621Y01756614D01*
X00060945Y01692159D02*
X00114324Y01692159D01*
X00125000Y01702835D01*
X00125000Y01724187D01*
X00114324Y01734863D01*
X00103648Y01605953D02*
X00103648Y01563250D01*
X00092973Y01563250D02*
X00082297Y01573925D01*
X00082297Y01595277D01*
X00092973Y01605953D01*
X00103648Y01605953D01*
X00125000Y01573925D02*
X00114324Y01563250D01*
X00092973Y01563250D01*
X00082297Y01541498D02*
X00082297Y01509470D01*
X00092973Y01498795D01*
X00103648Y01509470D01*
X00103648Y01530822D01*
X00114324Y01541498D01*
X00125000Y01530822D01*
X00125000Y01498795D01*
X00125000Y01477043D02*
X00082297Y01477043D01*
X00082297Y01434340D02*
X00114324Y01434340D01*
X00125000Y01445015D01*
X00125000Y01477043D01*
X00114324Y01412588D02*
X00092973Y01412588D01*
X00082297Y01401912D01*
X00082297Y01380560D01*
X00092973Y01369885D01*
X00114324Y01369885D01*
X00125000Y01380560D01*
X00125000Y01401912D01*
X00114324Y01412588D01*
X00125000Y01348133D02*
X00060945Y01348133D01*
X00082297Y01326781D01*
X00060945Y01305430D01*
X00125000Y01305430D01*
X00114324Y01219223D02*
X00125000Y01208547D01*
X00125000Y01187195D01*
X00114324Y01176520D01*
X00071621Y01219223D01*
X00114324Y01219223D01*
X00114324Y01176520D02*
X00071621Y01176520D01*
X00060945Y01187195D01*
X00060945Y01208547D01*
X00071621Y01219223D01*
X00071621Y01154768D02*
X00114324Y01112065D01*
X00125000Y01122740D01*
X00125000Y01144092D01*
X00114324Y01154768D01*
X00071621Y01154768D01*
X00060945Y01144092D01*
X00060945Y01122740D01*
X00071621Y01112065D01*
X00114324Y01112065D01*
X00125000Y01090313D02*
X00125000Y01047610D01*
X00082297Y01090313D01*
X00071621Y01090313D01*
X00060945Y01079637D01*
X00060945Y01058285D01*
X00071621Y01047610D01*
X00060945Y01004506D02*
X00125000Y01004506D01*
X00125000Y00983155D02*
X00125000Y01025858D01*
X00082297Y00983155D02*
X00060945Y01004506D01*
X00092973Y00896948D02*
X00082297Y00886272D01*
X00082297Y00864921D01*
X00103648Y00864921D02*
X00103648Y00896948D01*
X00092973Y00896948D02*
X00125000Y00896948D01*
X00125000Y00864921D01*
X00114324Y00854245D01*
X00103648Y00864921D01*
X00082297Y00832493D02*
X00082297Y00800466D01*
X00092973Y00789790D01*
X00114324Y00789790D01*
X00125000Y00800466D01*
X00125000Y00832493D01*
X00135676Y00832493D02*
X00146352Y00821817D01*
X00146352Y00811141D01*
X00135676Y00832493D02*
X00082297Y00832493D01*
X00082297Y00757496D02*
X00125000Y00757496D01*
X00125000Y00768171D02*
X00125000Y00746820D01*
X00125000Y00725068D02*
X00092973Y00725068D01*
X00082297Y00714392D01*
X00092973Y00703716D01*
X00125000Y00703716D01*
X00125000Y00682365D02*
X00082297Y00682365D01*
X00082297Y00693041D01*
X00092973Y00703716D01*
X00092973Y00660613D02*
X00092973Y00617910D01*
X00082297Y00617910D02*
X00060945Y00639261D01*
X00082297Y00660613D01*
X00125000Y00660613D01*
X00125000Y00617910D02*
X00082297Y00617910D01*
X00092973Y00596158D02*
X00082297Y00585482D01*
X00082297Y00564131D01*
X00092973Y00553455D01*
X00114324Y00553455D01*
X00125000Y00564131D01*
X00125000Y00585482D01*
X00125000Y00531703D02*
X00103648Y00510352D01*
X00103648Y00521027D02*
X00103648Y00489000D01*
X00103648Y00521027D02*
X00092973Y00531703D01*
X00071621Y00531703D01*
X00060945Y00521027D01*
X00060945Y00489000D01*
X00125000Y00489000D01*
X00103648Y00553455D02*
X00103648Y00596158D01*
X00092973Y00596158D01*
X00082297Y00746820D02*
X00082297Y00757496D01*
X00060945Y00757496D02*
X00050270Y00757496D01*
X00125000Y01573925D02*
X00125000Y01595277D01*
X00957673Y00219634D02*
X00957714Y00222947D01*
X00957836Y00226258D01*
X00958039Y00229565D01*
X00958323Y00232866D01*
X00958688Y00236159D01*
X00959134Y00239443D01*
X00959661Y00242714D01*
X00960267Y00245971D01*
X00960953Y00249213D01*
X00961719Y00252436D01*
X00962563Y00255640D01*
X00963486Y00258822D01*
X00964487Y00261981D01*
X00965565Y00265114D01*
X00966719Y00268220D01*
X00967949Y00271296D01*
X00969255Y00274342D01*
X00970634Y00277354D01*
X00972088Y00280332D01*
X00973614Y00283273D01*
X00975211Y00286175D01*
X00976880Y00289038D01*
X00978618Y00291859D01*
X00980425Y00294636D01*
X00982299Y00297368D01*
X00984240Y00300053D01*
X00986246Y00302690D01*
X00988317Y00305277D01*
X00990450Y00307812D01*
X00992645Y00310294D01*
X00994900Y00312722D01*
X00997214Y00315093D01*
X00999585Y00317407D01*
X01002013Y00319662D01*
X01004495Y00321857D01*
X01007030Y00323990D01*
X01009617Y00326061D01*
X01012254Y00328067D01*
X01014939Y00330008D01*
X01017671Y00331882D01*
X01020448Y00333689D01*
X01023269Y00335427D01*
X01026132Y00337096D01*
X01029034Y00338693D01*
X01031975Y00340219D01*
X01034953Y00341673D01*
X01037965Y00343052D01*
X01041011Y00344358D01*
X01044087Y00345588D01*
X01047193Y00346742D01*
X01050326Y00347820D01*
X01053485Y00348821D01*
X01056667Y00349744D01*
X01059871Y00350588D01*
X01063094Y00351354D01*
X01066336Y00352040D01*
X01069593Y00352646D01*
X01072864Y00353173D01*
X01076148Y00353619D01*
X01079441Y00353984D01*
X01082742Y00354268D01*
X01086049Y00354471D01*
X01089360Y00354593D01*
X01092673Y00354634D01*
X01095986Y00354593D01*
X01099297Y00354471D01*
X01102604Y00354268D01*
X01105905Y00353984D01*
X01109198Y00353619D01*
X01112482Y00353173D01*
X01115753Y00352646D01*
X01119010Y00352040D01*
X01122252Y00351354D01*
X01125475Y00350588D01*
X01128679Y00349744D01*
X01131861Y00348821D01*
X01135020Y00347820D01*
X01138153Y00346742D01*
X01141259Y00345588D01*
X01144335Y00344358D01*
X01147381Y00343052D01*
X01150393Y00341673D01*
X01153371Y00340219D01*
X01156312Y00338693D01*
X01159214Y00337096D01*
X01162077Y00335427D01*
X01164898Y00333689D01*
X01167675Y00331882D01*
X01170407Y00330008D01*
X01173092Y00328067D01*
X01175729Y00326061D01*
X01178316Y00323990D01*
X01180851Y00321857D01*
X01183333Y00319662D01*
X01185761Y00317407D01*
X01188132Y00315093D01*
X01190446Y00312722D01*
X01192701Y00310294D01*
X01194896Y00307812D01*
X01197029Y00305277D01*
X01199100Y00302690D01*
X01201106Y00300053D01*
X01203047Y00297368D01*
X01204921Y00294636D01*
X01206728Y00291859D01*
X01208466Y00289038D01*
X01210135Y00286175D01*
X01211732Y00283273D01*
X01213258Y00280332D01*
X01214712Y00277354D01*
X01216091Y00274342D01*
X01217397Y00271296D01*
X01218627Y00268220D01*
X01219781Y00265114D01*
X01220859Y00261981D01*
X01221860Y00258822D01*
X01222783Y00255640D01*
X01223627Y00252436D01*
X01224393Y00249213D01*
X01225079Y00245971D01*
X01225685Y00242714D01*
X01226212Y00239443D01*
X01226658Y00236159D01*
X01227023Y00232866D01*
X01227307Y00229565D01*
X01227510Y00226258D01*
X01227632Y00222947D01*
X01227673Y00219634D01*
X01227632Y00216321D01*
X01227510Y00213010D01*
X01227307Y00209703D01*
X01227023Y00206402D01*
X01226658Y00203109D01*
X01226212Y00199825D01*
X01225685Y00196554D01*
X01225079Y00193297D01*
X01224393Y00190055D01*
X01223627Y00186832D01*
X01222783Y00183628D01*
X01221860Y00180446D01*
X01220859Y00177287D01*
X01219781Y00174154D01*
X01218627Y00171048D01*
X01217397Y00167972D01*
X01216091Y00164926D01*
X01214712Y00161914D01*
X01213258Y00158936D01*
X01211732Y00155995D01*
X01210135Y00153093D01*
X01208466Y00150230D01*
X01206728Y00147409D01*
X01204921Y00144632D01*
X01203047Y00141900D01*
X01201106Y00139215D01*
X01199100Y00136578D01*
X01197029Y00133991D01*
X01194896Y00131456D01*
X01192701Y00128974D01*
X01190446Y00126546D01*
X01188132Y00124175D01*
X01185761Y00121861D01*
X01183333Y00119606D01*
X01180851Y00117411D01*
X01178316Y00115278D01*
X01175729Y00113207D01*
X01173092Y00111201D01*
X01170407Y00109260D01*
X01167675Y00107386D01*
X01164898Y00105579D01*
X01162077Y00103841D01*
X01159214Y00102172D01*
X01156312Y00100575D01*
X01153371Y00099049D01*
X01150393Y00097595D01*
X01147381Y00096216D01*
X01144335Y00094910D01*
X01141259Y00093680D01*
X01138153Y00092526D01*
X01135020Y00091448D01*
X01131861Y00090447D01*
X01128679Y00089524D01*
X01125475Y00088680D01*
X01122252Y00087914D01*
X01119010Y00087228D01*
X01115753Y00086622D01*
X01112482Y00086095D01*
X01109198Y00085649D01*
X01105905Y00085284D01*
X01102604Y00085000D01*
X01099297Y00084797D01*
X01095986Y00084675D01*
X01092673Y00084634D01*
X01089360Y00084675D01*
X01086049Y00084797D01*
X01082742Y00085000D01*
X01079441Y00085284D01*
X01076148Y00085649D01*
X01072864Y00086095D01*
X01069593Y00086622D01*
X01066336Y00087228D01*
X01063094Y00087914D01*
X01059871Y00088680D01*
X01056667Y00089524D01*
X01053485Y00090447D01*
X01050326Y00091448D01*
X01047193Y00092526D01*
X01044087Y00093680D01*
X01041011Y00094910D01*
X01037965Y00096216D01*
X01034953Y00097595D01*
X01031975Y00099049D01*
X01029034Y00100575D01*
X01026132Y00102172D01*
X01023269Y00103841D01*
X01020448Y00105579D01*
X01017671Y00107386D01*
X01014939Y00109260D01*
X01012254Y00111201D01*
X01009617Y00113207D01*
X01007030Y00115278D01*
X01004495Y00117411D01*
X01002013Y00119606D01*
X00999585Y00121861D01*
X00997214Y00124175D01*
X00994900Y00126546D01*
X00992645Y00128974D01*
X00990450Y00131456D01*
X00988317Y00133991D01*
X00986246Y00136578D01*
X00984240Y00139215D01*
X00982299Y00141900D01*
X00980425Y00144632D01*
X00978618Y00147409D01*
X00976880Y00150230D01*
X00975211Y00153093D01*
X00973614Y00155995D01*
X00972088Y00158936D01*
X00970634Y00161914D01*
X00969255Y00164926D01*
X00967949Y00167972D01*
X00966719Y00171048D01*
X00965565Y00174154D01*
X00964487Y00177287D01*
X00963486Y00180446D01*
X00962563Y00183628D01*
X00961719Y00186832D01*
X00960953Y00190055D01*
X00960267Y00193297D01*
X00959661Y00196554D01*
X00959134Y00199825D01*
X00958688Y00203109D01*
X00958323Y00206402D01*
X00958039Y00209703D01*
X00957836Y00213010D01*
X00957714Y00216321D01*
X00957673Y00219634D01*
D102*
X00904730Y02363796D02*
X00664730Y02363796D01*
X00662660Y02363821D01*
X00660592Y02363897D01*
X00658525Y02364023D01*
X00656463Y02364199D01*
X00654405Y02364425D01*
X00652354Y02364702D01*
X00650310Y02365028D01*
X00648274Y02365404D01*
X00646248Y02365830D01*
X00644234Y02366304D01*
X00642231Y02366828D01*
X00640242Y02367400D01*
X00638267Y02368020D01*
X00636308Y02368689D01*
X00634365Y02369405D01*
X00632441Y02370168D01*
X00630536Y02370977D01*
X00628651Y02371833D01*
X00626788Y02372734D01*
X00624947Y02373681D01*
X00623129Y02374672D01*
X00621337Y02375707D01*
X00619570Y02376785D01*
X00617830Y02377906D01*
X00616117Y02379069D01*
X00614434Y02380274D01*
X00612780Y02381519D01*
X00611157Y02382804D01*
X00609566Y02384128D01*
X00608008Y02385490D01*
X00606483Y02386890D01*
X00604993Y02388327D01*
X00603538Y02389800D01*
X00602120Y02391307D01*
X00600738Y02392849D01*
X00599395Y02394424D01*
X00598090Y02396031D01*
X00596825Y02397669D01*
X00595600Y02399338D01*
X00594417Y02401036D01*
X00593274Y02402762D01*
X00592175Y02404516D01*
X00591118Y02406296D01*
X00590105Y02408101D01*
X00589136Y02409930D01*
X00588212Y02411783D01*
X00587333Y02413657D01*
X00586501Y02415552D01*
X00585714Y02417467D01*
X00584975Y02419400D01*
X00584283Y02421351D01*
X00583638Y02423318D01*
X00583042Y02425301D01*
X00582494Y02427297D01*
X00581995Y02429306D01*
X00581545Y02431326D01*
X00581144Y02433357D01*
X00580793Y02435397D01*
X00580491Y02437445D01*
X00580240Y02439499D01*
X00580039Y02441560D01*
X00579887Y02443624D01*
X00579787Y02445692D01*
X00579736Y02447761D01*
X00579736Y02449831D01*
X00579787Y02451900D01*
X00579887Y02453968D01*
X00580039Y02456032D01*
X00580240Y02458093D01*
X00580491Y02460147D01*
X00580793Y02462195D01*
X00581144Y02464235D01*
X00581545Y02466266D01*
X00581995Y02468286D01*
X00582494Y02470295D01*
X00583042Y02472291D01*
X00583638Y02474274D01*
X00584283Y02476241D01*
X00584975Y02478192D01*
X00585714Y02480125D01*
X00586501Y02482040D01*
X00587333Y02483935D01*
X00588212Y02485809D01*
X00589136Y02487662D01*
X00590105Y02489491D01*
X00591118Y02491296D01*
X00592175Y02493076D01*
X00593274Y02494830D01*
X00594417Y02496556D01*
X00595600Y02498254D01*
X00596825Y02499923D01*
X00598090Y02501561D01*
X00599395Y02503168D01*
X00600738Y02504743D01*
X00602120Y02506285D01*
X00603538Y02507792D01*
X00604993Y02509265D01*
X00606483Y02510702D01*
X00608008Y02512102D01*
X00609566Y02513464D01*
X00611157Y02514788D01*
X00612780Y02516073D01*
X00614434Y02517318D01*
X00616117Y02518523D01*
X00617830Y02519686D01*
X00619570Y02520807D01*
X00621337Y02521885D01*
X00623129Y02522920D01*
X00624947Y02523911D01*
X00626788Y02524858D01*
X00628651Y02525759D01*
X00630536Y02526615D01*
X00632441Y02527424D01*
X00634365Y02528187D01*
X00636308Y02528903D01*
X00638267Y02529572D01*
X00640242Y02530192D01*
X00642231Y02530764D01*
X00644234Y02531288D01*
X00646248Y02531762D01*
X00648274Y02532188D01*
X00650310Y02532564D01*
X00652354Y02532890D01*
X00654405Y02533167D01*
X00656463Y02533393D01*
X00658525Y02533569D01*
X00660592Y02533695D01*
X00662660Y02533771D01*
X00664730Y02533796D01*
X00904730Y02533796D01*
X00906800Y02533771D01*
X00908868Y02533695D01*
X00910935Y02533569D01*
X00912997Y02533393D01*
X00915055Y02533167D01*
X00917106Y02532890D01*
X00919150Y02532564D01*
X00921186Y02532188D01*
X00923212Y02531762D01*
X00925226Y02531288D01*
X00927229Y02530764D01*
X00929218Y02530192D01*
X00931193Y02529572D01*
X00933152Y02528903D01*
X00935095Y02528187D01*
X00937019Y02527424D01*
X00938924Y02526615D01*
X00940809Y02525759D01*
X00942672Y02524858D01*
X00944513Y02523911D01*
X00946331Y02522920D01*
X00948123Y02521885D01*
X00949890Y02520807D01*
X00951630Y02519686D01*
X00953343Y02518523D01*
X00955026Y02517318D01*
X00956680Y02516073D01*
X00958303Y02514788D01*
X00959894Y02513464D01*
X00961452Y02512102D01*
X00962977Y02510702D01*
X00964467Y02509265D01*
X00965922Y02507792D01*
X00967340Y02506285D01*
X00968722Y02504743D01*
X00970065Y02503168D01*
X00971370Y02501561D01*
X00972635Y02499923D01*
X00973860Y02498254D01*
X00975043Y02496556D01*
X00976186Y02494830D01*
X00977285Y02493076D01*
X00978342Y02491296D01*
X00979355Y02489491D01*
X00980324Y02487662D01*
X00981248Y02485809D01*
X00982127Y02483935D01*
X00982959Y02482040D01*
X00983746Y02480125D01*
X00984485Y02478192D01*
X00985177Y02476241D01*
X00985822Y02474274D01*
X00986418Y02472291D01*
X00986966Y02470295D01*
X00987465Y02468286D01*
X00987915Y02466266D01*
X00988316Y02464235D01*
X00988667Y02462195D01*
X00988969Y02460147D01*
X00989220Y02458093D01*
X00989421Y02456032D01*
X00989573Y02453968D01*
X00989673Y02451900D01*
X00989724Y02449831D01*
X00989724Y02447761D01*
X00989673Y02445692D01*
X00989573Y02443624D01*
X00989421Y02441560D01*
X00989220Y02439499D01*
X00988969Y02437445D01*
X00988667Y02435397D01*
X00988316Y02433357D01*
X00987915Y02431326D01*
X00987465Y02429306D01*
X00986966Y02427297D01*
X00986418Y02425301D01*
X00985822Y02423318D01*
X00985177Y02421351D01*
X00984485Y02419400D01*
X00983746Y02417467D01*
X00982959Y02415552D01*
X00982127Y02413657D01*
X00981248Y02411783D01*
X00980324Y02409930D01*
X00979355Y02408101D01*
X00978342Y02406296D01*
X00977285Y02404516D01*
X00976186Y02402762D01*
X00975043Y02401036D01*
X00973860Y02399338D01*
X00972635Y02397669D01*
X00971370Y02396031D01*
X00970065Y02394424D01*
X00968722Y02392849D01*
X00967340Y02391307D01*
X00965922Y02389800D01*
X00964467Y02388327D01*
X00962977Y02386890D01*
X00961452Y02385490D01*
X00959894Y02384128D01*
X00958303Y02382804D01*
X00956680Y02381519D01*
X00955026Y02380274D01*
X00953343Y02379069D01*
X00951630Y02377906D01*
X00949890Y02376785D01*
X00948123Y02375707D01*
X00946331Y02374672D01*
X00944513Y02373681D01*
X00942672Y02372734D01*
X00940809Y02371833D01*
X00938924Y02370977D01*
X00937019Y02370168D01*
X00935095Y02369405D01*
X00933152Y02368689D01*
X00931193Y02368020D01*
X00929218Y02367400D01*
X00927229Y02366828D01*
X00925226Y02366304D01*
X00923212Y02365830D01*
X00921186Y02365404D01*
X00919150Y02365028D01*
X00917106Y02364702D01*
X00915055Y02364425D01*
X00912997Y02364199D01*
X00910935Y02364023D01*
X00908868Y02363897D01*
X00906800Y02363821D01*
X00904730Y02363796D01*
D103*
X00923265Y02734479D02*
X00576808Y02734479D01*
X00561060Y02750227D01*
X00561060Y03096683D01*
X00576808Y03112431D01*
X00923265Y03112431D01*
X00939013Y03096683D01*
X00939013Y02750227D01*
X00923265Y02734479D01*
X00362969Y02383787D02*
X00362969Y02125756D01*
X00222969Y02125756D01*
X00222969Y02383787D01*
X00362969Y02383787D01*
X01023775Y00219634D02*
X01023796Y00221325D01*
X01023858Y00223015D01*
X01023962Y00224702D01*
X01024107Y00226387D01*
X01024293Y00228068D01*
X01024521Y00229743D01*
X01024789Y00231413D01*
X01025099Y00233075D01*
X01025449Y00234730D01*
X01025840Y00236375D01*
X01026271Y00238010D01*
X01026742Y00239634D01*
X01027252Y00241246D01*
X01027802Y00242845D01*
X01028392Y00244430D01*
X01029020Y00246000D01*
X01029686Y00247554D01*
X01030390Y00249092D01*
X01031132Y00250611D01*
X01031910Y00252112D01*
X01032726Y00253594D01*
X01033577Y00255055D01*
X01034464Y00256494D01*
X01035386Y00257912D01*
X01036343Y00259306D01*
X01037334Y00260676D01*
X01038358Y00262022D01*
X01039414Y00263342D01*
X01040503Y00264636D01*
X01041623Y00265903D01*
X01042774Y00267142D01*
X01043955Y00268352D01*
X01045165Y00269533D01*
X01046404Y00270684D01*
X01047671Y00271804D01*
X01048965Y00272893D01*
X01050285Y00273949D01*
X01051631Y00274973D01*
X01053001Y00275964D01*
X01054395Y00276921D01*
X01055813Y00277843D01*
X01057252Y00278730D01*
X01058713Y00279581D01*
X01060195Y00280397D01*
X01061696Y00281175D01*
X01063215Y00281917D01*
X01064753Y00282621D01*
X01066307Y00283287D01*
X01067877Y00283915D01*
X01069462Y00284505D01*
X01071061Y00285055D01*
X01072673Y00285565D01*
X01074297Y00286036D01*
X01075932Y00286467D01*
X01077577Y00286858D01*
X01079232Y00287208D01*
X01080894Y00287518D01*
X01082564Y00287786D01*
X01084239Y00288014D01*
X01085920Y00288200D01*
X01087605Y00288345D01*
X01089292Y00288449D01*
X01090982Y00288511D01*
X01092673Y00288532D01*
X01094364Y00288511D01*
X01096054Y00288449D01*
X01097741Y00288345D01*
X01099426Y00288200D01*
X01101107Y00288014D01*
X01102782Y00287786D01*
X01104452Y00287518D01*
X01106114Y00287208D01*
X01107769Y00286858D01*
X01109414Y00286467D01*
X01111049Y00286036D01*
X01112673Y00285565D01*
X01114285Y00285055D01*
X01115884Y00284505D01*
X01117469Y00283915D01*
X01119039Y00283287D01*
X01120593Y00282621D01*
X01122131Y00281917D01*
X01123650Y00281175D01*
X01125151Y00280397D01*
X01126633Y00279581D01*
X01128094Y00278730D01*
X01129533Y00277843D01*
X01130951Y00276921D01*
X01132345Y00275964D01*
X01133715Y00274973D01*
X01135061Y00273949D01*
X01136381Y00272893D01*
X01137675Y00271804D01*
X01138942Y00270684D01*
X01140181Y00269533D01*
X01141391Y00268352D01*
X01142572Y00267142D01*
X01143723Y00265903D01*
X01144843Y00264636D01*
X01145932Y00263342D01*
X01146988Y00262022D01*
X01148012Y00260676D01*
X01149003Y00259306D01*
X01149960Y00257912D01*
X01150882Y00256494D01*
X01151769Y00255055D01*
X01152620Y00253594D01*
X01153436Y00252112D01*
X01154214Y00250611D01*
X01154956Y00249092D01*
X01155660Y00247554D01*
X01156326Y00246000D01*
X01156954Y00244430D01*
X01157544Y00242845D01*
X01158094Y00241246D01*
X01158604Y00239634D01*
X01159075Y00238010D01*
X01159506Y00236375D01*
X01159897Y00234730D01*
X01160247Y00233075D01*
X01160557Y00231413D01*
X01160825Y00229743D01*
X01161053Y00228068D01*
X01161239Y00226387D01*
X01161384Y00224702D01*
X01161488Y00223015D01*
X01161550Y00221325D01*
X01161571Y00219634D01*
X01161550Y00217943D01*
X01161488Y00216253D01*
X01161384Y00214566D01*
X01161239Y00212881D01*
X01161053Y00211200D01*
X01160825Y00209525D01*
X01160557Y00207855D01*
X01160247Y00206193D01*
X01159897Y00204538D01*
X01159506Y00202893D01*
X01159075Y00201258D01*
X01158604Y00199634D01*
X01158094Y00198022D01*
X01157544Y00196423D01*
X01156954Y00194838D01*
X01156326Y00193268D01*
X01155660Y00191714D01*
X01154956Y00190176D01*
X01154214Y00188657D01*
X01153436Y00187156D01*
X01152620Y00185674D01*
X01151769Y00184213D01*
X01150882Y00182774D01*
X01149960Y00181356D01*
X01149003Y00179962D01*
X01148012Y00178592D01*
X01146988Y00177246D01*
X01145932Y00175926D01*
X01144843Y00174632D01*
X01143723Y00173365D01*
X01142572Y00172126D01*
X01141391Y00170916D01*
X01140181Y00169735D01*
X01138942Y00168584D01*
X01137675Y00167464D01*
X01136381Y00166375D01*
X01135061Y00165319D01*
X01133715Y00164295D01*
X01132345Y00163304D01*
X01130951Y00162347D01*
X01129533Y00161425D01*
X01128094Y00160538D01*
X01126633Y00159687D01*
X01125151Y00158871D01*
X01123650Y00158093D01*
X01122131Y00157351D01*
X01120593Y00156647D01*
X01119039Y00155981D01*
X01117469Y00155353D01*
X01115884Y00154763D01*
X01114285Y00154213D01*
X01112673Y00153703D01*
X01111049Y00153232D01*
X01109414Y00152801D01*
X01107769Y00152410D01*
X01106114Y00152060D01*
X01104452Y00151750D01*
X01102782Y00151482D01*
X01101107Y00151254D01*
X01099426Y00151068D01*
X01097741Y00150923D01*
X01096054Y00150819D01*
X01094364Y00150757D01*
X01092673Y00150736D01*
X01090982Y00150757D01*
X01089292Y00150819D01*
X01087605Y00150923D01*
X01085920Y00151068D01*
X01084239Y00151254D01*
X01082564Y00151482D01*
X01080894Y00151750D01*
X01079232Y00152060D01*
X01077577Y00152410D01*
X01075932Y00152801D01*
X01074297Y00153232D01*
X01072673Y00153703D01*
X01071061Y00154213D01*
X01069462Y00154763D01*
X01067877Y00155353D01*
X01066307Y00155981D01*
X01064753Y00156647D01*
X01063215Y00157351D01*
X01061696Y00158093D01*
X01060195Y00158871D01*
X01058713Y00159687D01*
X01057252Y00160538D01*
X01055813Y00161425D01*
X01054395Y00162347D01*
X01053001Y00163304D01*
X01051631Y00164295D01*
X01050285Y00165319D01*
X01048965Y00166375D01*
X01047671Y00167464D01*
X01046404Y00168584D01*
X01045165Y00169735D01*
X01043955Y00170916D01*
X01042774Y00172126D01*
X01041623Y00173365D01*
X01040503Y00174632D01*
X01039414Y00175926D01*
X01038358Y00177246D01*
X01037334Y00178592D01*
X01036343Y00179962D01*
X01035386Y00181356D01*
X01034464Y00182774D01*
X01033577Y00184213D01*
X01032726Y00185674D01*
X01031910Y00187156D01*
X01031132Y00188657D01*
X01030390Y00190176D01*
X01029686Y00191714D01*
X01029020Y00193268D01*
X01028392Y00194838D01*
X01027802Y00196423D01*
X01027252Y00198022D01*
X01026742Y00199634D01*
X01026271Y00201258D01*
X01025840Y00202893D01*
X01025449Y00204538D01*
X01025099Y00206193D01*
X01024789Y00207855D01*
X01024521Y00209525D01*
X01024293Y00211200D01*
X01024107Y00212881D01*
X01023962Y00214566D01*
X01023858Y00216253D01*
X01023796Y00217943D01*
X01023775Y00219634D01*
D104*
X00897675Y02710857D03*
X00877990Y02710857D03*
X00858305Y02710857D03*
X00838619Y02710857D03*
X00818934Y02710857D03*
X00799249Y02710857D03*
X00779564Y02710857D03*
X00759879Y02710857D03*
X00740194Y02710857D03*
X00720509Y02710857D03*
X00700824Y02710857D03*
X00681139Y02710857D03*
X00661454Y02710857D03*
X00641769Y02710857D03*
X00622084Y02710857D03*
X00602399Y02710857D03*
X00602399Y03136053D03*
X00622084Y03136053D03*
X00641769Y03136053D03*
X00661454Y03136053D03*
X00681139Y03136053D03*
X00700824Y03136053D03*
X00720509Y03136053D03*
X00740194Y03136053D03*
X00759879Y03136053D03*
X00779564Y03136053D03*
X00799249Y03136053D03*
X00818934Y03136053D03*
X00838619Y03136053D03*
X00858305Y03136053D03*
X00877990Y03136053D03*
X00897675Y03136053D03*
D105*
X00962635Y03071093D03*
X00962635Y03051408D03*
X00962635Y03031723D03*
X00962635Y03012038D03*
X00962635Y02992353D03*
X00962635Y02972668D03*
X00962635Y02952983D03*
X00962635Y02933297D03*
X00962635Y02913612D03*
X00962635Y02893927D03*
X00962635Y02874242D03*
X00962635Y02854557D03*
X00962635Y02834872D03*
X00962635Y02815187D03*
X00962635Y02795502D03*
X00962635Y02775817D03*
X00537438Y02775817D03*
X00537438Y02795502D03*
X00537438Y02815187D03*
X00537438Y02834872D03*
X00537438Y02854557D03*
X00537438Y02874242D03*
X00537438Y02893927D03*
X00537438Y02913612D03*
X00537438Y02933297D03*
X00537438Y02952983D03*
X00537438Y02972668D03*
X00537438Y02992353D03*
X00537438Y03012038D03*
X00537438Y03031723D03*
X00537438Y03051408D03*
X00537438Y03071093D03*
D106*
X00218169Y03787531D02*
X00224075Y03793437D01*
X00217185Y03800327D01*
X00211280Y03794421D01*
X00218169Y03787531D01*
X01092177Y03794421D02*
X01098083Y03800327D01*
X01104972Y03793437D01*
X01099067Y03787531D01*
X01092177Y03794421D01*
D107*
X01114815Y03804264D03*
X00233917Y03804264D03*
D108*
X00020291Y02692663D02*
X00020291Y02662638D01*
X00020291Y02677650D02*
X-00024747Y02677650D01*
X-00009734Y02662638D01*
X-00002228Y02646624D02*
X00005279Y02639117D01*
X00005279Y02616598D01*
X00020291Y02616598D02*
X-00024747Y02616598D01*
X-00024747Y02639117D01*
X-00017241Y02646624D01*
X-00002228Y02646624D01*
X-00024747Y02600585D02*
X-00024747Y02585572D01*
X-00024747Y02593078D02*
X00012785Y02593078D01*
X00020291Y02585572D01*
X00020291Y02578065D01*
X00012785Y02570559D01*
X01279820Y02816359D02*
X01324858Y02816359D01*
X01324858Y02801346D02*
X01324858Y02831372D01*
X01324858Y02901346D02*
X01294833Y02931372D01*
X01287326Y02931372D01*
X01279820Y02923866D01*
X01279820Y02908853D01*
X01287326Y02901346D01*
X01279820Y02816359D02*
X01294833Y02801346D01*
X01324858Y02901346D02*
X01324858Y02931372D01*
X01317352Y03001346D02*
X01324858Y03008853D01*
X01324858Y03023866D01*
X01317352Y03031372D01*
X01309845Y03031372D01*
X01302339Y03023866D01*
X01302339Y03016359D01*
X01302339Y03023866D02*
X01294833Y03031372D01*
X01287326Y03031372D01*
X01279820Y03023866D01*
X01279820Y03008853D01*
X01287326Y03001346D01*
D109*
X00822560Y03650591D02*
X00817556Y03650591D01*
X00815054Y03653093D01*
X00817556Y03658097D02*
X00822560Y03658097D01*
X00825062Y03655595D01*
X00825062Y03653093D01*
X00822560Y03650591D01*
X00817556Y03658097D02*
X00815054Y03660599D01*
X00815054Y03663101D01*
X00817556Y03665603D01*
X00822560Y03665603D01*
X00825062Y03663101D01*
X00795597Y03663101D02*
X00793095Y03665603D01*
X00788091Y03665603D01*
X00785589Y03663101D01*
X00785589Y03653093D01*
X00788091Y03650591D01*
X00793095Y03650591D01*
X00795597Y03653093D01*
X00766039Y03650591D02*
X00761034Y03650591D01*
X00763536Y03650591D02*
X00763536Y03665603D01*
X00761034Y03665603D02*
X00766039Y03665603D01*
X00741578Y03665603D02*
X00741578Y03650591D01*
X00731569Y03665603D01*
X00731569Y03650591D01*
X00712113Y03653093D02*
X00712113Y03663101D01*
X00709611Y03665603D01*
X00704606Y03665603D01*
X00702104Y03663101D01*
X00702104Y03653093D01*
X00704606Y03650591D01*
X00709611Y03650591D01*
X00712113Y03653093D01*
X00682648Y03650591D02*
X00677643Y03655595D01*
X00680146Y03655595D02*
X00672639Y03655595D01*
X00672639Y03650591D02*
X00672639Y03665603D01*
X00680146Y03665603D01*
X00682648Y03663101D01*
X00682648Y03658097D01*
X00680146Y03655595D01*
X00653183Y03665603D02*
X00643174Y03665603D01*
X00648178Y03665603D02*
X00648178Y03650591D01*
X00623718Y03653093D02*
X00621215Y03650591D01*
X00616211Y03650591D01*
X00613709Y03653093D01*
X00613709Y03663101D01*
X00616211Y03665603D01*
X00621215Y03665603D01*
X00623718Y03663101D01*
X00594252Y03665603D02*
X00584244Y03665603D01*
X00584244Y03650591D01*
X00594252Y03650591D01*
X00589248Y03658097D02*
X00584244Y03658097D01*
X00564787Y03650591D02*
X00554779Y03650591D01*
X00554779Y03665603D01*
X00535322Y03665603D02*
X00525314Y03665603D01*
X00525314Y03650591D01*
X00535322Y03650591D01*
X00530318Y03658097D02*
X00525314Y03658097D01*
D110*
X01027712Y00219634D02*
X01027732Y00221228D01*
X01027790Y00222821D01*
X01027888Y00224413D01*
X01028025Y00226001D01*
X01028201Y00227586D01*
X01028415Y00229166D01*
X01028668Y00230740D01*
X01028960Y00232307D01*
X01029290Y00233867D01*
X01029659Y00235418D01*
X01030065Y00236960D01*
X01030509Y00238491D01*
X01030991Y00240011D01*
X01031509Y00241519D01*
X01032065Y00243013D01*
X01032657Y00244493D01*
X01033285Y00245959D01*
X01033949Y00247408D01*
X01034648Y00248841D01*
X01035383Y00250256D01*
X01036151Y00251653D01*
X01036954Y00253031D01*
X01037790Y00254388D01*
X01038660Y00255724D01*
X01039562Y00257039D01*
X01040496Y00258331D01*
X01041461Y00259600D01*
X01042457Y00260845D01*
X01043484Y00262065D01*
X01044540Y00263259D01*
X01045625Y00264427D01*
X01046739Y00265568D01*
X01047880Y00266682D01*
X01049048Y00267767D01*
X01050242Y00268823D01*
X01051462Y00269850D01*
X01052707Y00270846D01*
X01053976Y00271811D01*
X01055268Y00272745D01*
X01056583Y00273647D01*
X01057919Y00274517D01*
X01059276Y00275353D01*
X01060654Y00276156D01*
X01062051Y00276924D01*
X01063466Y00277659D01*
X01064899Y00278358D01*
X01066348Y00279022D01*
X01067814Y00279650D01*
X01069294Y00280242D01*
X01070788Y00280798D01*
X01072296Y00281316D01*
X01073816Y00281798D01*
X01075347Y00282242D01*
X01076889Y00282648D01*
X01078440Y00283017D01*
X01080000Y00283347D01*
X01081567Y00283639D01*
X01083141Y00283892D01*
X01084721Y00284106D01*
X01086306Y00284282D01*
X01087894Y00284419D01*
X01089486Y00284517D01*
X01091079Y00284575D01*
X01092673Y00284595D01*
X01094267Y00284575D01*
X01095860Y00284517D01*
X01097452Y00284419D01*
X01099040Y00284282D01*
X01100625Y00284106D01*
X01102205Y00283892D01*
X01103779Y00283639D01*
X01105346Y00283347D01*
X01106906Y00283017D01*
X01108457Y00282648D01*
X01109999Y00282242D01*
X01111530Y00281798D01*
X01113050Y00281316D01*
X01114558Y00280798D01*
X01116052Y00280242D01*
X01117532Y00279650D01*
X01118998Y00279022D01*
X01120447Y00278358D01*
X01121880Y00277659D01*
X01123295Y00276924D01*
X01124692Y00276156D01*
X01126070Y00275353D01*
X01127427Y00274517D01*
X01128763Y00273647D01*
X01130078Y00272745D01*
X01131370Y00271811D01*
X01132639Y00270846D01*
X01133884Y00269850D01*
X01135104Y00268823D01*
X01136298Y00267767D01*
X01137466Y00266682D01*
X01138607Y00265568D01*
X01139721Y00264427D01*
X01140806Y00263259D01*
X01141862Y00262065D01*
X01142889Y00260845D01*
X01143885Y00259600D01*
X01144850Y00258331D01*
X01145784Y00257039D01*
X01146686Y00255724D01*
X01147556Y00254388D01*
X01148392Y00253031D01*
X01149195Y00251653D01*
X01149963Y00250256D01*
X01150698Y00248841D01*
X01151397Y00247408D01*
X01152061Y00245959D01*
X01152689Y00244493D01*
X01153281Y00243013D01*
X01153837Y00241519D01*
X01154355Y00240011D01*
X01154837Y00238491D01*
X01155281Y00236960D01*
X01155687Y00235418D01*
X01156056Y00233867D01*
X01156386Y00232307D01*
X01156678Y00230740D01*
X01156931Y00229166D01*
X01157145Y00227586D01*
X01157321Y00226001D01*
X01157458Y00224413D01*
X01157556Y00222821D01*
X01157614Y00221228D01*
X01157634Y00219634D01*
X01157614Y00218040D01*
X01157556Y00216447D01*
X01157458Y00214855D01*
X01157321Y00213267D01*
X01157145Y00211682D01*
X01156931Y00210102D01*
X01156678Y00208528D01*
X01156386Y00206961D01*
X01156056Y00205401D01*
X01155687Y00203850D01*
X01155281Y00202308D01*
X01154837Y00200777D01*
X01154355Y00199257D01*
X01153837Y00197749D01*
X01153281Y00196255D01*
X01152689Y00194775D01*
X01152061Y00193309D01*
X01151397Y00191860D01*
X01150698Y00190427D01*
X01149963Y00189012D01*
X01149195Y00187615D01*
X01148392Y00186237D01*
X01147556Y00184880D01*
X01146686Y00183544D01*
X01145784Y00182229D01*
X01144850Y00180937D01*
X01143885Y00179668D01*
X01142889Y00178423D01*
X01141862Y00177203D01*
X01140806Y00176009D01*
X01139721Y00174841D01*
X01138607Y00173700D01*
X01137466Y00172586D01*
X01136298Y00171501D01*
X01135104Y00170445D01*
X01133884Y00169418D01*
X01132639Y00168422D01*
X01131370Y00167457D01*
X01130078Y00166523D01*
X01128763Y00165621D01*
X01127427Y00164751D01*
X01126070Y00163915D01*
X01124692Y00163112D01*
X01123295Y00162344D01*
X01121880Y00161609D01*
X01120447Y00160910D01*
X01118998Y00160246D01*
X01117532Y00159618D01*
X01116052Y00159026D01*
X01114558Y00158470D01*
X01113050Y00157952D01*
X01111530Y00157470D01*
X01109999Y00157026D01*
X01108457Y00156620D01*
X01106906Y00156251D01*
X01105346Y00155921D01*
X01103779Y00155629D01*
X01102205Y00155376D01*
X01100625Y00155162D01*
X01099040Y00154986D01*
X01097452Y00154849D01*
X01095860Y00154751D01*
X01094267Y00154693D01*
X01092673Y00154673D01*
X01091079Y00154693D01*
X01089486Y00154751D01*
X01087894Y00154849D01*
X01086306Y00154986D01*
X01084721Y00155162D01*
X01083141Y00155376D01*
X01081567Y00155629D01*
X01080000Y00155921D01*
X01078440Y00156251D01*
X01076889Y00156620D01*
X01075347Y00157026D01*
X01073816Y00157470D01*
X01072296Y00157952D01*
X01070788Y00158470D01*
X01069294Y00159026D01*
X01067814Y00159618D01*
X01066348Y00160246D01*
X01064899Y00160910D01*
X01063466Y00161609D01*
X01062051Y00162344D01*
X01060654Y00163112D01*
X01059276Y00163915D01*
X01057919Y00164751D01*
X01056583Y00165621D01*
X01055268Y00166523D01*
X01053976Y00167457D01*
X01052707Y00168422D01*
X01051462Y00169418D01*
X01050242Y00170445D01*
X01049048Y00171501D01*
X01047880Y00172586D01*
X01046739Y00173700D01*
X01045625Y00174841D01*
X01044540Y00176009D01*
X01043484Y00177203D01*
X01042457Y00178423D01*
X01041461Y00179668D01*
X01040496Y00180937D01*
X01039562Y00182229D01*
X01038660Y00183544D01*
X01037790Y00184880D01*
X01036954Y00186237D01*
X01036151Y00187615D01*
X01035383Y00189012D01*
X01034648Y00190427D01*
X01033949Y00191860D01*
X01033285Y00193309D01*
X01032657Y00194775D01*
X01032065Y00196255D01*
X01031509Y00197749D01*
X01030991Y00199257D01*
X01030509Y00200777D01*
X01030065Y00202308D01*
X01029659Y00203850D01*
X01029290Y00205401D01*
X01028960Y00206961D01*
X01028668Y00208528D01*
X01028415Y00210102D01*
X01028201Y00211682D01*
X01028025Y00213267D01*
X01027888Y00214855D01*
X01027790Y00216447D01*
X01027732Y00218040D01*
X01027712Y00219634D01*
M02*
