G75*
%MOIN*%
%OFA0B0*%
%FSLAX26Y26*%
%IPPOS*%
%LPD*%
%AMOC8*
5,1,8,0,0,1.08239X$1,22.5*
%
%ADD10R,0.047370X0.051307*%
%ADD11R,0.051307X0.047370*%
%ADD12C,0.060000*%
%ADD13OC8,0.064000*%
%ADD14C,0.065402*%
%ADD15C,0.138551*%
%ADD16OC8,0.068000*%
%ADD17C,0.137921*%
%ADD18R,0.078866X0.070992*%
%ADD19C,0.043685*%
%ADD20C,0.047622*%
D10*
X00521414Y02629913D03*
X00521414Y02696843D03*
X00484441Y03153673D03*
X00484441Y03220602D03*
X00961760Y02694913D03*
X00961760Y02627984D03*
X00970750Y03148816D03*
X00970750Y03215745D03*
X01132776Y03143966D03*
X01199705Y03143966D03*
D11*
X00450697Y02444805D03*
X00517626Y02444805D03*
X01050749Y02450720D03*
X01117679Y02450720D03*
X01127601Y02705879D03*
X01194530Y02705879D03*
D12*
X00879730Y02448796D03*
X00689730Y02448796D03*
D13*
X01112358Y02818846D03*
X01112358Y02918846D03*
X01112358Y03018846D03*
X01212358Y03018846D03*
X01212358Y02918846D03*
X01212358Y02818846D03*
D14*
X00817083Y03450382D02*
X00817083Y03507783D01*
X00718657Y03507783D02*
X00718657Y03450382D01*
X00639917Y03450382D02*
X00639917Y03507783D01*
X00541492Y03507783D02*
X00541492Y03450382D01*
D15*
X00420626Y03585776D03*
X00937949Y03585776D03*
D16*
X00197791Y03018059D03*
X00197791Y02918059D03*
X00197791Y02818059D03*
X00197791Y02718059D03*
X00197791Y02618059D03*
X00097791Y02618059D03*
X00097791Y02718059D03*
X00097791Y02818059D03*
X00097791Y02918059D03*
X00097791Y03018059D03*
D17*
X01092673Y00219634D03*
D18*
X00816000Y02860382D03*
X00816000Y02970618D03*
D19*
X00741000Y03065500D03*
X00728500Y03215500D03*
X00691000Y03253000D03*
X00641000Y03253000D03*
X00591000Y03228000D03*
X00553500Y03203000D03*
X00566000Y03153000D03*
X00603500Y03090500D03*
X00641000Y02915500D03*
X00591000Y02853000D03*
X00566000Y02703000D03*
X00453500Y02753000D03*
X00378500Y02815500D03*
X00378500Y02865500D03*
X00378500Y02965500D03*
X00378500Y03103000D03*
X00428500Y03190500D03*
X00289284Y02818561D03*
X00278978Y02718720D03*
X00378500Y02665500D03*
X00278500Y03565500D03*
X00766000Y03390500D03*
X00803500Y03215500D03*
X00903500Y03078000D03*
X01041000Y03103000D03*
X01078500Y03153000D03*
X01041000Y02915500D03*
X01041000Y02740500D03*
X01066000Y02703000D03*
X00878500Y02628000D03*
X00916000Y03815500D03*
D20*
X00641000Y03053000D03*
X00894105Y02976223D03*
M02*
